<svg xmlns="http://www.w3.org/2000/svg" version="1.1" xmlns:xlink="http://www.w3.org/1999/xlink" xmlns:svgjs="http://svgjs.dev/svgjs" width="260" height="260"><svg xmlns="http://www.w3.org/2000/svg" xmlns:xlink="http://www.w3.org/1999/xlink" width="260" zoomAndPan="magnify" viewBox="0 0 194.87999 195.000001" height="260" preserveAspectRatio="xMidYMid meet" version="1.0"><defs><g></g><clipPath id="SvgjsClipPath1007"><path d="M 3.464844 24.21875 L 122.851562 24.21875 L 122.851562 121.96875 L 3.464844 121.96875 Z M 3.464844 24.21875 " clip-rule="nonzero"></path></clipPath><clipPath id="SvgjsClipPath1006"><path d="M 89.296875 85 L 131 85 L 131 126.847656 L 89.296875 126.847656 Z M 89.296875 85 " clip-rule="nonzero"></path></clipPath><clipPath id="SvgjsClipPath1005"><path d="M 157 87 L 194.324219 87 L 194.324219 126.847656 L 157 126.847656 Z M 157 87 " clip-rule="nonzero"></path></clipPath><clipPath id="SvgjsClipPath1004"><path d="M 159 123 L 194.324219 123 L 194.324219 164 L 159 164 Z M 159 123 " clip-rule="nonzero"></path></clipPath></defs><g clip-path="url(#d51b5f79cd)"><path fill="#000000" d="M 5.886719 24.21875 L 120.429688 24.21875 C 120.738281 24.21875 121.035156 24.277344 121.320312 24.394531 C 121.605469 24.515625 121.855469 24.683594 122.074219 24.902344 C 122.292969 25.121094 122.460938 25.375 122.578125 25.660156 C 122.699219 25.945312 122.757812 26.242188 122.757812 26.554688 L 122.757812 119.652344 C 122.757812 119.960938 122.699219 120.257812 122.578125 120.542969 C 122.460938 120.832031 122.292969 121.082031 122.074219 121.300781 C 121.855469 121.519531 121.605469 121.6875 121.320312 121.808594 C 121.035156 121.925781 120.738281 121.984375 120.429688 121.984375 L 5.886719 121.984375 C 5.578125 121.984375 5.28125 121.925781 4.996094 121.808594 C 4.710938 121.6875 4.457031 121.519531 4.242188 121.300781 C 4.023438 121.082031 3.855469 120.832031 3.734375 120.542969 C 3.617188 120.257812 3.558594 119.960938 3.558594 119.652344 L 3.558594 26.554688 C 3.558594 26.242188 3.617188 25.945312 3.734375 25.660156 C 3.855469 25.375 4.023438 25.121094 4.242188 24.902344 C 4.457031 24.683594 4.710938 24.515625 4.996094 24.394531 C 5.28125 24.277344 5.578125 24.21875 5.886719 24.21875 Z M 5.886719 24.21875 " fill-opacity="1" fill-rule="nonzero"></path></g><path fill="#ffffff" d="M 16.707031 34.386719 C 16.308594 33.988281 15.828125 33.789062 15.265625 33.789062 C 14.703125 33.789062 14.21875 33.988281 13.816406 34.394531 C 13.421875 34.789062 13.21875 35.273438 13.21875 35.839844 C 13.21875 36.40625 13.421875 36.890625 13.816406 37.285156 L 20.078125 43.5625 L 13.824219 49.835938 C 13.421875 50.238281 13.21875 50.722656 13.214844 51.289062 C 13.21875 51.855469 13.421875 52.339844 13.816406 52.734375 C 14.21875 53.132812 14.703125 53.335938 15.261719 53.339844 C 15.828125 53.339844 16.3125 53.140625 16.714844 52.734375 L 23.667969 45.753906 C 25.128906 44.296875 25.128906 42.832031 23.667969 41.367188 Z M 43.96875 49.847656 C 43.566406 49.445312 43.078125 49.242188 42.507812 49.242188 L 42.507812 49.238281 L 29.082031 49.238281 L 29.082031 49.242188 C 28.511719 49.242188 28.03125 49.445312 27.628906 49.847656 C 27.226562 50.25 27.023438 50.734375 27.023438 51.304688 C 27.023438 51.878906 27.226562 52.367188 27.628906 52.769531 C 28.03125 53.175781 28.511719 53.375 29.082031 53.375 L 29.082031 53.371094 L 42.507812 53.371094 L 42.507812 53.375 C 43.078125 53.375 43.566406 53.175781 43.96875 52.769531 C 44.371094 52.367188 44.570312 51.878906 44.570312 51.304688 C 44.570312 50.734375 44.371094 50.25 43.96875 49.847656 Z M 43.96875 49.847656 " fill-opacity="1" fill-rule="nonzero"></path><path fill="#252322" d="M 105.417969 84.632812 C 106.769531 76.402344 109.828125 68.714844 112.792969 60.988281 C 114.628906 56.183594 117.125 51.6875 119.402344 47.089844 C 122.058594 41.746094 123.660156 36.222656 123.574219 30.164062 C 123.503906 24.277344 124.015625 18.402344 125.703125 12.710938 C 125.984375 11.769531 126.320312 10.851562 126.683594 9.941406 C 129.195312 3.722656 133.890625 0.789062 140.5 0.484375 C 145.238281 0.269531 149.507812 1.476562 153.273438 4.257812 C 156.003906 6.273438 157.863281 9.050781 159.21875 12.167969 C 160.882812 15.980469 161.917969 19.984375 162.171875 24.109375 C 162.4375 28.335938 162.941406 32.5625 162.726562 36.820312 C 162.621094 39.109375 163.519531 41.121094 164.695312 43.023438 C 166.609375 46.125 168.996094 48.875 171.238281 51.734375 C 175.253906 56.871094 178.839844 62.242188 181.019531 68.445312 C 183.199219 74.675781 183.863281 81.09375 183.65625 87.632812 C 183.125 88.796875 183.183594 90.058594 183.09375 91.273438 C 182.796875 95.421875 179.914062 98.914062 175.851562 99.753906 C 173.921875 100.160156 171.945312 100.023438 169.996094 99.945312 C 166.988281 99.824219 165.03125 98.15625 163.804688 95.519531 C 162.734375 93.226562 162.675781 90.78125 162.628906 88.328125 C 162.820312 84.035156 162.5 79.765625 162.070312 75.507812 C 161.429688 69.257812 159.96875 63.183594 158.007812 57.222656 C 156.222656 51.789062 153.972656 46.546875 151.472656 41.417969 C 151.878906 41.082031 152.296875 40.753906 152.707031 40.417969 C 155.371094 38.269531 155.636719 36.09375 153.59375 33.320312 C 152.703125 32.117188 151.480469 31.300781 150.320312 30.40625 C 152.753906 26.855469 152.898438 23.101562 151.167969 19.257812 C 150.335938 17.417969 148.859375 16.421875 146.746094 16.398438 C 144.742188 16.378906 143.03125 18.425781 142.347656 20.527344 C 141.636719 22.71875 141.683594 24.949219 142.140625 27.183594 C 140.21875 26.609375 138.28125 26.425781 136.324219 26.9375 C 136.847656 24.140625 136.789062 21.40625 135.300781 18.882812 C 133.339844 15.527344 129.4375 15.535156 127.425781 18.851562 C 125.40625 22.175781 125.761719 27.417969 128.21875 30.476562 C 126.945312 31.554688 125.59375 32.539062 124.632812 33.945312 C 123.070312 36.246094 123.054688 38.117188 124.71875 40.355469 C 125.375 41.234375 126.152344 42.015625 126.875 42.847656 C 125.480469 46.46875 123.832031 49.96875 122.027344 53.394531 C 119.121094 58.886719 116.820312 64.640625 114.753906 70.496094 C 113.082031 75.226562 111.429688 79.96875 110.65625 84.953125 C 108.949219 84.148438 107.210938 83.964844 105.417969 84.632812 " fill-opacity="1" fill-rule="nonzero"></path><g clip-path="url(#6a0c0a7ffe)"><path fill="#eca210" d="M 100.90625 92.761719 C 101.339844 91.296875 101.476562 89.742188 102.203125 88.367188 C 103.0625 88.246094 103.171875 87.335938 103.765625 86.902344 C 106.832031 84.691406 110.445312 85.242188 112.664062 88.34375 C 114.714844 91.210938 116.199219 94.390625 117.734375 97.539062 C 119.234375 100.632812 121.066406 103.445312 124.070312 105.257812 C 125.113281 105.890625 125.648438 107.136719 126.90625 107.472656 L 126.898438 107.480469 C 126.875 107.863281 126.859375 108.230469 127.402344 108.199219 L 127.394531 108.207031 C 127.46875 108.289062 127.539062 108.382812 127.609375 108.472656 L 127.617188 108.480469 C 127.675781 108.566406 127.738281 108.648438 127.804688 108.734375 C 129.132812 110.734375 129.863281 112.964844 130.324219 115.304688 C 130.574219 118.164062 130.261719 120.9375 128.867188 123.503906 C 126.488281 126.398438 123.414062 126.53125 120.082031 125.773438 C 116.75 125.03125 113.65625 123.648438 110.648438 122.152344 C 108.25 120.953125 105.761719 120.730469 103.214844 120.5 C 100.210938 120.234375 97.230469 119.851562 94.386719 118.765625 C 93.394531 118.390625 92.449219 117.917969 91.617188 117.230469 C 89.878906 115.792969 89.21875 114.003906 89.8125 111.78125 C 90.636719 108.71875 90.4375 105.660156 89.820312 102.566406 C 89.5 100.953125 89.230469 99.257812 90.15625 97.691406 C 91.128906 97.386719 91.785156 96.558594 92.738281 96.171875 C 94.773438 95.328125 96.917969 94.941406 99.046875 94.558594 C 100.1875 94.34375 100.800781 93.902344 100.90625 92.761719 " fill-opacity="1" fill-rule="nonzero"></path></g><g clip-path="url(#c10494d3ff)"><path fill="#eca210" d="M 162.628906 88.328125 C 162.675781 90.78125 162.734375 93.226562 163.804688 95.519531 C 165.03125 98.15625 166.988281 99.824219 169.996094 99.945312 C 171.945312 100.023438 173.921875 100.160156 175.851562 99.753906 C 179.914062 98.914062 182.796875 95.421875 183.09375 91.273438 C 183.183594 90.058594 183.125 88.796875 183.65625 87.632812 C 184.953125 88.636719 185.527344 89.988281 185.472656 91.59375 C 185.417969 93.097656 185.351562 94.613281 185.191406 96.117188 C 185.023438 97.730469 185.824219 98.660156 187.097656 99.457031 C 188.886719 100.578125 190.71875 101.671875 192.183594 103.246094 C 193.128906 104.253906 193.792969 105.410156 194.003906 106.785156 C 194.386719 109.160156 193.464844 110.917969 191.480469 112.195312 C 189.542969 113.441406 187.363281 114.144531 185.214844 114.890625 C 182.582031 115.824219 180.3125 117.199219 178.488281 119.378906 C 177.085938 121.066406 175.46875 122.585938 173.617188 123.816406 C 170.664062 125.765625 167.394531 126.46875 163.941406 126.09375 C 160.8125 125.757812 158.703125 124.015625 157.710938 120.980469 C 157.160156 119.058594 157.140625 117.070312 157.335938 115.128906 C 157.480469 113.714844 157.542969 112.324219 157.511719 110.910156 C 157.75 110.207031 157.6875 109.464844 157.742188 108.742188 C 158.121094 103.773438 158.585938 98.820312 159.945312 94.007812 C 160.515625 91.976562 161.148438 89.941406 162.628906 88.328125 " fill-opacity="1" fill-rule="nonzero"></path></g><path fill="#252322" d="M 157.511719 110.910156 C 157.542969 112.324219 157.480469 113.714844 157.335938 115.128906 C 157.140625 117.070312 157.160156 119.058594 157.710938 120.980469 C 152.335938 120.980469 146.953125 120.921875 141.570312 120.988281 C 137.199219 121.050781 132.9375 121.847656 128.867188 123.503906 C 130.261719 120.9375 130.574219 118.164062 130.324219 115.304688 C 134.59375 115.695312 138.863281 115.738281 143.125 115.21875 C 148.171875 114.601562 152.984375 113.242188 157.511719 110.910156 " fill-opacity="1" fill-rule="nonzero"></path><path fill="#f3c447" d="M 126.90625 107.472656 C 125.648438 107.136719 125.113281 105.890625 124.070312 105.257812 C 121.066406 103.445312 119.234375 100.632812 117.734375 97.539062 C 116.199219 94.390625 114.714844 91.210938 112.664062 88.34375 C 110.445312 85.242188 106.832031 84.691406 103.765625 86.902344 C 103.171875 87.335938 103.0625 88.246094 102.203125 88.367188 C 102.675781 86.609375 103.871094 85.472656 105.417969 84.632812 C 107.210938 83.964844 108.949219 84.148438 110.65625 84.953125 C 112.664062 86.65625 113.96875 88.855469 115.09375 91.1875 C 116.085938 93.242188 117.070312 95.300781 118.113281 97.324219 C 119.425781 99.839844 120.996094 102.121094 123.421875 103.765625 C 124.824219 104.714844 126.082031 105.921875 126.90625 107.472656 " fill-opacity="1" fill-rule="nonzero"></path><path fill="#f3c447" d="M 100.90625 92.761719 C 100.800781 93.902344 100.1875 94.34375 99.046875 94.558594 C 96.917969 94.941406 94.773438 95.328125 92.738281 96.171875 C 91.785156 96.558594 91.128906 97.386719 90.15625 97.691406 C 91.03125 95.652344 92.863281 94.847656 94.78125 94.28125 C 96.796875 93.6875 98.863281 93.257812 100.90625 92.761719 " fill-opacity="1" fill-rule="nonzero"></path><path fill="#ffffff" d="M 126.90625 107.472656 C 126.082031 105.921875 124.824219 104.714844 123.421875 103.765625 C 120.996094 102.121094 119.425781 99.839844 118.113281 97.324219 C 117.070312 95.300781 116.085938 93.242188 115.09375 91.1875 C 113.96875 88.855469 112.664062 86.65625 110.65625 84.953125 C 111.429688 79.96875 113.082031 75.226562 114.753906 70.496094 C 116.820312 64.640625 119.121094 58.886719 122.027344 53.394531 C 123.832031 49.96875 125.480469 46.46875 126.875 42.847656 C 127.144531 43.023438 127.425781 43.183594 127.675781 43.382812 C 129.636719 44.941406 131.785156 46.148438 134.105469 47.082031 C 135.554688 47.660156 136.964844 47.714844 138.488281 47.21875 C 143.023438 45.742188 147.378906 43.886719 151.472656 41.417969 C 153.972656 46.546875 156.222656 51.789062 158.007812 57.222656 C 159.96875 63.183594 161.429688 69.257812 162.070312 75.507812 C 162.5 79.765625 162.820312 84.035156 162.628906 88.328125 C 161.148438 89.941406 160.515625 91.976562 159.945312 94.007812 C 158.585938 98.820312 158.121094 103.773438 157.742188 108.742188 C 157.6875 109.464844 157.75 110.207031 157.511719 110.910156 C 152.984375 113.242188 148.171875 114.601562 143.125 115.21875 C 138.863281 115.738281 134.59375 115.695312 130.324219 115.304688 C 129.863281 112.964844 129.132812 110.734375 127.804688 108.734375 C 127.738281 108.648438 127.675781 108.566406 127.617188 108.480469 L 127.609375 108.472656 C 127.539062 108.382812 127.46875 108.289062 127.394531 108.207031 L 127.402344 108.199219 C 127.371094 107.863281 127.210938 107.625 126.898438 107.480469 L 126.90625 107.472656 " fill-opacity="1" fill-rule="nonzero"></path><path fill="#eca210" d="M 151.472656 41.417969 C 147.378906 43.886719 143.023438 45.742188 138.488281 47.21875 C 136.964844 47.714844 135.554688 47.660156 134.105469 47.082031 C 131.785156 46.148438 129.636719 44.941406 127.675781 43.382812 C 127.425781 43.183594 127.144531 43.023438 126.875 42.847656 C 126.152344 42.015625 125.375 41.234375 124.71875 40.355469 C 123.054688 38.117188 123.070312 36.246094 124.632812 33.945312 C 125.59375 32.539062 126.945312 31.554688 128.21875 30.476562 C 128.820312 30.222656 129.371094 29.886719 129.855469 29.453125 C 131.085938 28.878906 132.3125 28.296875 133.539062 27.71875 C 134.460938 27.457031 135.394531 27.199219 136.324219 26.9375 C 138.28125 26.425781 140.21875 26.609375 142.140625 27.183594 C 143.039062 27.433594 143.933594 27.6875 144.832031 27.9375 C 146.105469 28.441406 147.378906 28.941406 148.660156 29.445312 C 149.042969 30.0625 149.726562 30.15625 150.320312 30.40625 C 151.480469 31.300781 152.703125 32.117188 153.59375 33.320312 C 155.636719 36.09375 155.371094 38.269531 152.707031 40.417969 C 152.296875 40.753906 151.878906 41.082031 151.472656 41.417969 " fill-opacity="1" fill-rule="nonzero"></path><path fill="#ffffff" d="M 150.320312 30.40625 C 149.726562 30.15625 149.042969 30.0625 148.660156 29.445312 C 149.644531 27.472656 149.667969 25.449219 148.980469 23.390625 C 148.660156 22.4375 148.203125 21.4375 147.074219 21.429688 C 145.871094 21.421875 145.417969 22.492188 145.070312 23.460938 C 144.550781 24.921875 144.632812 26.433594 144.832031 27.9375 C 143.933594 27.6875 143.039062 27.433594 142.140625 27.183594 C 141.683594 24.949219 141.636719 22.71875 142.347656 20.527344 C 143.03125 18.425781 144.742188 16.378906 146.746094 16.398438 C 148.859375 16.421875 150.335938 17.417969 151.167969 19.257812 C 152.898438 23.101562 152.753906 26.855469 150.320312 30.40625 " fill-opacity="1" fill-rule="nonzero"></path><path fill="#ffffff" d="M 129.855469 29.453125 C 129.371094 29.886719 128.820312 30.222656 128.21875 30.476562 C 125.761719 27.417969 125.40625 22.175781 127.425781 18.851562 C 129.4375 15.535156 133.339844 15.527344 135.300781 18.882812 C 136.789062 21.40625 136.847656 24.140625 136.324219 26.9375 C 135.394531 27.199219 134.460938 27.457031 133.539062 27.71875 C 133.851562 26.082031 133.777344 24.476562 133.097656 22.933594 C 132.753906 22.160156 132.296875 21.421875 131.359375 21.421875 C 130.429688 21.429688 129.933594 22.175781 129.636719 22.949219 C 128.773438 25.132812 128.789062 27.320312 129.855469 29.453125 " fill-opacity="1" fill-rule="nonzero"></path><path fill="#f3c447" d="M 126.898438 107.480469 C 127.210938 107.625 127.371094 107.863281 127.402344 108.199219 C 126.859375 108.230469 126.875 107.863281 126.898438 107.480469 " fill-opacity="1" fill-rule="nonzero"></path><path fill="#f3c447" d="M 127.394531 108.207031 C 127.46875 108.289062 127.539062 108.382812 127.609375 108.472656 C 127.539062 108.382812 127.46875 108.289062 127.394531 108.207031 " fill-opacity="1" fill-rule="nonzero"></path><path fill="#f3c447" d="M 127.617188 108.480469 C 127.675781 108.566406 127.738281 108.648438 127.804688 108.734375 C 127.738281 108.648438 127.675781 108.566406 127.617188 108.480469 " fill-opacity="1" fill-rule="nonzero"></path><path fill="#252322" d="M 144.832031 27.9375 C 144.632812 26.433594 144.550781 24.921875 145.070312 23.460938 C 145.417969 22.492188 145.871094 21.421875 147.074219 21.429688 C 148.203125 21.4375 148.660156 22.4375 148.980469 23.390625 C 149.667969 25.449219 149.644531 27.472656 148.660156 29.445312 C 147.378906 28.941406 146.105469 28.441406 144.832031 27.9375 " fill-opacity="1" fill-rule="nonzero"></path><path fill="#252322" d="M 129.855469 29.453125 C 128.789062 27.320312 128.773438 25.132812 129.636719 22.949219 C 129.933594 22.175781 130.429688 21.429688 131.359375 21.421875 C 132.296875 21.421875 132.753906 22.160156 133.097656 22.933594 C 133.777344 24.476562 133.851562 26.082031 133.539062 27.71875 C 132.3125 28.296875 131.085938 28.878906 129.855469 29.453125 " fill-opacity="1" fill-rule="nonzero"></path><g fill="#ff00ff" fill-opacity="1"><g transform="translate(-2.803562, 166.51198)"><g><path d="M 34.3125 0 L 5.859375 0 C 5.160156 0 4.648438 -0.15625 4.328125 -0.46875 C 4.015625 -0.789062 3.859375 -1.304688 3.859375 -2.015625 L 3.859375 -38.21875 C 3.859375 -38.925781 4.015625 -39.4375 4.328125 -39.75 C 4.648438 -40.070312 5.160156 -40.234375 5.859375 -40.234375 L 14.53125 -40.234375 C 15.238281 -40.234375 15.75 -40.070312 16.0625 -39.75 C 16.375 -39.4375 16.53125 -38.925781 16.53125 -38.21875 L 16.53125 -10.5625 L 24.1875 -10.5625 L 24.1875 -19.609375 C 24.1875 -20.316406 24.34375 -20.828125 24.65625 -21.140625 C 24.976562 -21.460938 25.492188 -21.625 26.203125 -21.625 L 34.3125 -21.625 C 35.019531 -21.625 35.53125 -21.460938 35.84375 -21.140625 C 36.15625 -20.828125 36.3125 -20.316406 36.3125 -19.609375 L 36.3125 -2.015625 C 36.3125 -1.304688 36.15625 -0.789062 35.84375 -0.46875 C 35.53125 -0.15625 35.019531 0 34.3125 0 Z M 34.3125 0 "></path></g></g></g><g fill="#ff00ff" fill-opacity="1"><g transform="translate(36.028511, 166.51198)"><g><path d="M 4.96875 0 C 4.257812 0 3.75 -0.15625 3.4375 -0.46875 C 3.125 -0.789062 2.96875 -1.304688 2.96875 -2.015625 L 2.96875 -8.65625 C 2.96875 -9.363281 3.125 -9.875 3.4375 -10.1875 C 3.75 -10.507812 4.257812 -10.671875 4.96875 -10.671875 L 10.5 -10.671875 L 10.5 -29.453125 L 4.96875 -29.453125 C 4.257812 -29.453125 3.75 -29.609375 3.4375 -29.921875 C 3.125 -30.234375 2.96875 -30.742188 2.96875 -31.453125 L 2.96875 -38.21875 C 2.96875 -38.925781 3.125 -39.4375 3.4375 -39.75 C 3.75 -40.070312 4.257812 -40.234375 4.96875 -40.234375 L 28.78125 -40.234375 C 29.488281 -40.234375 30 -40.070312 30.3125 -39.75 C 30.625 -39.4375 30.78125 -38.925781 30.78125 -38.21875 L 30.78125 -31.453125 C 30.78125 -30.742188 30.625 -30.234375 30.3125 -29.921875 C 30 -29.609375 29.488281 -29.453125 28.78125 -29.453125 L 23.359375 -29.453125 L 23.359375 -10.671875 L 28.78125 -10.671875 C 29.488281 -10.671875 30 -10.507812 30.3125 -10.1875 C 30.625 -9.875 30.78125 -9.363281 30.78125 -8.65625 L 30.78125 -2.015625 C 30.78125 -1.304688 30.625 -0.789062 30.3125 -0.46875 C 30 -0.15625 29.488281 0 28.78125 0 Z M 4.96875 0 "></path></g></g></g><g fill="#ff00ff" fill-opacity="1"><g transform="translate(69.831968, 166.51198)"><g><path d="M 14.25 0 L 5.859375 0 C 5.160156 0 4.648438 -0.15625 4.328125 -0.46875 C 4.015625 -0.789062 3.859375 -1.304688 3.859375 -2.015625 L 3.859375 -38.21875 C 3.859375 -38.925781 4.015625 -39.4375 4.328125 -39.75 C 4.648438 -40.070312 5.160156 -40.234375 5.859375 -40.234375 L 11.671875 -40.234375 C 12.378906 -40.234375 12.984375 -40.117188 13.484375 -39.890625 C 13.992188 -39.671875 14.488281 -39.28125 14.96875 -38.71875 L 25.8125 -26.3125 L 25.8125 -38.21875 C 25.8125 -38.925781 25.96875 -39.4375 26.28125 -39.75 C 26.601562 -40.070312 27.117188 -40.234375 27.828125 -40.234375 L 36.203125 -40.234375 C 36.910156 -40.234375 37.421875 -40.070312 37.734375 -39.75 C 38.054688 -39.4375 38.21875 -38.925781 38.21875 -38.21875 L 38.21875 -2.015625 C 38.21875 -1.304688 38.054688 -0.789062 37.734375 -0.46875 C 37.421875 -0.15625 36.910156 0 36.203125 0 L 27.828125 0 C 27.117188 0 26.601562 -0.15625 26.28125 -0.46875 C 25.96875 -0.789062 25.8125 -1.304688 25.8125 -2.015625 L 25.8125 -8.890625 L 16.265625 -20.453125 L 16.265625 -2.015625 C 16.265625 -1.304688 16.101562 -0.789062 15.78125 -0.46875 C 15.46875 -0.15625 14.957031 0 14.25 0 Z M 14.25 0 "></path></g></g></g><g fill="#ff00ff" fill-opacity="1"><g transform="translate(111.904698, 166.51198)"><g><path d="M 38.109375 -10.5625 C 38.109375 -8.84375 37.851562 -7.285156 37.34375 -5.890625 C 36.84375 -4.492188 35.953125 -3.300781 34.671875 -2.3125 C 33.390625 -1.332031 31.628906 -0.5625 29.390625 0 C 27.148438 0.5625 24.300781 0.84375 20.84375 0.84375 C 17.375 0.84375 14.519531 0.5625 12.28125 0 C 10.050781 -0.5625 8.289062 -1.332031 7 -2.3125 C 5.71875 -3.300781 4.828125 -4.492188 4.328125 -5.890625 C 3.828125 -7.285156 3.578125 -8.84375 3.578125 -10.5625 L 3.578125 -38.21875 C 3.578125 -38.925781 3.734375 -39.4375 4.046875 -39.75 C 4.367188 -40.070312 4.882812 -40.234375 5.59375 -40.234375 L 14.359375 -40.234375 C 15.066406 -40.234375 15.578125 -40.070312 15.890625 -39.75 C 16.210938 -39.4375 16.375 -38.925781 16.375 -38.21875 L 16.375 -12.734375 C 16.375 -11.992188 16.648438 -11.367188 17.203125 -10.859375 C 17.765625 -10.359375 19.015625 -10.109375 20.953125 -10.109375 C 22.929688 -10.109375 24.195312 -10.359375 24.75 -10.859375 C 25.3125 -11.367188 25.59375 -11.992188 25.59375 -12.734375 L 25.59375 -38.21875 C 25.59375 -38.925781 25.75 -39.4375 26.0625 -39.75 C 26.382812 -40.070312 26.898438 -40.234375 27.609375 -40.234375 L 36.09375 -40.234375 C 36.800781 -40.234375 37.3125 -40.070312 37.625 -39.75 C 37.945312 -39.4375 38.109375 -38.925781 38.109375 -38.21875 Z M 38.109375 -10.5625 "></path></g></g></g><g fill="#ff00ff" fill-opacity="1"><g transform="translate(153.586321, 166.51198)"><g><path d="M 15.875 -2.015625 C 15.875 -1.304688 15.710938 -0.789062 15.390625 -0.46875 C 15.078125 -0.15625 14.566406 0 13.859375 0 L 5.359375 0 C 4.648438 0 4.140625 -0.15625 3.828125 -0.46875 C 3.515625 -0.789062 3.359375 -1.304688 3.359375 -2.015625 L 3.359375 -7.984375 C 3.359375 -9.703125 3.503906 -10.988281 3.796875 -11.84375 C 4.097656 -12.695312 4.65625 -13.703125 5.46875 -14.859375 L 10 -20.953125 L 5.46875 -27.046875 C 4.613281 -28.203125 4.046875 -29.207031 3.765625 -30.0625 C 3.492188 -30.914062 3.359375 -32.203125 3.359375 -33.921875 L 3.359375 -38.21875 C 3.359375 -38.925781 3.515625 -39.4375 3.828125 -39.75 C 4.140625 -40.070312 4.648438 -40.234375 5.359375 -40.234375 L 13.96875 -40.234375 C 14.675781 -40.234375 15.1875 -40.070312 15.5 -39.75 C 15.820312 -39.4375 15.984375 -38.925781 15.984375 -38.21875 L 15.984375 -34.359375 C 15.984375 -33.984375 16 -33.59375 16.03125 -33.1875 C 16.070312 -32.78125 16.222656 -32.390625 16.484375 -32.015625 L 18.9375 -28.5 C 19.125 -28.195312 19.316406 -27.960938 19.515625 -27.796875 C 19.722656 -27.628906 19.976562 -27.546875 20.28125 -27.546875 L 20.953125 -27.546875 C 21.253906 -27.546875 21.492188 -27.628906 21.671875 -27.796875 C 21.859375 -27.960938 22.066406 -28.195312 22.296875 -28.5 L 24.8125 -32.015625 C 25.070312 -32.390625 25.21875 -32.78125 25.25 -33.1875 C 25.289062 -33.59375 25.3125 -33.984375 25.3125 -34.359375 L 25.3125 -38.21875 C 25.3125 -38.925781 25.46875 -39.4375 25.78125 -39.75 C 26.101562 -40.070312 26.617188 -40.234375 27.328125 -40.234375 L 35.8125 -40.234375 C 36.519531 -40.234375 37.03125 -40.070312 37.34375 -39.75 C 37.664062 -39.4375 37.828125 -38.925781 37.828125 -38.21875 L 37.828125 -33.921875 C 37.828125 -32.203125 37.675781 -30.914062 37.375 -30.0625 C 37.082031 -29.207031 36.523438 -28.203125 35.703125 -27.046875 L 31.171875 -20.890625 L 35.703125 -14.859375 C 36.554688 -13.703125 37.125 -12.695312 37.40625 -11.84375 C 37.6875 -10.988281 37.828125 -9.703125 37.828125 -7.984375 L 37.828125 -2.015625 C 37.828125 -1.304688 37.664062 -0.789062 37.34375 -0.46875 C 37.03125 -0.15625 36.519531 0 35.8125 0 L 27.328125 0 C 26.617188 0 26.101562 -0.15625 25.78125 -0.46875 C 25.46875 -0.789062 25.3125 -1.304688 25.3125 -2.015625 L 25.3125 -7.546875 C 25.3125 -7.921875 25.289062 -8.3125 25.25 -8.71875 C 25.21875 -9.125 25.070312 -9.515625 24.8125 -9.890625 L 22.34375 -13.40625 C 22.125 -13.738281 21.921875 -13.976562 21.734375 -14.125 C 21.546875 -14.28125 21.304688 -14.359375 21.015625 -14.359375 L 20.234375 -14.359375 C 19.929688 -14.359375 19.6875 -14.28125 19.5 -14.125 C 19.3125 -13.976562 19.109375 -13.738281 18.890625 -13.40625 L 16.375 -9.890625 C 16.113281 -9.515625 15.960938 -9.125 15.921875 -8.71875 C 15.890625 -8.3125 15.875 -7.921875 15.875 -7.546875 Z M 15.875 -2.015625 "></path></g></g></g><g fill="#00ffff" fill-opacity="1"><g transform="translate(0.108169, 163.796754)"><g><path d="M 34.3125 0 L 5.859375 0 C 5.160156 0 4.648438 -0.15625 4.328125 -0.46875 C 4.015625 -0.789062 3.859375 -1.304688 3.859375 -2.015625 L 3.859375 -38.21875 C 3.859375 -38.925781 4.015625 -39.4375 4.328125 -39.75 C 4.648438 -40.070312 5.160156 -40.234375 5.859375 -40.234375 L 14.53125 -40.234375 C 15.238281 -40.234375 15.75 -40.070312 16.0625 -39.75 C 16.375 -39.4375 16.53125 -38.925781 16.53125 -38.21875 L 16.53125 -10.5625 L 24.1875 -10.5625 L 24.1875 -19.609375 C 24.1875 -20.316406 24.34375 -20.828125 24.65625 -21.140625 C 24.976562 -21.460938 25.492188 -21.625 26.203125 -21.625 L 34.3125 -21.625 C 35.019531 -21.625 35.53125 -21.460938 35.84375 -21.140625 C 36.15625 -20.828125 36.3125 -20.316406 36.3125 -19.609375 L 36.3125 -2.015625 C 36.3125 -1.304688 36.15625 -0.789062 35.84375 -0.46875 C 35.53125 -0.15625 35.019531 0 34.3125 0 Z M 34.3125 0 "></path></g></g></g><g fill="#00ffff" fill-opacity="1"><g transform="translate(38.940241, 163.796754)"><g><path d="M 4.96875 0 C 4.257812 0 3.75 -0.15625 3.4375 -0.46875 C 3.125 -0.789062 2.96875 -1.304688 2.96875 -2.015625 L 2.96875 -8.65625 C 2.96875 -9.363281 3.125 -9.875 3.4375 -10.1875 C 3.75 -10.507812 4.257812 -10.671875 4.96875 -10.671875 L 10.5 -10.671875 L 10.5 -29.453125 L 4.96875 -29.453125 C 4.257812 -29.453125 3.75 -29.609375 3.4375 -29.921875 C 3.125 -30.234375 2.96875 -30.742188 2.96875 -31.453125 L 2.96875 -38.21875 C 2.96875 -38.925781 3.125 -39.4375 3.4375 -39.75 C 3.75 -40.070312 4.257812 -40.234375 4.96875 -40.234375 L 28.78125 -40.234375 C 29.488281 -40.234375 30 -40.070312 30.3125 -39.75 C 30.625 -39.4375 30.78125 -38.925781 30.78125 -38.21875 L 30.78125 -31.453125 C 30.78125 -30.742188 30.625 -30.234375 30.3125 -29.921875 C 30 -29.609375 29.488281 -29.453125 28.78125 -29.453125 L 23.359375 -29.453125 L 23.359375 -10.671875 L 28.78125 -10.671875 C 29.488281 -10.671875 30 -10.507812 30.3125 -10.1875 C 30.625 -9.875 30.78125 -9.363281 30.78125 -8.65625 L 30.78125 -2.015625 C 30.78125 -1.304688 30.625 -0.789062 30.3125 -0.46875 C 30 -0.15625 29.488281 0 28.78125 0 Z M 4.96875 0 "></path></g></g></g><g fill="#00ffff" fill-opacity="1"><g transform="translate(72.743699, 163.796754)"><g><path d="M 14.25 0 L 5.859375 0 C 5.160156 0 4.648438 -0.15625 4.328125 -0.46875 C 4.015625 -0.789062 3.859375 -1.304688 3.859375 -2.015625 L 3.859375 -38.21875 C 3.859375 -38.925781 4.015625 -39.4375 4.328125 -39.75 C 4.648438 -40.070312 5.160156 -40.234375 5.859375 -40.234375 L 11.671875 -40.234375 C 12.378906 -40.234375 12.984375 -40.117188 13.484375 -39.890625 C 13.992188 -39.671875 14.488281 -39.28125 14.96875 -38.71875 L 25.8125 -26.3125 L 25.8125 -38.21875 C 25.8125 -38.925781 25.96875 -39.4375 26.28125 -39.75 C 26.601562 -40.070312 27.117188 -40.234375 27.828125 -40.234375 L 36.203125 -40.234375 C 36.910156 -40.234375 37.421875 -40.070312 37.734375 -39.75 C 38.054688 -39.4375 38.21875 -38.925781 38.21875 -38.21875 L 38.21875 -2.015625 C 38.21875 -1.304688 38.054688 -0.789062 37.734375 -0.46875 C 37.421875 -0.15625 36.910156 0 36.203125 0 L 27.828125 0 C 27.117188 0 26.601562 -0.15625 26.28125 -0.46875 C 25.96875 -0.789062 25.8125 -1.304688 25.8125 -2.015625 L 25.8125 -8.890625 L 16.265625 -20.453125 L 16.265625 -2.015625 C 16.265625 -1.304688 16.101562 -0.789062 15.78125 -0.46875 C 15.46875 -0.15625 14.957031 0 14.25 0 Z M 14.25 0 "></path></g></g></g><g fill="#00ffff" fill-opacity="1"><g transform="translate(114.816428, 163.796754)"><g><path d="M 38.109375 -10.5625 C 38.109375 -8.84375 37.851562 -7.285156 37.34375 -5.890625 C 36.84375 -4.492188 35.953125 -3.300781 34.671875 -2.3125 C 33.390625 -1.332031 31.628906 -0.5625 29.390625 0 C 27.148438 0.5625 24.300781 0.84375 20.84375 0.84375 C 17.375 0.84375 14.519531 0.5625 12.28125 0 C 10.050781 -0.5625 8.289062 -1.332031 7 -2.3125 C 5.71875 -3.300781 4.828125 -4.492188 4.328125 -5.890625 C 3.828125 -7.285156 3.578125 -8.84375 3.578125 -10.5625 L 3.578125 -38.21875 C 3.578125 -38.925781 3.734375 -39.4375 4.046875 -39.75 C 4.367188 -40.070312 4.882812 -40.234375 5.59375 -40.234375 L 14.359375 -40.234375 C 15.066406 -40.234375 15.578125 -40.070312 15.890625 -39.75 C 16.210938 -39.4375 16.375 -38.925781 16.375 -38.21875 L 16.375 -12.734375 C 16.375 -11.992188 16.648438 -11.367188 17.203125 -10.859375 C 17.765625 -10.359375 19.015625 -10.109375 20.953125 -10.109375 C 22.929688 -10.109375 24.195312 -10.359375 24.75 -10.859375 C 25.3125 -11.367188 25.59375 -11.992188 25.59375 -12.734375 L 25.59375 -38.21875 C 25.59375 -38.925781 25.75 -39.4375 26.0625 -39.75 C 26.382812 -40.070312 26.898438 -40.234375 27.609375 -40.234375 L 36.09375 -40.234375 C 36.800781 -40.234375 37.3125 -40.070312 37.625 -39.75 C 37.945312 -39.4375 38.109375 -38.925781 38.109375 -38.21875 Z M 38.109375 -10.5625 "></path></g></g></g><g clip-path="url(#af034941e0)"><g fill="#00ffff" fill-opacity="1"><g transform="translate(156.498051, 163.796754)"><g><path d="M 15.875 -2.015625 C 15.875 -1.304688 15.710938 -0.789062 15.390625 -0.46875 C 15.078125 -0.15625 14.566406 0 13.859375 0 L 5.359375 0 C 4.648438 0 4.140625 -0.15625 3.828125 -0.46875 C 3.515625 -0.789062 3.359375 -1.304688 3.359375 -2.015625 L 3.359375 -7.984375 C 3.359375 -9.703125 3.503906 -10.988281 3.796875 -11.84375 C 4.097656 -12.695312 4.65625 -13.703125 5.46875 -14.859375 L 10 -20.953125 L 5.46875 -27.046875 C 4.613281 -28.203125 4.046875 -29.207031 3.765625 -30.0625 C 3.492188 -30.914062 3.359375 -32.203125 3.359375 -33.921875 L 3.359375 -38.21875 C 3.359375 -38.925781 3.515625 -39.4375 3.828125 -39.75 C 4.140625 -40.070312 4.648438 -40.234375 5.359375 -40.234375 L 13.96875 -40.234375 C 14.675781 -40.234375 15.1875 -40.070312 15.5 -39.75 C 15.820312 -39.4375 15.984375 -38.925781 15.984375 -38.21875 L 15.984375 -34.359375 C 15.984375 -33.984375 16 -33.59375 16.03125 -33.1875 C 16.070312 -32.78125 16.222656 -32.390625 16.484375 -32.015625 L 18.9375 -28.5 C 19.125 -28.195312 19.316406 -27.960938 19.515625 -27.796875 C 19.722656 -27.628906 19.976562 -27.546875 20.28125 -27.546875 L 20.953125 -27.546875 C 21.253906 -27.546875 21.492188 -27.628906 21.671875 -27.796875 C 21.859375 -27.960938 22.066406 -28.195312 22.296875 -28.5 L 24.8125 -32.015625 C 25.070312 -32.390625 25.21875 -32.78125 25.25 -33.1875 C 25.289062 -33.59375 25.3125 -33.984375 25.3125 -34.359375 L 25.3125 -38.21875 C 25.3125 -38.925781 25.46875 -39.4375 25.78125 -39.75 C 26.101562 -40.070312 26.617188 -40.234375 27.328125 -40.234375 L 35.8125 -40.234375 C 36.519531 -40.234375 37.03125 -40.070312 37.34375 -39.75 C 37.664062 -39.4375 37.828125 -38.925781 37.828125 -38.21875 L 37.828125 -33.921875 C 37.828125 -32.203125 37.675781 -30.914062 37.375 -30.0625 C 37.082031 -29.207031 36.523438 -28.203125 35.703125 -27.046875 L 31.171875 -20.890625 L 35.703125 -14.859375 C 36.554688 -13.703125 37.125 -12.695312 37.40625 -11.84375 C 37.6875 -10.988281 37.828125 -9.703125 37.828125 -7.984375 L 37.828125 -2.015625 C 37.828125 -1.304688 37.664062 -0.789062 37.34375 -0.46875 C 37.03125 -0.15625 36.519531 0 35.8125 0 L 27.328125 0 C 26.617188 0 26.101562 -0.15625 25.78125 -0.46875 C 25.46875 -0.789062 25.3125 -1.304688 25.3125 -2.015625 L 25.3125 -7.546875 C 25.3125 -7.921875 25.289062 -8.3125 25.25 -8.71875 C 25.21875 -9.125 25.070312 -9.515625 24.8125 -9.890625 L 22.34375 -13.40625 C 22.125 -13.738281 21.921875 -13.976562 21.734375 -14.125 C 21.546875 -14.28125 21.304688 -14.359375 21.015625 -14.359375 L 20.234375 -14.359375 C 19.929688 -14.359375 19.6875 -14.28125 19.5 -14.125 C 19.3125 -13.976562 19.109375 -13.738281 18.890625 -13.40625 L 16.375 -9.890625 C 16.113281 -9.515625 15.960938 -9.125 15.921875 -8.71875 C 15.890625 -8.3125 15.875 -7.921875 15.875 -7.546875 Z M 15.875 -2.015625 "></path></g></g></g></g><g fill="#14b5a2" fill-opacity="1"><g transform="translate(-1.347696, 165.154367)"><g><path d="M 34.3125 0 L 5.859375 0 C 5.160156 0 4.648438 -0.15625 4.328125 -0.46875 C 4.015625 -0.789062 3.859375 -1.304688 3.859375 -2.015625 L 3.859375 -38.21875 C 3.859375 -38.925781 4.015625 -39.4375 4.328125 -39.75 C 4.648438 -40.070312 5.160156 -40.234375 5.859375 -40.234375 L 14.53125 -40.234375 C 15.238281 -40.234375 15.75 -40.070312 16.0625 -39.75 C 16.375 -39.4375 16.53125 -38.925781 16.53125 -38.21875 L 16.53125 -10.5625 L 24.1875 -10.5625 L 24.1875 -19.609375 C 24.1875 -20.316406 24.34375 -20.828125 24.65625 -21.140625 C 24.976562 -21.460938 25.492188 -21.625 26.203125 -21.625 L 34.3125 -21.625 C 35.019531 -21.625 35.53125 -21.460938 35.84375 -21.140625 C 36.15625 -20.828125 36.3125 -20.316406 36.3125 -19.609375 L 36.3125 -2.015625 C 36.3125 -1.304688 36.15625 -0.789062 35.84375 -0.46875 C 35.53125 -0.15625 35.019531 0 34.3125 0 Z M 34.3125 0 "></path></g></g></g><g fill="#14b5a2" fill-opacity="1"><g transform="translate(37.484376, 165.154367)"><g><path d="M 4.96875 0 C 4.257812 0 3.75 -0.15625 3.4375 -0.46875 C 3.125 -0.789062 2.96875 -1.304688 2.96875 -2.015625 L 2.96875 -8.65625 C 2.96875 -9.363281 3.125 -9.875 3.4375 -10.1875 C 3.75 -10.507812 4.257812 -10.671875 4.96875 -10.671875 L 10.5 -10.671875 L 10.5 -29.453125 L 4.96875 -29.453125 C 4.257812 -29.453125 3.75 -29.609375 3.4375 -29.921875 C 3.125 -30.234375 2.96875 -30.742188 2.96875 -31.453125 L 2.96875 -38.21875 C 2.96875 -38.925781 3.125 -39.4375 3.4375 -39.75 C 3.75 -40.070312 4.257812 -40.234375 4.96875 -40.234375 L 28.78125 -40.234375 C 29.488281 -40.234375 30 -40.070312 30.3125 -39.75 C 30.625 -39.4375 30.78125 -38.925781 30.78125 -38.21875 L 30.78125 -31.453125 C 30.78125 -30.742188 30.625 -30.234375 30.3125 -29.921875 C 30 -29.609375 29.488281 -29.453125 28.78125 -29.453125 L 23.359375 -29.453125 L 23.359375 -10.671875 L 28.78125 -10.671875 C 29.488281 -10.671875 30 -10.507812 30.3125 -10.1875 C 30.625 -9.875 30.78125 -9.363281 30.78125 -8.65625 L 30.78125 -2.015625 C 30.78125 -1.304688 30.625 -0.789062 30.3125 -0.46875 C 30 -0.15625 29.488281 0 28.78125 0 Z M 4.96875 0 "></path></g></g></g><g fill="#14b5a2" fill-opacity="1"><g transform="translate(71.287834, 165.154367)"><g><path d="M 14.25 0 L 5.859375 0 C 5.160156 0 4.648438 -0.15625 4.328125 -0.46875 C 4.015625 -0.789062 3.859375 -1.304688 3.859375 -2.015625 L 3.859375 -38.21875 C 3.859375 -38.925781 4.015625 -39.4375 4.328125 -39.75 C 4.648438 -40.070312 5.160156 -40.234375 5.859375 -40.234375 L 11.671875 -40.234375 C 12.378906 -40.234375 12.984375 -40.117188 13.484375 -39.890625 C 13.992188 -39.671875 14.488281 -39.28125 14.96875 -38.71875 L 25.8125 -26.3125 L 25.8125 -38.21875 C 25.8125 -38.925781 25.96875 -39.4375 26.28125 -39.75 C 26.601562 -40.070312 27.117188 -40.234375 27.828125 -40.234375 L 36.203125 -40.234375 C 36.910156 -40.234375 37.421875 -40.070312 37.734375 -39.75 C 38.054688 -39.4375 38.21875 -38.925781 38.21875 -38.21875 L 38.21875 -2.015625 C 38.21875 -1.304688 38.054688 -0.789062 37.734375 -0.46875 C 37.421875 -0.15625 36.910156 0 36.203125 0 L 27.828125 0 C 27.117188 0 26.601562 -0.15625 26.28125 -0.46875 C 25.96875 -0.789062 25.8125 -1.304688 25.8125 -2.015625 L 25.8125 -8.890625 L 16.265625 -20.453125 L 16.265625 -2.015625 C 16.265625 -1.304688 16.101562 -0.789062 15.78125 -0.46875 C 15.46875 -0.15625 14.957031 0 14.25 0 Z M 14.25 0 "></path></g></g></g><g fill="#14b5a2" fill-opacity="1"><g transform="translate(113.360563, 165.154367)"><g><path d="M 38.109375 -10.5625 C 38.109375 -8.84375 37.851562 -7.285156 37.34375 -5.890625 C 36.84375 -4.492188 35.953125 -3.300781 34.671875 -2.3125 C 33.390625 -1.332031 31.628906 -0.5625 29.390625 0 C 27.148438 0.5625 24.300781 0.84375 20.84375 0.84375 C 17.375 0.84375 14.519531 0.5625 12.28125 0 C 10.050781 -0.5625 8.289062 -1.332031 7 -2.3125 C 5.71875 -3.300781 4.828125 -4.492188 4.328125 -5.890625 C 3.828125 -7.285156 3.578125 -8.84375 3.578125 -10.5625 L 3.578125 -38.21875 C 3.578125 -38.925781 3.734375 -39.4375 4.046875 -39.75 C 4.367188 -40.070312 4.882812 -40.234375 5.59375 -40.234375 L 14.359375 -40.234375 C 15.066406 -40.234375 15.578125 -40.070312 15.890625 -39.75 C 16.210938 -39.4375 16.375 -38.925781 16.375 -38.21875 L 16.375 -12.734375 C 16.375 -11.992188 16.648438 -11.367188 17.203125 -10.859375 C 17.765625 -10.359375 19.015625 -10.109375 20.953125 -10.109375 C 22.929688 -10.109375 24.195312 -10.359375 24.75 -10.859375 C 25.3125 -11.367188 25.59375 -11.992188 25.59375 -12.734375 L 25.59375 -38.21875 C 25.59375 -38.925781 25.75 -39.4375 26.0625 -39.75 C 26.382812 -40.070312 26.898438 -40.234375 27.609375 -40.234375 L 36.09375 -40.234375 C 36.800781 -40.234375 37.3125 -40.070312 37.625 -39.75 C 37.945312 -39.4375 38.109375 -38.925781 38.109375 -38.21875 Z M 38.109375 -10.5625 "></path></g></g></g><g fill="#14b5a2" fill-opacity="1"><g transform="translate(155.042186, 165.154367)"><g><path d="M 15.875 -2.015625 C 15.875 -1.304688 15.710938 -0.789062 15.390625 -0.46875 C 15.078125 -0.15625 14.566406 0 13.859375 0 L 5.359375 0 C 4.648438 0 4.140625 -0.15625 3.828125 -0.46875 C 3.515625 -0.789062 3.359375 -1.304688 3.359375 -2.015625 L 3.359375 -7.984375 C 3.359375 -9.703125 3.503906 -10.988281 3.796875 -11.84375 C 4.097656 -12.695312 4.65625 -13.703125 5.46875 -14.859375 L 10 -20.953125 L 5.46875 -27.046875 C 4.613281 -28.203125 4.046875 -29.207031 3.765625 -30.0625 C 3.492188 -30.914062 3.359375 -32.203125 3.359375 -33.921875 L 3.359375 -38.21875 C 3.359375 -38.925781 3.515625 -39.4375 3.828125 -39.75 C 4.140625 -40.070312 4.648438 -40.234375 5.359375 -40.234375 L 13.96875 -40.234375 C 14.675781 -40.234375 15.1875 -40.070312 15.5 -39.75 C 15.820312 -39.4375 15.984375 -38.925781 15.984375 -38.21875 L 15.984375 -34.359375 C 15.984375 -33.984375 16 -33.59375 16.03125 -33.1875 C 16.070312 -32.78125 16.222656 -32.390625 16.484375 -32.015625 L 18.9375 -28.5 C 19.125 -28.195312 19.316406 -27.960938 19.515625 -27.796875 C 19.722656 -27.628906 19.976562 -27.546875 20.28125 -27.546875 L 20.953125 -27.546875 C 21.253906 -27.546875 21.492188 -27.628906 21.671875 -27.796875 C 21.859375 -27.960938 22.066406 -28.195312 22.296875 -28.5 L 24.8125 -32.015625 C 25.070312 -32.390625 25.21875 -32.78125 25.25 -33.1875 C 25.289062 -33.59375 25.3125 -33.984375 25.3125 -34.359375 L 25.3125 -38.21875 C 25.3125 -38.925781 25.46875 -39.4375 25.78125 -39.75 C 26.101562 -40.070312 26.617188 -40.234375 27.328125 -40.234375 L 35.8125 -40.234375 C 36.519531 -40.234375 37.03125 -40.070312 37.34375 -39.75 C 37.664062 -39.4375 37.828125 -38.925781 37.828125 -38.21875 L 37.828125 -33.921875 C 37.828125 -32.203125 37.675781 -30.914062 37.375 -30.0625 C 37.082031 -29.207031 36.523438 -28.203125 35.703125 -27.046875 L 31.171875 -20.890625 L 35.703125 -14.859375 C 36.554688 -13.703125 37.125 -12.695312 37.40625 -11.84375 C 37.6875 -10.988281 37.828125 -9.703125 37.828125 -7.984375 L 37.828125 -2.015625 C 37.828125 -1.304688 37.664062 -0.789062 37.34375 -0.46875 C 37.03125 -0.15625 36.519531 0 35.8125 0 L 27.328125 0 C 26.617188 0 26.101562 -0.15625 25.78125 -0.46875 C 25.46875 -0.789062 25.3125 -1.304688 25.3125 -2.015625 L 25.3125 -7.546875 C 25.3125 -7.921875 25.289062 -8.3125 25.25 -8.71875 C 25.21875 -9.125 25.070312 -9.515625 24.8125 -9.890625 L 22.34375 -13.40625 C 22.125 -13.738281 21.921875 -13.976562 21.734375 -14.125 C 21.546875 -14.28125 21.304688 -14.359375 21.015625 -14.359375 L 20.234375 -14.359375 C 19.929688 -14.359375 19.6875 -14.28125 19.5 -14.125 C 19.3125 -13.976562 19.109375 -13.738281 18.890625 -13.40625 L 16.375 -9.890625 C 16.113281 -9.515625 15.960938 -9.125 15.921875 -8.71875 C 15.890625 -8.3125 15.875 -7.921875 15.875 -7.546875 Z M 15.875 -2.015625 "></path></g></g></g><g fill="#ff00ff" fill-opacity="1"><g transform="translate(53.027569, 190.37503)"><g><path d="M 8.171875 0 L 3.296875 0 C 2.898438 0 2.613281 -0.0859375 2.4375 -0.265625 C 2.257812 -0.441406 2.171875 -0.726562 2.171875 -1.125 L 2.171875 -21.5 C 2.171875 -21.894531 2.257812 -22.179688 2.4375 -22.359375 C 2.613281 -22.535156 2.898438 -22.625 3.296875 -22.625 L 12.921875 -22.625 C 15.765625 -22.625 17.707031 -22.054688 18.75 -20.921875 C 19.800781 -19.796875 20.328125 -18.320312 20.328125 -16.5 L 20.328125 -12.46875 C 20.328125 -10.644531 19.800781 -9.164062 18.75 -8.03125 C 17.707031 -6.90625 15.765625 -6.34375 12.921875 -6.34375 L 9.296875 -6.34375 L 9.296875 -1.125 C 9.296875 -0.726562 9.207031 -0.441406 9.03125 -0.265625 C 8.851562 -0.0859375 8.566406 0 8.171875 0 Z M 9.234375 -16.75 L 9.234375 -12 L 12.0625 -12 C 12.675781 -12 13.078125 -12.15625 13.265625 -12.46875 C 13.453125 -12.789062 13.546875 -13.148438 13.546875 -13.546875 L 13.546875 -15.203125 C 13.546875 -15.609375 13.453125 -15.96875 13.265625 -16.28125 C 13.078125 -16.59375 12.675781 -16.75 12.0625 -16.75 Z M 9.234375 -16.75 "></path></g></g></g><g fill="#ff00ff" fill-opacity="1"><g transform="translate(74.462053, 190.37503)"><g><path d="M 10.375 -16.03125 L 8.890625 -11.25 L 13.828125 -11.25 L 12.34375 -16.03125 C 12.257812 -16.21875 12.171875 -16.351562 12.078125 -16.4375 C 11.984375 -16.519531 11.875 -16.5625 11.75 -16.5625 L 10.96875 -16.5625 C 10.84375 -16.5625 10.734375 -16.519531 10.640625 -16.4375 C 10.546875 -16.351562 10.457031 -16.21875 10.375 -16.03125 Z M 8.578125 -1.125 C 8.578125 -0.726562 8.488281 -0.441406 8.3125 -0.265625 C 8.132812 -0.0859375 7.847656 0 7.453125 0 L 2.828125 0 C 2.429688 0 2.144531 -0.0859375 1.96875 -0.265625 C 1.789062 -0.441406 1.703125 -0.726562 1.703125 -1.125 L 1.703125 -9.421875 C 1.703125 -10.054688 1.800781 -10.78125 2 -11.59375 C 2.195312 -12.40625 2.503906 -13.359375 2.921875 -14.453125 L 5.65625 -21.59375 C 5.78125 -21.945312 5.972656 -22.207031 6.234375 -22.375 C 6.492188 -22.539062 6.835938 -22.625 7.265625 -22.625 L 15.71875 -22.625 C 16.113281 -22.625 16.441406 -22.539062 16.703125 -22.375 C 16.960938 -22.207031 17.15625 -21.945312 17.28125 -21.59375 L 20.015625 -14.453125 C 20.429688 -13.359375 20.738281 -12.40625 20.9375 -11.59375 C 21.132812 -10.78125 21.234375 -10.054688 21.234375 -9.421875 L 21.234375 -1.125 C 21.234375 -0.726562 21.144531 -0.441406 20.96875 -0.265625 C 20.789062 -0.0859375 20.503906 0 20.109375 0 L 15.359375 0 C 14.941406 0 14.632812 -0.0859375 14.4375 -0.265625 C 14.238281 -0.441406 14.140625 -0.726562 14.140625 -1.125 L 14.140625 -5.53125 L 8.578125 -5.53125 Z M 8.578125 -1.125 "></path></g></g></g><g fill="#ff00ff" fill-opacity="1"><g transform="translate(97.405121, 190.37503)"><g><path d="M 19.453125 0 L 9.546875 0 C 6.929688 0 4.988281 -0.519531 3.71875 -1.5625 C 2.457031 -2.613281 1.828125 -4.226562 1.828125 -6.40625 L 1.828125 -16.21875 C 1.828125 -18.394531 2.457031 -20.003906 3.71875 -21.046875 C 4.988281 -22.097656 6.929688 -22.625 9.546875 -22.625 L 17.40625 -22.625 C 17.800781 -22.625 18.085938 -22.535156 18.265625 -22.359375 C 18.441406 -22.179688 18.53125 -21.894531 18.53125 -21.5 L 18.53125 -17.6875 C 18.53125 -17.289062 18.441406 -17.003906 18.265625 -16.828125 C 18.085938 -16.648438 17.800781 -16.5625 17.40625 -16.5625 L 10.875 -16.5625 C 10.21875 -16.5625 9.734375 -16.429688 9.421875 -16.171875 C 9.109375 -15.910156 8.953125 -15.515625 8.953125 -14.984375 L 8.953125 -7.484375 C 8.953125 -6.953125 9.070312 -6.5625 9.3125 -6.3125 C 9.550781 -6.0625 9.914062 -5.9375 10.40625 -5.9375 L 13.453125 -5.9375 L 13.453125 -10.84375 C 13.453125 -11.238281 13.539062 -11.523438 13.71875 -11.703125 C 13.894531 -11.878906 14.179688 -11.96875 14.578125 -11.96875 L 19.453125 -11.96875 C 19.847656 -11.96875 20.132812 -11.878906 20.3125 -11.703125 C 20.488281 -11.523438 20.578125 -11.238281 20.578125 -10.84375 L 20.578125 -1.125 C 20.578125 -0.726562 20.488281 -0.441406 20.3125 -0.265625 C 20.132812 -0.0859375 19.847656 0 19.453125 0 Z M 19.453125 0 "></path></g></g></g><g fill="#ff00ff" fill-opacity="1"><g transform="translate(119.656756, 190.37503)"><g><path d="M 17.875 0 L 3.296875 0 C 2.898438 0 2.613281 -0.0859375 2.4375 -0.265625 C 2.257812 -0.441406 2.171875 -0.726562 2.171875 -1.125 L 2.171875 -21.5 C 2.171875 -21.894531 2.257812 -22.179688 2.4375 -22.359375 C 2.613281 -22.535156 2.898438 -22.625 3.296875 -22.625 L 17.875 -22.625 C 18.269531 -22.625 18.554688 -22.535156 18.734375 -22.359375 C 18.921875 -22.179688 19.015625 -21.894531 19.015625 -21.5 L 19.015625 -17.8125 C 19.015625 -17.414062 18.921875 -17.128906 18.734375 -16.953125 C 18.554688 -16.773438 18.269531 -16.6875 17.875 -16.6875 L 9.203125 -16.6875 L 9.203125 -14.265625 L 15.328125 -14.265625 C 15.734375 -14.265625 16.023438 -14.175781 16.203125 -14 C 16.378906 -13.820312 16.46875 -13.535156 16.46875 -13.140625 L 16.46875 -9.765625 C 16.46875 -9.367188 16.378906 -9.082031 16.203125 -8.90625 C 16.023438 -8.726562 15.734375 -8.640625 15.328125 -8.640625 L 9.203125 -8.640625 L 9.203125 -5.9375 L 17.875 -5.9375 C 18.269531 -5.9375 18.554688 -5.847656 18.734375 -5.671875 C 18.921875 -5.492188 19.015625 -5.207031 19.015625 -4.8125 L 19.015625 -1.125 C 19.015625 -0.726562 18.921875 -0.441406 18.734375 -0.265625 C 18.554688 -0.0859375 18.269531 0 17.875 0 Z M 17.875 0 "></path></g></g></g><g fill="#00ffff" fill-opacity="1"><g transform="translate(54.665311, 188.847821)"><g><path d="M 8.171875 0 L 3.296875 0 C 2.898438 0 2.613281 -0.0859375 2.4375 -0.265625 C 2.257812 -0.441406 2.171875 -0.726562 2.171875 -1.125 L 2.171875 -21.5 C 2.171875 -21.894531 2.257812 -22.179688 2.4375 -22.359375 C 2.613281 -22.535156 2.898438 -22.625 3.296875 -22.625 L 12.921875 -22.625 C 15.765625 -22.625 17.707031 -22.054688 18.75 -20.921875 C 19.800781 -19.796875 20.328125 -18.320312 20.328125 -16.5 L 20.328125 -12.46875 C 20.328125 -10.644531 19.800781 -9.164062 18.75 -8.03125 C 17.707031 -6.90625 15.765625 -6.34375 12.921875 -6.34375 L 9.296875 -6.34375 L 9.296875 -1.125 C 9.296875 -0.726562 9.207031 -0.441406 9.03125 -0.265625 C 8.851562 -0.0859375 8.566406 0 8.171875 0 Z M 9.234375 -16.75 L 9.234375 -12 L 12.0625 -12 C 12.675781 -12 13.078125 -12.15625 13.265625 -12.46875 C 13.453125 -12.789062 13.546875 -13.148438 13.546875 -13.546875 L 13.546875 -15.203125 C 13.546875 -15.609375 13.453125 -15.96875 13.265625 -16.28125 C 13.078125 -16.59375 12.675781 -16.75 12.0625 -16.75 Z M 9.234375 -16.75 "></path></g></g></g><g fill="#00ffff" fill-opacity="1"><g transform="translate(76.099795, 188.847821)"><g><path d="M 10.375 -16.03125 L 8.890625 -11.25 L 13.828125 -11.25 L 12.34375 -16.03125 C 12.257812 -16.21875 12.171875 -16.351562 12.078125 -16.4375 C 11.984375 -16.519531 11.875 -16.5625 11.75 -16.5625 L 10.96875 -16.5625 C 10.84375 -16.5625 10.734375 -16.519531 10.640625 -16.4375 C 10.546875 -16.351562 10.457031 -16.21875 10.375 -16.03125 Z M 8.578125 -1.125 C 8.578125 -0.726562 8.488281 -0.441406 8.3125 -0.265625 C 8.132812 -0.0859375 7.847656 0 7.453125 0 L 2.828125 0 C 2.429688 0 2.144531 -0.0859375 1.96875 -0.265625 C 1.789062 -0.441406 1.703125 -0.726562 1.703125 -1.125 L 1.703125 -9.421875 C 1.703125 -10.054688 1.800781 -10.78125 2 -11.59375 C 2.195312 -12.40625 2.503906 -13.359375 2.921875 -14.453125 L 5.65625 -21.59375 C 5.78125 -21.945312 5.972656 -22.207031 6.234375 -22.375 C 6.492188 -22.539062 6.835938 -22.625 7.265625 -22.625 L 15.71875 -22.625 C 16.113281 -22.625 16.441406 -22.539062 16.703125 -22.375 C 16.960938 -22.207031 17.15625 -21.945312 17.28125 -21.59375 L 20.015625 -14.453125 C 20.429688 -13.359375 20.738281 -12.40625 20.9375 -11.59375 C 21.132812 -10.78125 21.234375 -10.054688 21.234375 -9.421875 L 21.234375 -1.125 C 21.234375 -0.726562 21.144531 -0.441406 20.96875 -0.265625 C 20.789062 -0.0859375 20.503906 0 20.109375 0 L 15.359375 0 C 14.941406 0 14.632812 -0.0859375 14.4375 -0.265625 C 14.238281 -0.441406 14.140625 -0.726562 14.140625 -1.125 L 14.140625 -5.53125 L 8.578125 -5.53125 Z M 8.578125 -1.125 "></path></g></g></g><g fill="#00ffff" fill-opacity="1"><g transform="translate(99.042863, 188.847821)"><g><path d="M 19.453125 0 L 9.546875 0 C 6.929688 0 4.988281 -0.519531 3.71875 -1.5625 C 2.457031 -2.613281 1.828125 -4.226562 1.828125 -6.40625 L 1.828125 -16.21875 C 1.828125 -18.394531 2.457031 -20.003906 3.71875 -21.046875 C 4.988281 -22.097656 6.929688 -22.625 9.546875 -22.625 L 17.40625 -22.625 C 17.800781 -22.625 18.085938 -22.535156 18.265625 -22.359375 C 18.441406 -22.179688 18.53125 -21.894531 18.53125 -21.5 L 18.53125 -17.6875 C 18.53125 -17.289062 18.441406 -17.003906 18.265625 -16.828125 C 18.085938 -16.648438 17.800781 -16.5625 17.40625 -16.5625 L 10.875 -16.5625 C 10.21875 -16.5625 9.734375 -16.429688 9.421875 -16.171875 C 9.109375 -15.910156 8.953125 -15.515625 8.953125 -14.984375 L 8.953125 -7.484375 C 8.953125 -6.953125 9.070312 -6.5625 9.3125 -6.3125 C 9.550781 -6.0625 9.914062 -5.9375 10.40625 -5.9375 L 13.453125 -5.9375 L 13.453125 -10.84375 C 13.453125 -11.238281 13.539062 -11.523438 13.71875 -11.703125 C 13.894531 -11.878906 14.179688 -11.96875 14.578125 -11.96875 L 19.453125 -11.96875 C 19.847656 -11.96875 20.132812 -11.878906 20.3125 -11.703125 C 20.488281 -11.523438 20.578125 -11.238281 20.578125 -10.84375 L 20.578125 -1.125 C 20.578125 -0.726562 20.488281 -0.441406 20.3125 -0.265625 C 20.132812 -0.0859375 19.847656 0 19.453125 0 Z M 19.453125 0 "></path></g></g></g><g fill="#00ffff" fill-opacity="1"><g transform="translate(121.294498, 188.847821)"><g><path d="M 17.875 0 L 3.296875 0 C 2.898438 0 2.613281 -0.0859375 2.4375 -0.265625 C 2.257812 -0.441406 2.171875 -0.726562 2.171875 -1.125 L 2.171875 -21.5 C 2.171875 -21.894531 2.257812 -22.179688 2.4375 -22.359375 C 2.613281 -22.535156 2.898438 -22.625 3.296875 -22.625 L 17.875 -22.625 C 18.269531 -22.625 18.554688 -22.535156 18.734375 -22.359375 C 18.921875 -22.179688 19.015625 -21.894531 19.015625 -21.5 L 19.015625 -17.8125 C 19.015625 -17.414062 18.921875 -17.128906 18.734375 -16.953125 C 18.554688 -16.773438 18.269531 -16.6875 17.875 -16.6875 L 9.203125 -16.6875 L 9.203125 -14.265625 L 15.328125 -14.265625 C 15.734375 -14.265625 16.023438 -14.175781 16.203125 -14 C 16.378906 -13.820312 16.46875 -13.535156 16.46875 -13.140625 L 16.46875 -9.765625 C 16.46875 -9.367188 16.378906 -9.082031 16.203125 -8.90625 C 16.023438 -8.726562 15.734375 -8.640625 15.328125 -8.640625 L 9.203125 -8.640625 L 9.203125 -5.9375 L 17.875 -5.9375 C 18.269531 -5.9375 18.554688 -5.847656 18.734375 -5.671875 C 18.921875 -5.492188 19.015625 -5.207031 19.015625 -4.8125 L 19.015625 -1.125 C 19.015625 -0.726562 18.921875 -0.441406 18.734375 -0.265625 C 18.554688 -0.0859375 18.269531 0 17.875 0 Z M 17.875 0 "></path></g></g></g><g fill="#14b5a2" fill-opacity="1"><g transform="translate(53.84644, 189.611426)"><g><path d="M 8.171875 0 L 3.296875 0 C 2.898438 0 2.613281 -0.0859375 2.4375 -0.265625 C 2.257812 -0.441406 2.171875 -0.726562 2.171875 -1.125 L 2.171875 -21.5 C 2.171875 -21.894531 2.257812 -22.179688 2.4375 -22.359375 C 2.613281 -22.535156 2.898438 -22.625 3.296875 -22.625 L 12.921875 -22.625 C 15.765625 -22.625 17.707031 -22.054688 18.75 -20.921875 C 19.800781 -19.796875 20.328125 -18.320312 20.328125 -16.5 L 20.328125 -12.46875 C 20.328125 -10.644531 19.800781 -9.164062 18.75 -8.03125 C 17.707031 -6.90625 15.765625 -6.34375 12.921875 -6.34375 L 9.296875 -6.34375 L 9.296875 -1.125 C 9.296875 -0.726562 9.207031 -0.441406 9.03125 -0.265625 C 8.851562 -0.0859375 8.566406 0 8.171875 0 Z M 9.234375 -16.75 L 9.234375 -12 L 12.0625 -12 C 12.675781 -12 13.078125 -12.15625 13.265625 -12.46875 C 13.453125 -12.789062 13.546875 -13.148438 13.546875 -13.546875 L 13.546875 -15.203125 C 13.546875 -15.609375 13.453125 -15.96875 13.265625 -16.28125 C 13.078125 -16.59375 12.675781 -16.75 12.0625 -16.75 Z M 9.234375 -16.75 "></path></g></g></g><g fill="#14b5a2" fill-opacity="1"><g transform="translate(75.280924, 189.611426)"><g><path d="M 10.375 -16.03125 L 8.890625 -11.25 L 13.828125 -11.25 L 12.34375 -16.03125 C 12.257812 -16.21875 12.171875 -16.351562 12.078125 -16.4375 C 11.984375 -16.519531 11.875 -16.5625 11.75 -16.5625 L 10.96875 -16.5625 C 10.84375 -16.5625 10.734375 -16.519531 10.640625 -16.4375 C 10.546875 -16.351562 10.457031 -16.21875 10.375 -16.03125 Z M 8.578125 -1.125 C 8.578125 -0.726562 8.488281 -0.441406 8.3125 -0.265625 C 8.132812 -0.0859375 7.847656 0 7.453125 0 L 2.828125 0 C 2.429688 0 2.144531 -0.0859375 1.96875 -0.265625 C 1.789062 -0.441406 1.703125 -0.726562 1.703125 -1.125 L 1.703125 -9.421875 C 1.703125 -10.054688 1.800781 -10.78125 2 -11.59375 C 2.195312 -12.40625 2.503906 -13.359375 2.921875 -14.453125 L 5.65625 -21.59375 C 5.78125 -21.945312 5.972656 -22.207031 6.234375 -22.375 C 6.492188 -22.539062 6.835938 -22.625 7.265625 -22.625 L 15.71875 -22.625 C 16.113281 -22.625 16.441406 -22.539062 16.703125 -22.375 C 16.960938 -22.207031 17.15625 -21.945312 17.28125 -21.59375 L 20.015625 -14.453125 C 20.429688 -13.359375 20.738281 -12.40625 20.9375 -11.59375 C 21.132812 -10.78125 21.234375 -10.054688 21.234375 -9.421875 L 21.234375 -1.125 C 21.234375 -0.726562 21.144531 -0.441406 20.96875 -0.265625 C 20.789062 -0.0859375 20.503906 0 20.109375 0 L 15.359375 0 C 14.941406 0 14.632812 -0.0859375 14.4375 -0.265625 C 14.238281 -0.441406 14.140625 -0.726562 14.140625 -1.125 L 14.140625 -5.53125 L 8.578125 -5.53125 Z M 8.578125 -1.125 "></path></g></g></g><g fill="#14b5a2" fill-opacity="1"><g transform="translate(98.223992, 189.611426)"><g><path d="M 19.453125 0 L 9.546875 0 C 6.929688 0 4.988281 -0.519531 3.71875 -1.5625 C 2.457031 -2.613281 1.828125 -4.226562 1.828125 -6.40625 L 1.828125 -16.21875 C 1.828125 -18.394531 2.457031 -20.003906 3.71875 -21.046875 C 4.988281 -22.097656 6.929688 -22.625 9.546875 -22.625 L 17.40625 -22.625 C 17.800781 -22.625 18.085938 -22.535156 18.265625 -22.359375 C 18.441406 -22.179688 18.53125 -21.894531 18.53125 -21.5 L 18.53125 -17.6875 C 18.53125 -17.289062 18.441406 -17.003906 18.265625 -16.828125 C 18.085938 -16.648438 17.800781 -16.5625 17.40625 -16.5625 L 10.875 -16.5625 C 10.21875 -16.5625 9.734375 -16.429688 9.421875 -16.171875 C 9.109375 -15.910156 8.953125 -15.515625 8.953125 -14.984375 L 8.953125 -7.484375 C 8.953125 -6.953125 9.070312 -6.5625 9.3125 -6.3125 C 9.550781 -6.0625 9.914062 -5.9375 10.40625 -5.9375 L 13.453125 -5.9375 L 13.453125 -10.84375 C 13.453125 -11.238281 13.539062 -11.523438 13.71875 -11.703125 C 13.894531 -11.878906 14.179688 -11.96875 14.578125 -11.96875 L 19.453125 -11.96875 C 19.847656 -11.96875 20.132812 -11.878906 20.3125 -11.703125 C 20.488281 -11.523438 20.578125 -11.238281 20.578125 -10.84375 L 20.578125 -1.125 C 20.578125 -0.726562 20.488281 -0.441406 20.3125 -0.265625 C 20.132812 -0.0859375 19.847656 0 19.453125 0 Z M 19.453125 0 "></path></g></g></g><g fill="#14b5a2" fill-opacity="1"><g transform="translate(120.475627, 189.611426)"><g><path d="M 17.875 0 L 3.296875 0 C 2.898438 0 2.613281 -0.0859375 2.4375 -0.265625 C 2.257812 -0.441406 2.171875 -0.726562 2.171875 -1.125 L 2.171875 -21.5 C 2.171875 -21.894531 2.257812 -22.179688 2.4375 -22.359375 C 2.613281 -22.535156 2.898438 -22.625 3.296875 -22.625 L 17.875 -22.625 C 18.269531 -22.625 18.554688 -22.535156 18.734375 -22.359375 C 18.921875 -22.179688 19.015625 -21.894531 19.015625 -21.5 L 19.015625 -17.8125 C 19.015625 -17.414062 18.921875 -17.128906 18.734375 -16.953125 C 18.554688 -16.773438 18.269531 -16.6875 17.875 -16.6875 L 9.203125 -16.6875 L 9.203125 -14.265625 L 15.328125 -14.265625 C 15.734375 -14.265625 16.023438 -14.175781 16.203125 -14 C 16.378906 -13.820312 16.46875 -13.535156 16.46875 -13.140625 L 16.46875 -9.765625 C 16.46875 -9.367188 16.378906 -9.082031 16.203125 -8.90625 C 16.023438 -8.726562 15.734375 -8.640625 15.328125 -8.640625 L 9.203125 -8.640625 L 9.203125 -5.9375 L 17.875 -5.9375 C 18.269531 -5.9375 18.554688 -5.847656 18.734375 -5.671875 C 18.921875 -5.492188 19.015625 -5.207031 19.015625 -4.8125 L 19.015625 -1.125 C 19.015625 -0.726562 18.921875 -0.441406 18.734375 -0.265625 C 18.554688 -0.0859375 18.269531 0 17.875 0 Z M 17.875 0 "></path></g></g></g></svg><style>@media (prefers-color-scheme: light) { :root { filter: none; } }
@media (prefers-color-scheme: dark) { :root { filter: none; } }
</style></svg>