<?xml version="1.0" standalone="no"?>
<!DOCTYPE svg PUBLIC "-//W3C//DTD SVG 20010904//EN"
 "http://www.w3.org/TR/2001/REC-SVG-20010904/DTD/svg10.dtd">
<svg version="1.0" xmlns="http://www.w3.org/2000/svg"
 width="260.000000pt" height="260.000000pt" viewBox="0 0 260.000000 260.000000"
 preserveAspectRatio="xMidYMid meet">
<metadata>
Created by potrace 1.14, written by Peter Selinger 2001-2017
</metadata>
<g transform="translate(0.000000,260.000000) scale(0.100000,-0.100000)"
fill="#000000" stroke="none">
<path d="M1841 2588 c-122 -21 -176 -124 -191 -363 -6 -95 -7 -100 -8 -38 -1
39 -7 75 -13 79 -6 3 -362 6 -791 6 -576 -1 -783 -4 -788 -12 -10 -16 -9
-1265 0 -1280 6 -10 173 -12 706 -12 692 1 700 0 754 -21 30 -12 56 -22 58
-23 2 -1 -3 -13 -11 -26 -13 -19 -15 -62 -13 -238 2 -239 4 -247 68 -281 34
-17 36 -21 25 -42 -10 -18 -16 -239 -8 -289 0 -5 50 -8 109 -8 133 0 144 7
133 90 0 6 -30 10 -67 10 -41 0 -63 4 -59 10 3 6 17 8 30 6 36 -7 65 20 65 60
l0 34 -52 0 c-65 0 -59 8 12 13 60 5 78 20 75 67 -1 22 3 30 15 30 22 0 84 42
115 78 14 15 28 43 31 62 9 44 10 401 1 424 -5 13 -21 16 -77 16 -67 0 -73 -2
-97 -31 -26 -30 -26 -32 -26 -200 1 -150 -1 -169 -16 -170 -32 -2 -56 3 -63
15 -4 6 -8 93 -8 194 0 153 -2 184 -15 188 -8 4 -15 10 -15 16 0 5 4 7 8 4 5
-3 31 1 58 8 27 7 110 14 184 15 l135 2 17 -29 c16 -27 16 -29 -4 -50 -18 -17
-22 -32 -20 -77 1 -60 10 -80 55 -139 28 -35 30 -40 16 -61 -69 -110 -70 -112
-71 -177 -1 -35 2 -70 6 -76 4 -7 34 -12 77 -12 62 0 72 3 97 28 23 22 28 35
27 72 -4 135 74 107 85 -30 l5 -65 74 -3 c69 -3 76 -1 103 24 27 26 28 32 26
103 -2 70 -4 77 -44 132 l-43 57 42 59 c40 55 42 62 42 128 l0 70 -75 3 c-73
3 -75 2 -102 -29 -21 -24 -28 -42 -28 -73 0 -38 -13 -66 -31 -66 -17 0 -50 71
-52 112 -2 42 0 46 65 104 45 42 85 68 126 82 71 26 95 51 94 94 -1 32 -27 63
-93 109 -19 13 -22 23 -20 71 1 35 -3 61 -11 69 -7 8 -13 32 -14 54 -3 177
-44 280 -180 460 -42 55 -80 108 -86 119 -5 10 -12 62 -14 115 -7 161 -19 221
-60 303 -48 94 -160 146 -273 126z"/>
<path d="M37 912 l-27 -28 2 -260 3 -259 210 -2 210 -2 24 30 c22 29 24 38 22
156 -1 69 -4 129 -7 134 -3 5 -36 9 -73 9 -63 0 -70 -2 -94 -30 -21 -23 -27
-40 -27 -75 0 -43 -1 -45 -30 -45 -16 0 -30 5 -31 10 0 6 -1 83 -1 173 1 89
-2 174 -5 190 -4 26 -6 27 -77 27 -66 0 -75 -2 -99 -28z"/>
<path d="M545 910 c-26 -27 -29 -37 -27 -87 1 -31 4 -59 8 -62 3 -3 24 -6 47
-6 l42 0 3 -106 c3 -105 2 -106 -20 -105 -14 1 -35 -10 -52 -27 -23 -24 -29
-39 -30 -81 -1 -28 3 -57 7 -63 7 -9 44 -13 124 -13 96 0 112 -2 101 -14 -10
-10 -14 -49 -13 -157 l0 -144 43 -3 c49 -4 72 13 75 55 2 23 7 27 40 29 40 4
87 33 99 62 4 9 7 41 7 70 1 43 -3 57 -24 77 -21 22 -49 31 -77 26 -13 -2 -9
9 12 36 15 19 20 39 19 79 -1 30 -6 57 -10 60 -5 3 -27 5 -48 6 l-40 0 -3 104
c-2 57 -1 104 2 105 3 0 15 2 27 3 13 2 34 16 47 31 21 24 25 39 25 85 -1 30
-6 58 -13 62 -6 4 -86 8 -177 8 l-165 0 -29 -30z m345 -677 c0 -7 -9 -13 -20
-13 -22 0 -29 35 -7 43 13 4 27 -11 27 -30z"/>
<path d="M1007 909 l-28 -32 3 -256 3 -256 53 -3 c40 -2 51 -6 44 -15 -29 -36
-64 -146 -66 -212 -1 -38 -1 -76 2 -82 6 -17 80 -17 97 0 7 8 15 25 17 38 2
16 9 24 23 24 15 0 21 -8 25 -35 5 -33 7 -35 48 -38 60 -4 72 11 72 92 0 63
-34 190 -59 220 -6 6 -27 11 -48 10 -52 -2 -58 4 -31 28 27 23 25 16 27 114
l1 76 40 -48 c46 -56 42 -46 45 -109 2 -27 3 -53 4 -57 0 -5 29 -8 64 -8 60
-1 61 -1 35 -16 -43 -23 -55 -58 -53 -162 1 -127 10 -136 141 -140 125 -5 133
2 133 104 l0 74 -40 0 c-56 0 -79 -15 -79 -50 0 -20 -5 -30 -15 -30 -17 0 -17
-1 -20 67 l-3 53 46 0 c61 1 82 17 82 64 0 39 4 38 -88 39 l-52 0 26 28 26 27
0 251 c-1 138 -4 256 -7 261 -3 6 -36 10 -73 10 -60 0 -70 -3 -98 -29 -26 -25
-31 -36 -29 -71 l2 -42 -64 71 -65 71 -57 0 c-51 0 -59 -3 -84 -31z m162 -691
c1 -5 -6 -8 -14 -8 -15 0 -21 31 -8 44 7 6 20 -17 22 -36z"/>
</g>
</svg>
