<svg xmlns="http://www.w3.org/2000/svg" xmlns:xlink="http://www.w3.org/1999/xlink" width="54" zoomAndPan="magnify" viewBox="0 0 40.5 32.999998" height="44" preserveAspectRatio="xMidYMid meet" version="1.0"><defs><g/><clipPath id="3b1e3129ab"><path d="M 4.210938 4.269531 L 24.214844 4.269531 L 24.214844 20.570312 L 4.210938 20.570312 Z M 4.210938 4.269531 " clip-rule="nonzero"/></clipPath><clipPath id="6dcddd5ead"><path d="M 21 0.203125 L 35 0.203125 L 35 18 L 21 18 Z M 21 0.203125 " clip-rule="nonzero"/></clipPath><clipPath id="72d6ef7777"><path d="M 18.636719 14 L 26 14 L 26 21.6875 L 18.636719 21.6875 Z M 18.636719 14 " clip-rule="nonzero"/></clipPath><clipPath id="4753bbc233"><path d="M 30 15 L 36.414062 15 L 36.414062 21.6875 L 30 21.6875 Z M 30 15 " clip-rule="nonzero"/></clipPath><clipPath id="063c6cce58"><path d="M 25 18 L 31 18 L 31 21.6875 L 25 21.6875 Z M 25 18 " clip-rule="nonzero"/></clipPath><clipPath id="3e6c170db1"><path d="M 18.636719 15 L 21 15 L 21 17 L 18.636719 17 Z M 18.636719 15 " clip-rule="nonzero"/></clipPath><clipPath id="729d5012f1"><path d="M 12 28 L 16 28 L 16 32.796875 L 12 32.796875 Z M 12 28 " clip-rule="nonzero"/></clipPath><clipPath id="ab9c891de6"><path d="M 16 28 L 20 28 L 20 32.796875 L 16 32.796875 Z M 16 28 " clip-rule="nonzero"/></clipPath><clipPath id="fad28eca9a"><path d="M 20 28 L 24 28 L 24 32.796875 L 20 32.796875 Z M 20 28 " clip-rule="nonzero"/></clipPath><clipPath id="aad69bb3cc"><path d="M 24 28 L 27 28 L 27 32.796875 L 24 32.796875 Z M 24 28 " clip-rule="nonzero"/></clipPath><clipPath id="85b3921abe"><path d="M 13 28 L 17 28 L 17 32.796875 L 13 32.796875 Z M 13 28 " clip-rule="nonzero"/></clipPath><clipPath id="3324ae8224"><path d="M 16 28 L 20 28 L 20 32.796875 L 16 32.796875 Z M 16 28 " clip-rule="nonzero"/></clipPath><clipPath id="4c8937f1a1"><path d="M 20 28 L 24 28 L 24 32.796875 L 20 32.796875 Z M 20 28 " clip-rule="nonzero"/></clipPath><clipPath id="f416e7c6ea"><path d="M 24 28 L 28 28 L 28 32.796875 L 24 32.796875 Z M 24 28 " clip-rule="nonzero"/></clipPath></defs><g clip-path="url(#3b1e3129ab)"><path fill="#000000" d="M 4.617188 4.269531 L 23.808594 4.269531 C 23.917969 4.269531 24.007812 4.308594 24.085938 4.382812 C 24.160156 4.460938 24.199219 4.550781 24.199219 4.660156 L 24.199219 20.183594 C 24.199219 20.289062 24.160156 20.382812 24.085938 20.457031 C 24.007812 20.535156 23.917969 20.574219 23.808594 20.574219 L 4.617188 20.574219 C 4.511719 20.574219 4.417969 20.535156 4.34375 20.457031 C 4.265625 20.382812 4.226562 20.289062 4.226562 20.183594 L 4.226562 4.660156 C 4.226562 4.550781 4.265625 4.460938 4.34375 4.382812 C 4.417969 4.308594 4.511719 4.269531 4.617188 4.269531 Z M 4.617188 4.269531 " fill-opacity="1" fill-rule="nonzero"/></g><path fill="#ffffff" d="M 6.433594 5.964844 C 6.363281 5.898438 6.285156 5.867188 6.191406 5.867188 C 6.09375 5.867188 6.015625 5.898438 5.949219 5.96875 C 5.882812 6.035156 5.847656 6.113281 5.847656 6.207031 C 5.847656 6.300781 5.882812 6.382812 5.949219 6.449219 L 6.996094 7.496094 L 5.949219 8.542969 C 5.882812 8.609375 5.847656 8.691406 5.847656 8.785156 C 5.847656 8.878906 5.882812 8.960938 5.949219 9.027344 C 6.015625 9.09375 6.09375 9.125 6.1875 9.125 C 6.285156 9.125 6.367188 9.09375 6.433594 9.027344 L 7.597656 7.863281 C 7.84375 7.617188 7.84375 7.375 7.597656 7.128906 Z M 11 8.542969 C 10.929688 8.476562 10.851562 8.441406 10.753906 8.441406 L 8.503906 8.441406 C 8.410156 8.441406 8.328125 8.476562 8.261719 8.542969 C 8.195312 8.609375 8.160156 8.691406 8.160156 8.789062 C 8.160156 8.882812 8.195312 8.964844 8.261719 9.03125 C 8.328125 9.097656 8.410156 9.132812 8.503906 9.132812 L 10.753906 9.132812 C 10.851562 9.132812 10.929688 9.097656 11 9.03125 C 11.066406 8.964844 11.101562 8.882812 11.101562 8.789062 C 11.101562 8.691406 11.066406 8.609375 11 8.542969 Z M 11 8.542969 " fill-opacity="1" fill-rule="nonzero"/><g clip-path="url(#6dcddd5ead)"><path fill="#252322" d="M 21.359375 14.535156 C 21.585938 13.140625 22.105469 11.839844 22.605469 10.53125 C 22.917969 9.71875 23.335938 8.957031 23.722656 8.175781 C 24.171875 7.273438 24.441406 6.335938 24.425781 5.308594 C 24.417969 4.3125 24.503906 3.320312 24.789062 2.355469 C 24.835938 2.195312 24.890625 2.039062 24.953125 1.886719 C 25.378906 0.832031 26.171875 0.335938 27.289062 0.285156 C 28.089844 0.246094 28.808594 0.453125 29.445312 0.921875 C 29.90625 1.265625 30.222656 1.734375 30.453125 2.261719 C 30.734375 2.910156 30.90625 3.585938 30.949219 4.285156 C 30.996094 5 31.082031 5.714844 31.042969 6.4375 C 31.027344 6.824219 31.179688 7.167969 31.378906 7.488281 C 31.699219 8.015625 32.105469 8.480469 32.484375 8.964844 C 33.160156 9.832031 33.765625 10.742188 34.136719 11.792969 C 34.503906 12.847656 34.617188 13.9375 34.582031 15.042969 C 34.492188 15.242188 34.5 15.453125 34.488281 15.660156 C 34.4375 16.363281 33.949219 16.953125 33.261719 17.097656 C 32.9375 17.164062 32.601562 17.140625 32.273438 17.128906 C 31.765625 17.109375 31.433594 16.824219 31.226562 16.378906 C 31.046875 15.992188 31.035156 15.578125 31.027344 15.160156 C 31.058594 14.433594 31.007812 13.710938 30.933594 12.988281 C 30.824219 11.929688 30.578125 10.902344 30.246094 9.894531 C 29.945312 8.972656 29.566406 8.085938 29.144531 7.214844 C 29.210938 7.160156 29.28125 7.105469 29.351562 7.046875 C 29.800781 6.683594 29.847656 6.316406 29.5 5.84375 C 29.351562 5.640625 29.144531 5.503906 28.949219 5.351562 C 29.359375 4.75 29.382812 4.113281 29.089844 3.464844 C 28.949219 3.152344 28.699219 2.984375 28.34375 2.980469 C 28.003906 2.976562 27.714844 3.324219 27.601562 3.679688 C 27.480469 4.050781 27.488281 4.429688 27.566406 4.804688 C 27.242188 4.707031 26.914062 4.675781 26.582031 4.765625 C 26.671875 4.289062 26.660156 3.828125 26.410156 3.398438 C 26.078125 2.832031 25.417969 2.832031 25.078125 3.394531 C 24.738281 3.957031 24.796875 4.847656 25.210938 5.363281 C 24.996094 5.546875 24.769531 5.714844 24.605469 5.949219 C 24.34375 6.339844 24.339844 6.65625 24.621094 7.035156 C 24.730469 7.1875 24.863281 7.316406 24.984375 7.457031 C 24.75 8.070312 24.472656 8.664062 24.167969 9.246094 C 23.675781 10.175781 23.285156 11.148438 22.9375 12.140625 C 22.65625 12.941406 22.375 13.746094 22.246094 14.589844 C 21.957031 14.453125 21.664062 14.421875 21.359375 14.535156 " fill-opacity="1" fill-rule="nonzero"/></g><g clip-path="url(#72d6ef7777)"><path fill="#eca210" d="M 20.597656 15.910156 C 20.671875 15.664062 20.691406 15.402344 20.816406 15.167969 C 20.960938 15.148438 20.980469 14.992188 21.078125 14.917969 C 21.597656 14.546875 22.207031 14.636719 22.582031 15.164062 C 22.929688 15.648438 23.179688 16.1875 23.441406 16.722656 C 23.695312 17.246094 24.003906 17.722656 24.511719 18.027344 C 24.6875 18.136719 24.777344 18.347656 24.992188 18.402344 L 24.988281 18.40625 C 24.984375 18.46875 24.984375 18.53125 25.074219 18.527344 C 25.085938 18.542969 25.097656 18.558594 25.109375 18.574219 C 25.121094 18.589844 25.132812 18.601562 25.144531 18.617188 C 25.367188 18.957031 25.492188 19.332031 25.566406 19.730469 C 25.609375 20.214844 25.558594 20.683594 25.320312 21.117188 C 24.917969 21.609375 24.402344 21.632812 23.835938 21.503906 C 23.273438 21.378906 22.75 21.144531 22.242188 20.890625 C 21.835938 20.6875 21.417969 20.648438 20.988281 20.609375 C 20.480469 20.566406 19.976562 20.5 19.496094 20.316406 C 19.328125 20.253906 19.167969 20.171875 19.027344 20.054688 C 18.734375 19.8125 18.621094 19.511719 18.722656 19.132812 C 18.859375 18.613281 18.828125 18.097656 18.722656 17.574219 C 18.667969 17.300781 18.625 17.011719 18.78125 16.746094 C 18.945312 16.695312 19.054688 16.554688 19.214844 16.488281 C 19.5625 16.347656 19.921875 16.28125 20.28125 16.214844 C 20.476562 16.179688 20.578125 16.105469 20.597656 15.910156 " fill-opacity="1" fill-rule="nonzero"/></g><g clip-path="url(#4753bbc233)"><path fill="#eca210" d="M 31.027344 15.160156 C 31.035156 15.578125 31.046875 15.992188 31.226562 16.378906 C 31.433594 16.824219 31.765625 17.109375 32.273438 17.128906 C 32.601562 17.140625 32.9375 17.164062 33.261719 17.097656 C 33.949219 16.953125 34.4375 16.363281 34.488281 15.660156 C 34.5 15.453125 34.492188 15.242188 34.582031 15.042969 C 34.800781 15.214844 34.898438 15.441406 34.886719 15.714844 C 34.878906 15.96875 34.867188 16.226562 34.839844 16.480469 C 34.8125 16.753906 34.949219 16.910156 35.164062 17.046875 C 35.464844 17.234375 35.773438 17.421875 36.023438 17.6875 C 36.183594 17.859375 36.292969 18.054688 36.332031 18.285156 C 36.394531 18.6875 36.238281 18.988281 35.902344 19.203125 C 35.578125 19.414062 35.207031 19.53125 34.84375 19.660156 C 34.398438 19.816406 34.015625 20.050781 33.707031 20.417969 C 33.472656 20.707031 33.199219 20.964844 32.882812 21.171875 C 32.386719 21.5 31.832031 21.621094 31.25 21.558594 C 30.722656 21.5 30.363281 21.207031 30.195312 20.691406 C 30.105469 20.367188 30.101562 20.027344 30.132812 19.699219 C 30.15625 19.460938 30.167969 19.226562 30.164062 18.984375 C 30.203125 18.867188 30.191406 18.742188 30.203125 18.617188 C 30.265625 17.777344 30.34375 16.9375 30.574219 16.121094 C 30.671875 15.777344 30.777344 15.433594 31.027344 15.160156 " fill-opacity="1" fill-rule="nonzero"/></g><g clip-path="url(#063c6cce58)"><path fill="#252322" d="M 30.164062 18.984375 C 30.167969 19.226562 30.15625 19.460938 30.132812 19.699219 C 30.101562 20.027344 30.105469 20.367188 30.195312 20.691406 C 29.289062 20.691406 28.378906 20.679688 27.46875 20.691406 C 26.730469 20.703125 26.011719 20.835938 25.320312 21.117188 C 25.558594 20.683594 25.609375 20.214844 25.566406 19.730469 C 26.289062 19.796875 27.011719 19.804688 27.730469 19.714844 C 28.585938 19.609375 29.398438 19.378906 30.164062 18.984375 " fill-opacity="1" fill-rule="nonzero"/></g><path fill="#f3c447" d="M 24.992188 18.402344 C 24.777344 18.347656 24.6875 18.136719 24.511719 18.027344 C 24.003906 17.722656 23.695312 17.246094 23.441406 16.722656 C 23.179688 16.1875 22.929688 15.648438 22.582031 15.164062 C 22.207031 14.636719 21.597656 14.546875 21.078125 14.917969 C 20.980469 14.992188 20.960938 15.148438 20.816406 15.167969 C 20.894531 14.871094 21.097656 14.675781 21.359375 14.535156 C 21.664062 14.421875 21.957031 14.453125 22.246094 14.589844 C 22.582031 14.878906 22.804688 15.25 22.996094 15.644531 C 23.164062 15.992188 23.328125 16.339844 23.503906 16.683594 C 23.726562 17.109375 23.992188 17.496094 24.402344 17.777344 C 24.640625 17.9375 24.851562 18.140625 24.992188 18.402344 " fill-opacity="1" fill-rule="nonzero"/><g clip-path="url(#3e6c170db1)"><path fill="#f3c447" d="M 20.597656 15.910156 C 20.578125 16.105469 20.476562 16.179688 20.28125 16.214844 C 19.921875 16.28125 19.5625 16.347656 19.214844 16.488281 C 19.054688 16.554688 18.945312 16.695312 18.78125 16.746094 C 18.929688 16.402344 19.238281 16.265625 19.5625 16.167969 C 19.902344 16.070312 20.25 15.996094 20.597656 15.910156 " fill-opacity="1" fill-rule="nonzero"/></g><path fill="#ffffff" d="M 24.992188 18.402344 C 24.851562 18.140625 24.640625 17.9375 24.402344 17.777344 C 23.992188 17.496094 23.726562 17.109375 23.503906 16.683594 C 23.328125 16.339844 23.164062 15.992188 22.996094 15.644531 C 22.804688 15.25 22.582031 14.878906 22.246094 14.589844 C 22.375 13.746094 22.65625 12.941406 22.9375 12.140625 C 23.285156 11.148438 23.675781 10.175781 24.167969 9.246094 C 24.472656 8.664062 24.75 8.070312 24.984375 7.457031 C 25.03125 7.488281 25.078125 7.515625 25.121094 7.550781 C 25.453125 7.8125 25.816406 8.019531 26.207031 8.175781 C 26.453125 8.273438 26.691406 8.28125 26.949219 8.199219 C 27.714844 7.949219 28.449219 7.632812 29.144531 7.214844 C 29.566406 8.085938 29.945312 8.972656 30.246094 9.894531 C 30.578125 10.902344 30.824219 11.929688 30.933594 12.988281 C 31.007812 13.710938 31.058594 14.433594 31.027344 15.160156 C 30.777344 15.433594 30.671875 15.777344 30.574219 16.121094 C 30.34375 16.9375 30.265625 17.777344 30.203125 18.617188 C 30.191406 18.742188 30.203125 18.867188 30.164062 18.984375 C 29.398438 19.378906 28.585938 19.609375 27.730469 19.714844 C 27.011719 19.804688 26.289062 19.796875 25.566406 19.730469 C 25.492188 19.332031 25.367188 18.957031 25.144531 18.617188 C 25.132812 18.601562 25.121094 18.589844 25.109375 18.574219 C 25.097656 18.558594 25.085938 18.542969 25.074219 18.527344 C 25.070312 18.46875 25.042969 18.429688 24.988281 18.40625 L 24.992188 18.402344 " fill-opacity="1" fill-rule="nonzero"/><path fill="#eca210" d="M 29.144531 7.214844 C 28.449219 7.632812 27.714844 7.949219 26.949219 8.199219 C 26.691406 8.28125 26.453125 8.273438 26.207031 8.175781 C 25.816406 8.019531 25.453125 7.8125 25.121094 7.550781 C 25.078125 7.515625 25.03125 7.488281 24.984375 7.457031 C 24.863281 7.316406 24.730469 7.1875 24.621094 7.035156 C 24.339844 6.65625 24.34375 6.339844 24.605469 5.949219 C 24.769531 5.714844 24.996094 5.546875 25.210938 5.363281 C 25.3125 5.320312 25.40625 5.265625 25.488281 5.191406 C 25.695312 5.09375 25.90625 4.996094 26.113281 4.894531 C 26.269531 4.851562 26.425781 4.808594 26.582031 4.765625 C 26.914062 4.675781 27.242188 4.707031 27.566406 4.804688 C 27.71875 4.847656 27.867188 4.890625 28.019531 4.933594 C 28.234375 5.019531 28.449219 5.101562 28.667969 5.1875 C 28.730469 5.292969 28.847656 5.308594 28.949219 5.351562 C 29.144531 5.503906 29.351562 5.640625 29.5 5.84375 C 29.847656 6.316406 29.800781 6.683594 29.351562 7.046875 C 29.28125 7.105469 29.210938 7.160156 29.144531 7.214844 " fill-opacity="1" fill-rule="nonzero"/><path fill="#ffffff" d="M 28.949219 5.351562 C 28.847656 5.308594 28.730469 5.292969 28.667969 5.1875 C 28.832031 4.855469 28.835938 4.511719 28.722656 4.164062 C 28.667969 4.003906 28.589844 3.832031 28.398438 3.832031 C 28.195312 3.828125 28.121094 4.011719 28.058594 4.175781 C 27.972656 4.421875 27.988281 4.679688 28.019531 4.933594 C 27.867188 4.890625 27.71875 4.847656 27.566406 4.804688 C 27.488281 4.429688 27.480469 4.050781 27.601562 3.679688 C 27.714844 3.324219 28.003906 2.976562 28.34375 2.980469 C 28.699219 2.984375 28.949219 3.152344 29.089844 3.464844 C 29.382812 4.113281 29.359375 4.75 28.949219 5.351562 " fill-opacity="1" fill-rule="nonzero"/><path fill="#ffffff" d="M 25.488281 5.191406 C 25.40625 5.265625 25.3125 5.320312 25.210938 5.363281 C 24.796875 4.847656 24.738281 3.957031 25.078125 3.394531 C 25.417969 2.832031 26.078125 2.832031 26.410156 3.398438 C 26.660156 3.828125 26.671875 4.289062 26.582031 4.765625 C 26.425781 4.808594 26.269531 4.851562 26.113281 4.894531 C 26.164062 4.621094 26.152344 4.347656 26.039062 4.085938 C 25.980469 3.957031 25.902344 3.828125 25.742188 3.828125 C 25.585938 3.832031 25.503906 3.957031 25.453125 4.089844 C 25.304688 4.457031 25.308594 4.828125 25.488281 5.191406 " fill-opacity="1" fill-rule="nonzero"/><path fill="#f3c447" d="M 24.988281 18.40625 C 25.042969 18.429688 25.070312 18.46875 25.074219 18.527344 C 24.984375 18.53125 24.984375 18.46875 24.988281 18.40625 " fill-opacity="1" fill-rule="nonzero"/><path fill="#f3c447" d="M 25.074219 18.527344 C 25.085938 18.542969 25.097656 18.558594 25.109375 18.574219 C 25.097656 18.558594 25.085938 18.542969 25.074219 18.527344 " fill-opacity="1" fill-rule="nonzero"/><path fill="#f3c447" d="M 25.109375 18.574219 C 25.121094 18.589844 25.132812 18.601562 25.144531 18.617188 C 25.132812 18.601562 25.121094 18.589844 25.109375 18.574219 " fill-opacity="1" fill-rule="nonzero"/><path fill="#252322" d="M 28.019531 4.933594 C 27.988281 4.679688 27.972656 4.421875 28.058594 4.175781 C 28.121094 4.011719 28.195312 3.828125 28.398438 3.832031 C 28.589844 3.832031 28.667969 4.003906 28.722656 4.164062 C 28.835938 4.511719 28.832031 4.855469 28.667969 5.1875 C 28.449219 5.101562 28.234375 5.019531 28.019531 4.933594 " fill-opacity="1" fill-rule="nonzero"/><path fill="#252322" d="M 25.488281 5.191406 C 25.308594 4.828125 25.304688 4.457031 25.453125 4.089844 C 25.503906 3.957031 25.585938 3.832031 25.742188 3.828125 C 25.902344 3.828125 25.980469 3.957031 26.039062 4.085938 C 26.152344 4.347656 26.164062 4.621094 26.113281 4.894531 C 25.90625 4.996094 25.695312 5.09375 25.488281 5.191406 " fill-opacity="1" fill-rule="nonzero"/><g fill="#ff00ff" fill-opacity="1"><g transform="translate(3.159701, 28.179266)"><g><path d="M 5.765625 0 L 0.984375 0 C 0.867188 0 0.78125 -0.0234375 0.71875 -0.078125 C 0.664062 -0.128906 0.640625 -0.21875 0.640625 -0.34375 L 0.640625 -6.421875 C 0.640625 -6.546875 0.664062 -6.632812 0.71875 -6.6875 C 0.78125 -6.738281 0.867188 -6.765625 0.984375 -6.765625 L 2.4375 -6.765625 C 2.5625 -6.765625 2.648438 -6.738281 2.703125 -6.6875 C 2.753906 -6.632812 2.78125 -6.546875 2.78125 -6.421875 L 2.78125 -1.78125 L 4.0625 -1.78125 L 4.0625 -3.296875 C 4.0625 -3.410156 4.085938 -3.492188 4.140625 -3.546875 C 4.191406 -3.609375 4.28125 -3.640625 4.40625 -3.640625 L 5.765625 -3.640625 C 5.878906 -3.640625 5.960938 -3.609375 6.015625 -3.546875 C 6.078125 -3.492188 6.109375 -3.410156 6.109375 -3.296875 L 6.109375 -0.34375 C 6.109375 -0.21875 6.078125 -0.128906 6.015625 -0.078125 C 5.960938 -0.0234375 5.878906 0 5.765625 0 Z M 5.765625 0 "/></g></g></g><g fill="#ff00ff" fill-opacity="1"><g transform="translate(9.684431, 28.179266)"><g><path d="M 0.828125 0 C 0.710938 0 0.628906 -0.0234375 0.578125 -0.078125 C 0.523438 -0.128906 0.5 -0.21875 0.5 -0.34375 L 0.5 -1.453125 C 0.5 -1.578125 0.523438 -1.664062 0.578125 -1.71875 C 0.628906 -1.769531 0.710938 -1.796875 0.828125 -1.796875 L 1.765625 -1.796875 L 1.765625 -4.953125 L 0.828125 -4.953125 C 0.710938 -4.953125 0.628906 -4.976562 0.578125 -5.03125 C 0.523438 -5.082031 0.5 -5.164062 0.5 -5.28125 L 0.5 -6.421875 C 0.5 -6.546875 0.523438 -6.632812 0.578125 -6.6875 C 0.628906 -6.738281 0.710938 -6.765625 0.828125 -6.765625 L 4.84375 -6.765625 C 4.957031 -6.765625 5.039062 -6.738281 5.09375 -6.6875 C 5.144531 -6.632812 5.171875 -6.546875 5.171875 -6.421875 L 5.171875 -5.28125 C 5.171875 -5.164062 5.144531 -5.082031 5.09375 -5.03125 C 5.039062 -4.976562 4.957031 -4.953125 4.84375 -4.953125 L 3.921875 -4.953125 L 3.921875 -1.796875 L 4.84375 -1.796875 C 4.957031 -1.796875 5.039062 -1.769531 5.09375 -1.71875 C 5.144531 -1.664062 5.171875 -1.578125 5.171875 -1.453125 L 5.171875 -0.34375 C 5.171875 -0.21875 5.144531 -0.128906 5.09375 -0.078125 C 5.039062 -0.0234375 4.957031 0 4.84375 0 Z M 0.828125 0 "/></g></g></g><g fill="#ff00ff" fill-opacity="1"><g transform="translate(15.364231, 28.179266)"><g><path d="M 2.390625 0 L 0.984375 0 C 0.867188 0 0.78125 -0.0234375 0.71875 -0.078125 C 0.664062 -0.128906 0.640625 -0.21875 0.640625 -0.34375 L 0.640625 -6.421875 C 0.640625 -6.546875 0.664062 -6.632812 0.71875 -6.6875 C 0.78125 -6.738281 0.867188 -6.765625 0.984375 -6.765625 L 1.96875 -6.765625 C 2.082031 -6.765625 2.179688 -6.742188 2.265625 -6.703125 C 2.347656 -6.671875 2.429688 -6.601562 2.515625 -6.5 L 4.34375 -4.421875 L 4.34375 -6.421875 C 4.34375 -6.546875 4.367188 -6.632812 4.421875 -6.6875 C 4.472656 -6.738281 4.554688 -6.765625 4.671875 -6.765625 L 6.078125 -6.765625 C 6.203125 -6.765625 6.289062 -6.738281 6.34375 -6.6875 C 6.394531 -6.632812 6.421875 -6.546875 6.421875 -6.421875 L 6.421875 -0.34375 C 6.421875 -0.21875 6.394531 -0.128906 6.34375 -0.078125 C 6.289062 -0.0234375 6.203125 0 6.078125 0 L 4.671875 0 C 4.554688 0 4.472656 -0.0234375 4.421875 -0.078125 C 4.367188 -0.128906 4.34375 -0.21875 4.34375 -0.34375 L 4.34375 -1.5 L 2.734375 -3.4375 L 2.734375 -0.34375 C 2.734375 -0.21875 2.707031 -0.128906 2.65625 -0.078125 C 2.601562 -0.0234375 2.515625 0 2.390625 0 Z M 2.390625 0 "/></g></g></g><g fill="#ff00ff" fill-opacity="1"><g transform="translate(22.43347, 28.179266)"><g><path d="M 6.40625 -1.78125 C 6.40625 -1.488281 6.363281 -1.222656 6.28125 -0.984375 C 6.195312 -0.753906 6.046875 -0.554688 5.828125 -0.390625 C 5.609375 -0.222656 5.3125 -0.09375 4.9375 0 C 4.5625 0.09375 4.082031 0.140625 3.5 0.140625 C 2.914062 0.140625 2.4375 0.09375 2.0625 0 C 1.6875 -0.09375 1.390625 -0.222656 1.171875 -0.390625 C 0.960938 -0.554688 0.8125 -0.753906 0.71875 -0.984375 C 0.632812 -1.222656 0.59375 -1.488281 0.59375 -1.78125 L 0.59375 -6.421875 C 0.59375 -6.546875 0.617188 -6.632812 0.671875 -6.6875 C 0.734375 -6.738281 0.820312 -6.765625 0.9375 -6.765625 L 2.40625 -6.765625 C 2.53125 -6.765625 2.617188 -6.738281 2.671875 -6.6875 C 2.722656 -6.632812 2.75 -6.546875 2.75 -6.421875 L 2.75 -2.140625 C 2.75 -2.015625 2.796875 -1.910156 2.890625 -1.828125 C 2.984375 -1.742188 3.191406 -1.703125 3.515625 -1.703125 C 3.847656 -1.703125 4.0625 -1.742188 4.15625 -1.828125 C 4.25 -1.910156 4.296875 -2.015625 4.296875 -2.140625 L 4.296875 -6.421875 C 4.296875 -6.546875 4.320312 -6.632812 4.375 -6.6875 C 4.425781 -6.738281 4.515625 -6.765625 4.640625 -6.765625 L 6.0625 -6.765625 C 6.1875 -6.765625 6.273438 -6.738281 6.328125 -6.6875 C 6.378906 -6.632812 6.40625 -6.546875 6.40625 -6.421875 Z M 6.40625 -1.78125 "/></g></g></g><g fill="#ff00ff" fill-opacity="1"><g transform="translate(29.436994, 28.179266)"><g><path d="M 2.671875 -0.34375 C 2.671875 -0.21875 2.640625 -0.128906 2.578125 -0.078125 C 2.523438 -0.0234375 2.441406 0 2.328125 0 L 0.90625 0 C 0.78125 0 0.691406 -0.0234375 0.640625 -0.078125 C 0.585938 -0.128906 0.5625 -0.21875 0.5625 -0.34375 L 0.5625 -1.34375 C 0.5625 -1.632812 0.585938 -1.847656 0.640625 -1.984375 C 0.691406 -2.128906 0.785156 -2.300781 0.921875 -2.5 L 1.6875 -3.515625 L 0.921875 -4.546875 C 0.773438 -4.742188 0.675781 -4.910156 0.625 -5.046875 C 0.582031 -5.191406 0.5625 -5.410156 0.5625 -5.703125 L 0.5625 -6.421875 C 0.5625 -6.546875 0.585938 -6.632812 0.640625 -6.6875 C 0.691406 -6.738281 0.78125 -6.765625 0.90625 -6.765625 L 2.34375 -6.765625 C 2.46875 -6.765625 2.554688 -6.738281 2.609375 -6.6875 C 2.660156 -6.632812 2.6875 -6.546875 2.6875 -6.421875 L 2.6875 -5.78125 C 2.6875 -5.71875 2.6875 -5.648438 2.6875 -5.578125 C 2.695312 -5.503906 2.722656 -5.4375 2.765625 -5.375 L 3.1875 -4.796875 C 3.21875 -4.742188 3.25 -4.703125 3.28125 -4.671875 C 3.3125 -4.640625 3.351562 -4.625 3.40625 -4.625 L 3.515625 -4.625 C 3.566406 -4.625 3.609375 -4.640625 3.640625 -4.671875 C 3.671875 -4.703125 3.707031 -4.742188 3.75 -4.796875 L 4.171875 -5.375 C 4.210938 -5.4375 4.234375 -5.503906 4.234375 -5.578125 C 4.242188 -5.648438 4.25 -5.71875 4.25 -5.78125 L 4.25 -6.421875 C 4.25 -6.546875 4.273438 -6.632812 4.328125 -6.6875 C 4.378906 -6.738281 4.46875 -6.765625 4.59375 -6.765625 L 6.015625 -6.765625 C 6.140625 -6.765625 6.226562 -6.738281 6.28125 -6.6875 C 6.332031 -6.632812 6.359375 -6.546875 6.359375 -6.421875 L 6.359375 -5.703125 C 6.359375 -5.410156 6.332031 -5.191406 6.28125 -5.046875 C 6.226562 -4.910156 6.132812 -4.742188 6 -4.546875 L 5.234375 -3.515625 L 6 -2.5 C 6.144531 -2.300781 6.238281 -2.128906 6.28125 -1.984375 C 6.332031 -1.847656 6.359375 -1.632812 6.359375 -1.34375 L 6.359375 -0.34375 C 6.359375 -0.21875 6.332031 -0.128906 6.28125 -0.078125 C 6.226562 -0.0234375 6.140625 0 6.015625 0 L 4.59375 0 C 4.46875 0 4.378906 -0.0234375 4.328125 -0.078125 C 4.273438 -0.128906 4.25 -0.21875 4.25 -0.34375 L 4.25 -1.265625 C 4.25 -1.328125 4.242188 -1.390625 4.234375 -1.453125 C 4.234375 -1.523438 4.210938 -1.59375 4.171875 -1.65625 L 3.75 -2.25 C 3.71875 -2.3125 3.6875 -2.351562 3.65625 -2.375 C 3.625 -2.394531 3.582031 -2.40625 3.53125 -2.40625 L 3.40625 -2.40625 C 3.351562 -2.40625 3.3125 -2.394531 3.28125 -2.375 C 3.25 -2.351562 3.210938 -2.3125 3.171875 -2.25 L 2.75 -1.65625 C 2.707031 -1.59375 2.679688 -1.523438 2.671875 -1.453125 C 2.671875 -1.390625 2.671875 -1.328125 2.671875 -1.265625 Z M 2.671875 -0.34375 "/></g></g></g><g fill="#00ffff" fill-opacity="1"><g transform="translate(3.648942, 27.72304)"><g><path d="M 5.765625 0 L 0.984375 0 C 0.867188 0 0.78125 -0.0234375 0.71875 -0.078125 C 0.664062 -0.128906 0.640625 -0.21875 0.640625 -0.34375 L 0.640625 -6.421875 C 0.640625 -6.546875 0.664062 -6.632812 0.71875 -6.6875 C 0.78125 -6.738281 0.867188 -6.765625 0.984375 -6.765625 L 2.4375 -6.765625 C 2.5625 -6.765625 2.648438 -6.738281 2.703125 -6.6875 C 2.753906 -6.632812 2.78125 -6.546875 2.78125 -6.421875 L 2.78125 -1.78125 L 4.0625 -1.78125 L 4.0625 -3.296875 C 4.0625 -3.410156 4.085938 -3.492188 4.140625 -3.546875 C 4.191406 -3.609375 4.28125 -3.640625 4.40625 -3.640625 L 5.765625 -3.640625 C 5.878906 -3.640625 5.960938 -3.609375 6.015625 -3.546875 C 6.078125 -3.492188 6.109375 -3.410156 6.109375 -3.296875 L 6.109375 -0.34375 C 6.109375 -0.21875 6.078125 -0.128906 6.015625 -0.078125 C 5.960938 -0.0234375 5.878906 0 5.765625 0 Z M 5.765625 0 "/></g></g></g><g fill="#00ffff" fill-opacity="1"><g transform="translate(10.173672, 27.72304)"><g><path d="M 0.828125 0 C 0.710938 0 0.628906 -0.0234375 0.578125 -0.078125 C 0.523438 -0.128906 0.5 -0.21875 0.5 -0.34375 L 0.5 -1.453125 C 0.5 -1.578125 0.523438 -1.664062 0.578125 -1.71875 C 0.628906 -1.769531 0.710938 -1.796875 0.828125 -1.796875 L 1.765625 -1.796875 L 1.765625 -4.953125 L 0.828125 -4.953125 C 0.710938 -4.953125 0.628906 -4.976562 0.578125 -5.03125 C 0.523438 -5.082031 0.5 -5.164062 0.5 -5.28125 L 0.5 -6.421875 C 0.5 -6.546875 0.523438 -6.632812 0.578125 -6.6875 C 0.628906 -6.738281 0.710938 -6.765625 0.828125 -6.765625 L 4.84375 -6.765625 C 4.957031 -6.765625 5.039062 -6.738281 5.09375 -6.6875 C 5.144531 -6.632812 5.171875 -6.546875 5.171875 -6.421875 L 5.171875 -5.28125 C 5.171875 -5.164062 5.144531 -5.082031 5.09375 -5.03125 C 5.039062 -4.976562 4.957031 -4.953125 4.84375 -4.953125 L 3.921875 -4.953125 L 3.921875 -1.796875 L 4.84375 -1.796875 C 4.957031 -1.796875 5.039062 -1.769531 5.09375 -1.71875 C 5.144531 -1.664062 5.171875 -1.578125 5.171875 -1.453125 L 5.171875 -0.34375 C 5.171875 -0.21875 5.144531 -0.128906 5.09375 -0.078125 C 5.039062 -0.0234375 4.957031 0 4.84375 0 Z M 0.828125 0 "/></g></g></g><g fill="#00ffff" fill-opacity="1"><g transform="translate(15.853473, 27.72304)"><g><path d="M 2.390625 0 L 0.984375 0 C 0.867188 0 0.78125 -0.0234375 0.71875 -0.078125 C 0.664062 -0.128906 0.640625 -0.21875 0.640625 -0.34375 L 0.640625 -6.421875 C 0.640625 -6.546875 0.664062 -6.632812 0.71875 -6.6875 C 0.78125 -6.738281 0.867188 -6.765625 0.984375 -6.765625 L 1.96875 -6.765625 C 2.082031 -6.765625 2.179688 -6.742188 2.265625 -6.703125 C 2.347656 -6.671875 2.429688 -6.601562 2.515625 -6.5 L 4.34375 -4.421875 L 4.34375 -6.421875 C 4.34375 -6.546875 4.367188 -6.632812 4.421875 -6.6875 C 4.472656 -6.738281 4.554688 -6.765625 4.671875 -6.765625 L 6.078125 -6.765625 C 6.203125 -6.765625 6.289062 -6.738281 6.34375 -6.6875 C 6.394531 -6.632812 6.421875 -6.546875 6.421875 -6.421875 L 6.421875 -0.34375 C 6.421875 -0.21875 6.394531 -0.128906 6.34375 -0.078125 C 6.289062 -0.0234375 6.203125 0 6.078125 0 L 4.671875 0 C 4.554688 0 4.472656 -0.0234375 4.421875 -0.078125 C 4.367188 -0.128906 4.34375 -0.21875 4.34375 -0.34375 L 4.34375 -1.5 L 2.734375 -3.4375 L 2.734375 -0.34375 C 2.734375 -0.21875 2.707031 -0.128906 2.65625 -0.078125 C 2.601562 -0.0234375 2.515625 0 2.390625 0 Z M 2.390625 0 "/></g></g></g><g fill="#00ffff" fill-opacity="1"><g transform="translate(22.922711, 27.72304)"><g><path d="M 6.40625 -1.78125 C 6.40625 -1.488281 6.363281 -1.222656 6.28125 -0.984375 C 6.195312 -0.753906 6.046875 -0.554688 5.828125 -0.390625 C 5.609375 -0.222656 5.3125 -0.09375 4.9375 0 C 4.5625 0.09375 4.082031 0.140625 3.5 0.140625 C 2.914062 0.140625 2.4375 0.09375 2.0625 0 C 1.6875 -0.09375 1.390625 -0.222656 1.171875 -0.390625 C 0.960938 -0.554688 0.8125 -0.753906 0.71875 -0.984375 C 0.632812 -1.222656 0.59375 -1.488281 0.59375 -1.78125 L 0.59375 -6.421875 C 0.59375 -6.546875 0.617188 -6.632812 0.671875 -6.6875 C 0.734375 -6.738281 0.820312 -6.765625 0.9375 -6.765625 L 2.40625 -6.765625 C 2.53125 -6.765625 2.617188 -6.738281 2.671875 -6.6875 C 2.722656 -6.632812 2.75 -6.546875 2.75 -6.421875 L 2.75 -2.140625 C 2.75 -2.015625 2.796875 -1.910156 2.890625 -1.828125 C 2.984375 -1.742188 3.191406 -1.703125 3.515625 -1.703125 C 3.847656 -1.703125 4.0625 -1.742188 4.15625 -1.828125 C 4.25 -1.910156 4.296875 -2.015625 4.296875 -2.140625 L 4.296875 -6.421875 C 4.296875 -6.546875 4.320312 -6.632812 4.375 -6.6875 C 4.425781 -6.738281 4.515625 -6.765625 4.640625 -6.765625 L 6.0625 -6.765625 C 6.1875 -6.765625 6.273438 -6.738281 6.328125 -6.6875 C 6.378906 -6.632812 6.40625 -6.546875 6.40625 -6.421875 Z M 6.40625 -1.78125 "/></g></g></g><g fill="#00ffff" fill-opacity="1"><g transform="translate(29.926235, 27.72304)"><g><path d="M 2.671875 -0.34375 C 2.671875 -0.21875 2.640625 -0.128906 2.578125 -0.078125 C 2.523438 -0.0234375 2.441406 0 2.328125 0 L 0.90625 0 C 0.78125 0 0.691406 -0.0234375 0.640625 -0.078125 C 0.585938 -0.128906 0.5625 -0.21875 0.5625 -0.34375 L 0.5625 -1.34375 C 0.5625 -1.632812 0.585938 -1.847656 0.640625 -1.984375 C 0.691406 -2.128906 0.785156 -2.300781 0.921875 -2.5 L 1.6875 -3.515625 L 0.921875 -4.546875 C 0.773438 -4.742188 0.675781 -4.910156 0.625 -5.046875 C 0.582031 -5.191406 0.5625 -5.410156 0.5625 -5.703125 L 0.5625 -6.421875 C 0.5625 -6.546875 0.585938 -6.632812 0.640625 -6.6875 C 0.691406 -6.738281 0.78125 -6.765625 0.90625 -6.765625 L 2.34375 -6.765625 C 2.46875 -6.765625 2.554688 -6.738281 2.609375 -6.6875 C 2.660156 -6.632812 2.6875 -6.546875 2.6875 -6.421875 L 2.6875 -5.78125 C 2.6875 -5.71875 2.6875 -5.648438 2.6875 -5.578125 C 2.695312 -5.503906 2.722656 -5.4375 2.765625 -5.375 L 3.1875 -4.796875 C 3.21875 -4.742188 3.25 -4.703125 3.28125 -4.671875 C 3.3125 -4.640625 3.351562 -4.625 3.40625 -4.625 L 3.515625 -4.625 C 3.566406 -4.625 3.609375 -4.640625 3.640625 -4.671875 C 3.671875 -4.703125 3.707031 -4.742188 3.75 -4.796875 L 4.171875 -5.375 C 4.210938 -5.4375 4.234375 -5.503906 4.234375 -5.578125 C 4.242188 -5.648438 4.25 -5.71875 4.25 -5.78125 L 4.25 -6.421875 C 4.25 -6.546875 4.273438 -6.632812 4.328125 -6.6875 C 4.378906 -6.738281 4.46875 -6.765625 4.59375 -6.765625 L 6.015625 -6.765625 C 6.140625 -6.765625 6.226562 -6.738281 6.28125 -6.6875 C 6.332031 -6.632812 6.359375 -6.546875 6.359375 -6.421875 L 6.359375 -5.703125 C 6.359375 -5.410156 6.332031 -5.191406 6.28125 -5.046875 C 6.226562 -4.910156 6.132812 -4.742188 6 -4.546875 L 5.234375 -3.515625 L 6 -2.5 C 6.144531 -2.300781 6.238281 -2.128906 6.28125 -1.984375 C 6.332031 -1.847656 6.359375 -1.632812 6.359375 -1.34375 L 6.359375 -0.34375 C 6.359375 -0.21875 6.332031 -0.128906 6.28125 -0.078125 C 6.226562 -0.0234375 6.140625 0 6.015625 0 L 4.59375 0 C 4.46875 0 4.378906 -0.0234375 4.328125 -0.078125 C 4.273438 -0.128906 4.25 -0.21875 4.25 -0.34375 L 4.25 -1.265625 C 4.25 -1.328125 4.242188 -1.390625 4.234375 -1.453125 C 4.234375 -1.523438 4.210938 -1.59375 4.171875 -1.65625 L 3.75 -2.25 C 3.71875 -2.3125 3.6875 -2.351562 3.65625 -2.375 C 3.625 -2.394531 3.582031 -2.40625 3.53125 -2.40625 L 3.40625 -2.40625 C 3.351562 -2.40625 3.3125 -2.394531 3.28125 -2.375 C 3.25 -2.351562 3.210938 -2.3125 3.171875 -2.25 L 2.75 -1.65625 C 2.707031 -1.59375 2.679688 -1.523438 2.671875 -1.453125 C 2.671875 -1.390625 2.671875 -1.328125 2.671875 -1.265625 Z M 2.671875 -0.34375 "/></g></g></g><g fill="#14b5a2" fill-opacity="1"><g transform="translate(3.404321, 27.951153)"><g><path d="M 5.765625 0 L 0.984375 0 C 0.867188 0 0.78125 -0.0234375 0.71875 -0.078125 C 0.664062 -0.128906 0.640625 -0.21875 0.640625 -0.34375 L 0.640625 -6.421875 C 0.640625 -6.546875 0.664062 -6.632812 0.71875 -6.6875 C 0.78125 -6.738281 0.867188 -6.765625 0.984375 -6.765625 L 2.4375 -6.765625 C 2.5625 -6.765625 2.648438 -6.738281 2.703125 -6.6875 C 2.753906 -6.632812 2.78125 -6.546875 2.78125 -6.421875 L 2.78125 -1.78125 L 4.0625 -1.78125 L 4.0625 -3.296875 C 4.0625 -3.410156 4.085938 -3.492188 4.140625 -3.546875 C 4.191406 -3.609375 4.28125 -3.640625 4.40625 -3.640625 L 5.765625 -3.640625 C 5.878906 -3.640625 5.960938 -3.609375 6.015625 -3.546875 C 6.078125 -3.492188 6.109375 -3.410156 6.109375 -3.296875 L 6.109375 -0.34375 C 6.109375 -0.21875 6.078125 -0.128906 6.015625 -0.078125 C 5.960938 -0.0234375 5.878906 0 5.765625 0 Z M 5.765625 0 "/></g></g></g><g fill="#14b5a2" fill-opacity="1"><g transform="translate(9.929051, 27.951153)"><g><path d="M 0.828125 0 C 0.710938 0 0.628906 -0.0234375 0.578125 -0.078125 C 0.523438 -0.128906 0.5 -0.21875 0.5 -0.34375 L 0.5 -1.453125 C 0.5 -1.578125 0.523438 -1.664062 0.578125 -1.71875 C 0.628906 -1.769531 0.710938 -1.796875 0.828125 -1.796875 L 1.765625 -1.796875 L 1.765625 -4.953125 L 0.828125 -4.953125 C 0.710938 -4.953125 0.628906 -4.976562 0.578125 -5.03125 C 0.523438 -5.082031 0.5 -5.164062 0.5 -5.28125 L 0.5 -6.421875 C 0.5 -6.546875 0.523438 -6.632812 0.578125 -6.6875 C 0.628906 -6.738281 0.710938 -6.765625 0.828125 -6.765625 L 4.84375 -6.765625 C 4.957031 -6.765625 5.039062 -6.738281 5.09375 -6.6875 C 5.144531 -6.632812 5.171875 -6.546875 5.171875 -6.421875 L 5.171875 -5.28125 C 5.171875 -5.164062 5.144531 -5.082031 5.09375 -5.03125 C 5.039062 -4.976562 4.957031 -4.953125 4.84375 -4.953125 L 3.921875 -4.953125 L 3.921875 -1.796875 L 4.84375 -1.796875 C 4.957031 -1.796875 5.039062 -1.769531 5.09375 -1.71875 C 5.144531 -1.664062 5.171875 -1.578125 5.171875 -1.453125 L 5.171875 -0.34375 C 5.171875 -0.21875 5.144531 -0.128906 5.09375 -0.078125 C 5.039062 -0.0234375 4.957031 0 4.84375 0 Z M 0.828125 0 "/></g></g></g><g fill="#14b5a2" fill-opacity="1"><g transform="translate(15.608852, 27.951153)"><g><path d="M 2.390625 0 L 0.984375 0 C 0.867188 0 0.78125 -0.0234375 0.71875 -0.078125 C 0.664062 -0.128906 0.640625 -0.21875 0.640625 -0.34375 L 0.640625 -6.421875 C 0.640625 -6.546875 0.664062 -6.632812 0.71875 -6.6875 C 0.78125 -6.738281 0.867188 -6.765625 0.984375 -6.765625 L 1.96875 -6.765625 C 2.082031 -6.765625 2.179688 -6.742188 2.265625 -6.703125 C 2.347656 -6.671875 2.429688 -6.601562 2.515625 -6.5 L 4.34375 -4.421875 L 4.34375 -6.421875 C 4.34375 -6.546875 4.367188 -6.632812 4.421875 -6.6875 C 4.472656 -6.738281 4.554688 -6.765625 4.671875 -6.765625 L 6.078125 -6.765625 C 6.203125 -6.765625 6.289062 -6.738281 6.34375 -6.6875 C 6.394531 -6.632812 6.421875 -6.546875 6.421875 -6.421875 L 6.421875 -0.34375 C 6.421875 -0.21875 6.394531 -0.128906 6.34375 -0.078125 C 6.289062 -0.0234375 6.203125 0 6.078125 0 L 4.671875 0 C 4.554688 0 4.472656 -0.0234375 4.421875 -0.078125 C 4.367188 -0.128906 4.34375 -0.21875 4.34375 -0.34375 L 4.34375 -1.5 L 2.734375 -3.4375 L 2.734375 -0.34375 C 2.734375 -0.21875 2.707031 -0.128906 2.65625 -0.078125 C 2.601562 -0.0234375 2.515625 0 2.390625 0 Z M 2.390625 0 "/></g></g></g><g fill="#14b5a2" fill-opacity="1"><g transform="translate(22.678091, 27.951153)"><g><path d="M 6.40625 -1.78125 C 6.40625 -1.488281 6.363281 -1.222656 6.28125 -0.984375 C 6.195312 -0.753906 6.046875 -0.554688 5.828125 -0.390625 C 5.609375 -0.222656 5.3125 -0.09375 4.9375 0 C 4.5625 0.09375 4.082031 0.140625 3.5 0.140625 C 2.914062 0.140625 2.4375 0.09375 2.0625 0 C 1.6875 -0.09375 1.390625 -0.222656 1.171875 -0.390625 C 0.960938 -0.554688 0.8125 -0.753906 0.71875 -0.984375 C 0.632812 -1.222656 0.59375 -1.488281 0.59375 -1.78125 L 0.59375 -6.421875 C 0.59375 -6.546875 0.617188 -6.632812 0.671875 -6.6875 C 0.734375 -6.738281 0.820312 -6.765625 0.9375 -6.765625 L 2.40625 -6.765625 C 2.53125 -6.765625 2.617188 -6.738281 2.671875 -6.6875 C 2.722656 -6.632812 2.75 -6.546875 2.75 -6.421875 L 2.75 -2.140625 C 2.75 -2.015625 2.796875 -1.910156 2.890625 -1.828125 C 2.984375 -1.742188 3.191406 -1.703125 3.515625 -1.703125 C 3.847656 -1.703125 4.0625 -1.742188 4.15625 -1.828125 C 4.25 -1.910156 4.296875 -2.015625 4.296875 -2.140625 L 4.296875 -6.421875 C 4.296875 -6.546875 4.320312 -6.632812 4.375 -6.6875 C 4.425781 -6.738281 4.515625 -6.765625 4.640625 -6.765625 L 6.0625 -6.765625 C 6.1875 -6.765625 6.273438 -6.738281 6.328125 -6.6875 C 6.378906 -6.632812 6.40625 -6.546875 6.40625 -6.421875 Z M 6.40625 -1.78125 "/></g></g></g><g fill="#14b5a2" fill-opacity="1"><g transform="translate(29.681614, 27.951153)"><g><path d="M 2.671875 -0.34375 C 2.671875 -0.21875 2.640625 -0.128906 2.578125 -0.078125 C 2.523438 -0.0234375 2.441406 0 2.328125 0 L 0.90625 0 C 0.78125 0 0.691406 -0.0234375 0.640625 -0.078125 C 0.585938 -0.128906 0.5625 -0.21875 0.5625 -0.34375 L 0.5625 -1.34375 C 0.5625 -1.632812 0.585938 -1.847656 0.640625 -1.984375 C 0.691406 -2.128906 0.785156 -2.300781 0.921875 -2.5 L 1.6875 -3.515625 L 0.921875 -4.546875 C 0.773438 -4.742188 0.675781 -4.910156 0.625 -5.046875 C 0.582031 -5.191406 0.5625 -5.410156 0.5625 -5.703125 L 0.5625 -6.421875 C 0.5625 -6.546875 0.585938 -6.632812 0.640625 -6.6875 C 0.691406 -6.738281 0.78125 -6.765625 0.90625 -6.765625 L 2.34375 -6.765625 C 2.46875 -6.765625 2.554688 -6.738281 2.609375 -6.6875 C 2.660156 -6.632812 2.6875 -6.546875 2.6875 -6.421875 L 2.6875 -5.78125 C 2.6875 -5.71875 2.6875 -5.648438 2.6875 -5.578125 C 2.695312 -5.503906 2.722656 -5.4375 2.765625 -5.375 L 3.1875 -4.796875 C 3.21875 -4.742188 3.25 -4.703125 3.28125 -4.671875 C 3.3125 -4.640625 3.351562 -4.625 3.40625 -4.625 L 3.515625 -4.625 C 3.566406 -4.625 3.609375 -4.640625 3.640625 -4.671875 C 3.671875 -4.703125 3.707031 -4.742188 3.75 -4.796875 L 4.171875 -5.375 C 4.210938 -5.4375 4.234375 -5.503906 4.234375 -5.578125 C 4.242188 -5.648438 4.25 -5.71875 4.25 -5.78125 L 4.25 -6.421875 C 4.25 -6.546875 4.273438 -6.632812 4.328125 -6.6875 C 4.378906 -6.738281 4.46875 -6.765625 4.59375 -6.765625 L 6.015625 -6.765625 C 6.140625 -6.765625 6.226562 -6.738281 6.28125 -6.6875 C 6.332031 -6.632812 6.359375 -6.546875 6.359375 -6.421875 L 6.359375 -5.703125 C 6.359375 -5.410156 6.332031 -5.191406 6.28125 -5.046875 C 6.226562 -4.910156 6.132812 -4.742188 6 -4.546875 L 5.234375 -3.515625 L 6 -2.5 C 6.144531 -2.300781 6.238281 -2.128906 6.28125 -1.984375 C 6.332031 -1.847656 6.359375 -1.632812 6.359375 -1.34375 L 6.359375 -0.34375 C 6.359375 -0.21875 6.332031 -0.128906 6.28125 -0.078125 C 6.226562 -0.0234375 6.140625 0 6.015625 0 L 4.59375 0 C 4.46875 0 4.378906 -0.0234375 4.328125 -0.078125 C 4.273438 -0.128906 4.25 -0.21875 4.25 -0.34375 L 4.25 -1.265625 C 4.25 -1.328125 4.242188 -1.390625 4.234375 -1.453125 C 4.234375 -1.523438 4.210938 -1.59375 4.171875 -1.65625 L 3.75 -2.25 C 3.71875 -2.3125 3.6875 -2.351562 3.65625 -2.375 C 3.625 -2.394531 3.582031 -2.40625 3.53125 -2.40625 L 3.40625 -2.40625 C 3.351562 -2.40625 3.3125 -2.394531 3.28125 -2.375 C 3.25 -2.351562 3.210938 -2.3125 3.171875 -2.25 L 2.75 -1.65625 C 2.707031 -1.59375 2.679688 -1.523438 2.671875 -1.453125 C 2.671875 -1.390625 2.671875 -1.328125 2.671875 -1.265625 Z M 2.671875 -0.34375 "/></g></g></g><g clip-path="url(#729d5012f1)"><g fill="#ff00ff" fill-opacity="1"><g transform="translate(12.540683, 32.18884)"><g><path d="M 1.375 0 L 0.546875 0 C 0.484375 0 0.4375 -0.015625 0.40625 -0.046875 C 0.375 -0.078125 0.359375 -0.125 0.359375 -0.1875 L 0.359375 -3.609375 C 0.359375 -3.679688 0.375 -3.726562 0.40625 -3.75 C 0.4375 -3.78125 0.484375 -3.796875 0.546875 -3.796875 L 2.171875 -3.796875 C 2.648438 -3.796875 2.976562 -3.703125 3.15625 -3.515625 C 3.332031 -3.328125 3.421875 -3.078125 3.421875 -2.765625 L 3.421875 -2.09375 C 3.421875 -1.789062 3.332031 -1.539062 3.15625 -1.34375 C 2.976562 -1.15625 2.648438 -1.0625 2.171875 -1.0625 L 1.5625 -1.0625 L 1.5625 -0.1875 C 1.5625 -0.125 1.546875 -0.078125 1.515625 -0.046875 C 1.484375 -0.015625 1.4375 0 1.375 0 Z M 1.546875 -2.8125 L 1.546875 -2.015625 L 2.03125 -2.015625 C 2.132812 -2.015625 2.203125 -2.039062 2.234375 -2.09375 C 2.265625 -2.144531 2.28125 -2.207031 2.28125 -2.28125 L 2.28125 -2.5625 C 2.28125 -2.625 2.265625 -2.679688 2.234375 -2.734375 C 2.203125 -2.785156 2.132812 -2.8125 2.03125 -2.8125 Z M 1.546875 -2.8125 "/></g></g></g></g><g clip-path="url(#ab9c891de6)"><g fill="#ff00ff" fill-opacity="1"><g transform="translate(16.142196, 32.18884)"><g><path d="M 1.75 -2.6875 L 1.5 -1.890625 L 2.328125 -1.890625 L 2.078125 -2.6875 C 2.054688 -2.71875 2.035156 -2.738281 2.015625 -2.75 C 2.003906 -2.769531 1.988281 -2.78125 1.96875 -2.78125 L 1.84375 -2.78125 C 1.820312 -2.78125 1.800781 -2.769531 1.78125 -2.75 C 1.769531 -2.738281 1.757812 -2.71875 1.75 -2.6875 Z M 1.4375 -0.1875 C 1.4375 -0.125 1.421875 -0.078125 1.390625 -0.046875 C 1.367188 -0.015625 1.320312 0 1.25 0 L 0.46875 0 C 0.40625 0 0.359375 -0.015625 0.328125 -0.046875 C 0.296875 -0.078125 0.28125 -0.125 0.28125 -0.1875 L 0.28125 -1.578125 C 0.28125 -1.691406 0.296875 -1.816406 0.328125 -1.953125 C 0.367188 -2.085938 0.421875 -2.242188 0.484375 -2.421875 L 0.953125 -3.625 C 0.972656 -3.6875 1.003906 -3.726562 1.046875 -3.75 C 1.085938 -3.78125 1.144531 -3.796875 1.21875 -3.796875 L 2.640625 -3.796875 C 2.703125 -3.796875 2.753906 -3.78125 2.796875 -3.75 C 2.847656 -3.726562 2.882812 -3.6875 2.90625 -3.625 L 3.359375 -2.421875 C 3.429688 -2.242188 3.484375 -2.085938 3.515625 -1.953125 C 3.546875 -1.816406 3.5625 -1.691406 3.5625 -1.578125 L 3.5625 -0.1875 C 3.5625 -0.125 3.546875 -0.078125 3.515625 -0.046875 C 3.492188 -0.015625 3.445312 0 3.375 0 L 2.578125 0 C 2.515625 0 2.460938 -0.015625 2.421875 -0.046875 C 2.390625 -0.078125 2.375 -0.125 2.375 -0.1875 L 2.375 -0.921875 L 1.4375 -0.921875 Z M 1.4375 -0.1875 "/></g></g></g></g><g clip-path="url(#fad28eca9a)"><g fill="#ff00ff" fill-opacity="1"><g transform="translate(19.997188, 32.18884)"><g><path d="M 3.265625 0 L 1.609375 0 C 1.171875 0 0.84375 -0.0859375 0.625 -0.265625 C 0.414062 -0.441406 0.3125 -0.710938 0.3125 -1.078125 L 0.3125 -2.71875 C 0.3125 -3.09375 0.414062 -3.363281 0.625 -3.53125 C 0.84375 -3.707031 1.171875 -3.796875 1.609375 -3.796875 L 2.921875 -3.796875 C 2.992188 -3.796875 3.039062 -3.78125 3.0625 -3.75 C 3.09375 -3.726562 3.109375 -3.679688 3.109375 -3.609375 L 3.109375 -2.96875 C 3.109375 -2.90625 3.09375 -2.859375 3.0625 -2.828125 C 3.039062 -2.796875 2.992188 -2.78125 2.921875 -2.78125 L 1.828125 -2.78125 C 1.710938 -2.78125 1.628906 -2.757812 1.578125 -2.71875 C 1.523438 -2.675781 1.5 -2.609375 1.5 -2.515625 L 1.5 -1.25 C 1.5 -1.164062 1.519531 -1.101562 1.5625 -1.0625 C 1.601562 -1.019531 1.664062 -1 1.75 -1 L 2.265625 -1 L 2.265625 -1.828125 C 2.265625 -1.890625 2.273438 -1.9375 2.296875 -1.96875 C 2.328125 -2 2.378906 -2.015625 2.453125 -2.015625 L 3.265625 -2.015625 C 3.335938 -2.015625 3.382812 -2 3.40625 -1.96875 C 3.4375 -1.9375 3.453125 -1.890625 3.453125 -1.828125 L 3.453125 -0.1875 C 3.453125 -0.125 3.4375 -0.078125 3.40625 -0.046875 C 3.382812 -0.015625 3.335938 0 3.265625 0 Z M 3.265625 0 "/></g></g></g></g><g clip-path="url(#aad69bb3cc)"><g fill="#ff00ff" fill-opacity="1"><g transform="translate(23.736002, 32.18884)"><g><path d="M 3 0 L 0.546875 0 C 0.484375 0 0.4375 -0.015625 0.40625 -0.046875 C 0.375 -0.078125 0.359375 -0.125 0.359375 -0.1875 L 0.359375 -3.609375 C 0.359375 -3.679688 0.375 -3.726562 0.40625 -3.75 C 0.4375 -3.78125 0.484375 -3.796875 0.546875 -3.796875 L 3 -3.796875 C 3.070312 -3.796875 3.117188 -3.78125 3.140625 -3.75 C 3.171875 -3.726562 3.1875 -3.679688 3.1875 -3.609375 L 3.1875 -3 C 3.1875 -2.925781 3.171875 -2.875 3.140625 -2.84375 C 3.117188 -2.8125 3.070312 -2.796875 3 -2.796875 L 1.546875 -2.796875 L 1.546875 -2.390625 L 2.578125 -2.390625 C 2.640625 -2.390625 2.6875 -2.375 2.71875 -2.34375 C 2.75 -2.320312 2.765625 -2.273438 2.765625 -2.203125 L 2.765625 -1.640625 C 2.765625 -1.578125 2.75 -1.53125 2.71875 -1.5 C 2.6875 -1.46875 2.640625 -1.453125 2.578125 -1.453125 L 1.546875 -1.453125 L 1.546875 -1 L 3 -1 C 3.070312 -1 3.117188 -0.984375 3.140625 -0.953125 C 3.171875 -0.921875 3.1875 -0.875 3.1875 -0.8125 L 3.1875 -0.1875 C 3.1875 -0.125 3.171875 -0.078125 3.140625 -0.046875 C 3.117188 -0.015625 3.070312 0 3 0 Z M 3 0 "/></g></g></g></g><g fill="#00ffff" fill-opacity="1"><g transform="translate(12.815864, 31.932229)"><g><path d="M 1.375 0 L 0.546875 0 C 0.484375 0 0.4375 -0.015625 0.40625 -0.046875 C 0.375 -0.078125 0.359375 -0.125 0.359375 -0.1875 L 0.359375 -3.609375 C 0.359375 -3.679688 0.375 -3.726562 0.40625 -3.75 C 0.4375 -3.78125 0.484375 -3.796875 0.546875 -3.796875 L 2.171875 -3.796875 C 2.648438 -3.796875 2.976562 -3.703125 3.15625 -3.515625 C 3.332031 -3.328125 3.421875 -3.078125 3.421875 -2.765625 L 3.421875 -2.09375 C 3.421875 -1.789062 3.332031 -1.539062 3.15625 -1.34375 C 2.976562 -1.15625 2.648438 -1.0625 2.171875 -1.0625 L 1.5625 -1.0625 L 1.5625 -0.1875 C 1.5625 -0.125 1.546875 -0.078125 1.515625 -0.046875 C 1.484375 -0.015625 1.4375 0 1.375 0 Z M 1.546875 -2.8125 L 1.546875 -2.015625 L 2.03125 -2.015625 C 2.132812 -2.015625 2.203125 -2.039062 2.234375 -2.09375 C 2.265625 -2.144531 2.28125 -2.207031 2.28125 -2.28125 L 2.28125 -2.5625 C 2.28125 -2.625 2.265625 -2.679688 2.234375 -2.734375 C 2.203125 -2.785156 2.132812 -2.8125 2.03125 -2.8125 Z M 1.546875 -2.8125 "/></g></g></g><g fill="#00ffff" fill-opacity="1"><g transform="translate(16.417377, 31.932229)"><g><path d="M 1.75 -2.6875 L 1.5 -1.890625 L 2.328125 -1.890625 L 2.078125 -2.6875 C 2.054688 -2.71875 2.035156 -2.738281 2.015625 -2.75 C 2.003906 -2.769531 1.988281 -2.78125 1.96875 -2.78125 L 1.84375 -2.78125 C 1.820312 -2.78125 1.800781 -2.769531 1.78125 -2.75 C 1.769531 -2.738281 1.757812 -2.71875 1.75 -2.6875 Z M 1.4375 -0.1875 C 1.4375 -0.125 1.421875 -0.078125 1.390625 -0.046875 C 1.367188 -0.015625 1.320312 0 1.25 0 L 0.46875 0 C 0.40625 0 0.359375 -0.015625 0.328125 -0.046875 C 0.296875 -0.078125 0.28125 -0.125 0.28125 -0.1875 L 0.28125 -1.578125 C 0.28125 -1.691406 0.296875 -1.816406 0.328125 -1.953125 C 0.367188 -2.085938 0.421875 -2.242188 0.484375 -2.421875 L 0.953125 -3.625 C 0.972656 -3.6875 1.003906 -3.726562 1.046875 -3.75 C 1.085938 -3.78125 1.144531 -3.796875 1.21875 -3.796875 L 2.640625 -3.796875 C 2.703125 -3.796875 2.753906 -3.78125 2.796875 -3.75 C 2.847656 -3.726562 2.882812 -3.6875 2.90625 -3.625 L 3.359375 -2.421875 C 3.429688 -2.242188 3.484375 -2.085938 3.515625 -1.953125 C 3.546875 -1.816406 3.5625 -1.691406 3.5625 -1.578125 L 3.5625 -0.1875 C 3.5625 -0.125 3.546875 -0.078125 3.515625 -0.046875 C 3.492188 -0.015625 3.445312 0 3.375 0 L 2.578125 0 C 2.515625 0 2.460938 -0.015625 2.421875 -0.046875 C 2.390625 -0.078125 2.375 -0.125 2.375 -0.1875 L 2.375 -0.921875 L 1.4375 -0.921875 Z M 1.4375 -0.1875 "/></g></g></g><g fill="#00ffff" fill-opacity="1"><g transform="translate(20.272369, 31.932229)"><g><path d="M 3.265625 0 L 1.609375 0 C 1.171875 0 0.84375 -0.0859375 0.625 -0.265625 C 0.414062 -0.441406 0.3125 -0.710938 0.3125 -1.078125 L 0.3125 -2.71875 C 0.3125 -3.09375 0.414062 -3.363281 0.625 -3.53125 C 0.84375 -3.707031 1.171875 -3.796875 1.609375 -3.796875 L 2.921875 -3.796875 C 2.992188 -3.796875 3.039062 -3.78125 3.0625 -3.75 C 3.09375 -3.726562 3.109375 -3.679688 3.109375 -3.609375 L 3.109375 -2.96875 C 3.109375 -2.90625 3.09375 -2.859375 3.0625 -2.828125 C 3.039062 -2.796875 2.992188 -2.78125 2.921875 -2.78125 L 1.828125 -2.78125 C 1.710938 -2.78125 1.628906 -2.757812 1.578125 -2.71875 C 1.523438 -2.675781 1.5 -2.609375 1.5 -2.515625 L 1.5 -1.25 C 1.5 -1.164062 1.519531 -1.101562 1.5625 -1.0625 C 1.601562 -1.019531 1.664062 -1 1.75 -1 L 2.265625 -1 L 2.265625 -1.828125 C 2.265625 -1.890625 2.273438 -1.9375 2.296875 -1.96875 C 2.328125 -2 2.378906 -2.015625 2.453125 -2.015625 L 3.265625 -2.015625 C 3.335938 -2.015625 3.382812 -2 3.40625 -1.96875 C 3.4375 -1.9375 3.453125 -1.890625 3.453125 -1.828125 L 3.453125 -0.1875 C 3.453125 -0.125 3.4375 -0.078125 3.40625 -0.046875 C 3.382812 -0.015625 3.335938 0 3.265625 0 Z M 3.265625 0 "/></g></g></g><g fill="#00ffff" fill-opacity="1"><g transform="translate(24.011184, 31.932229)"><g><path d="M 3 0 L 0.546875 0 C 0.484375 0 0.4375 -0.015625 0.40625 -0.046875 C 0.375 -0.078125 0.359375 -0.125 0.359375 -0.1875 L 0.359375 -3.609375 C 0.359375 -3.679688 0.375 -3.726562 0.40625 -3.75 C 0.4375 -3.78125 0.484375 -3.796875 0.546875 -3.796875 L 3 -3.796875 C 3.070312 -3.796875 3.117188 -3.78125 3.140625 -3.75 C 3.171875 -3.726562 3.1875 -3.679688 3.1875 -3.609375 L 3.1875 -3 C 3.1875 -2.925781 3.171875 -2.875 3.140625 -2.84375 C 3.117188 -2.8125 3.070312 -2.796875 3 -2.796875 L 1.546875 -2.796875 L 1.546875 -2.390625 L 2.578125 -2.390625 C 2.640625 -2.390625 2.6875 -2.375 2.71875 -2.34375 C 2.75 -2.320312 2.765625 -2.273438 2.765625 -2.203125 L 2.765625 -1.640625 C 2.765625 -1.578125 2.75 -1.53125 2.71875 -1.5 C 2.6875 -1.46875 2.640625 -1.453125 2.578125 -1.453125 L 1.546875 -1.453125 L 1.546875 -1 L 3 -1 C 3.070312 -1 3.117188 -0.984375 3.140625 -0.953125 C 3.171875 -0.921875 3.1875 -0.875 3.1875 -0.8125 L 3.1875 -0.1875 C 3.1875 -0.125 3.171875 -0.078125 3.140625 -0.046875 C 3.117188 -0.015625 3.070312 0 3 0 Z M 3 0 "/></g></g></g><g clip-path="url(#85b3921abe)"><g fill="#14b5a2" fill-opacity="1"><g transform="translate(12.678274, 32.060534)"><g><path d="M 1.375 0 L 0.546875 0 C 0.484375 0 0.4375 -0.015625 0.40625 -0.046875 C 0.375 -0.078125 0.359375 -0.125 0.359375 -0.1875 L 0.359375 -3.609375 C 0.359375 -3.679688 0.375 -3.726562 0.40625 -3.75 C 0.4375 -3.78125 0.484375 -3.796875 0.546875 -3.796875 L 2.171875 -3.796875 C 2.648438 -3.796875 2.976562 -3.703125 3.15625 -3.515625 C 3.332031 -3.328125 3.421875 -3.078125 3.421875 -2.765625 L 3.421875 -2.09375 C 3.421875 -1.789062 3.332031 -1.539062 3.15625 -1.34375 C 2.976562 -1.15625 2.648438 -1.0625 2.171875 -1.0625 L 1.5625 -1.0625 L 1.5625 -0.1875 C 1.5625 -0.125 1.546875 -0.078125 1.515625 -0.046875 C 1.484375 -0.015625 1.4375 0 1.375 0 Z M 1.546875 -2.8125 L 1.546875 -2.015625 L 2.03125 -2.015625 C 2.132812 -2.015625 2.203125 -2.039062 2.234375 -2.09375 C 2.265625 -2.144531 2.28125 -2.207031 2.28125 -2.28125 L 2.28125 -2.5625 C 2.28125 -2.625 2.265625 -2.679688 2.234375 -2.734375 C 2.203125 -2.785156 2.132812 -2.8125 2.03125 -2.8125 Z M 1.546875 -2.8125 "/></g></g></g></g><g clip-path="url(#3324ae8224)"><g fill="#14b5a2" fill-opacity="1"><g transform="translate(16.279787, 32.060534)"><g><path d="M 1.75 -2.6875 L 1.5 -1.890625 L 2.328125 -1.890625 L 2.078125 -2.6875 C 2.054688 -2.71875 2.035156 -2.738281 2.015625 -2.75 C 2.003906 -2.769531 1.988281 -2.78125 1.96875 -2.78125 L 1.84375 -2.78125 C 1.820312 -2.78125 1.800781 -2.769531 1.78125 -2.75 C 1.769531 -2.738281 1.757812 -2.71875 1.75 -2.6875 Z M 1.4375 -0.1875 C 1.4375 -0.125 1.421875 -0.078125 1.390625 -0.046875 C 1.367188 -0.015625 1.320312 0 1.25 0 L 0.46875 0 C 0.40625 0 0.359375 -0.015625 0.328125 -0.046875 C 0.296875 -0.078125 0.28125 -0.125 0.28125 -0.1875 L 0.28125 -1.578125 C 0.28125 -1.691406 0.296875 -1.816406 0.328125 -1.953125 C 0.367188 -2.085938 0.421875 -2.242188 0.484375 -2.421875 L 0.953125 -3.625 C 0.972656 -3.6875 1.003906 -3.726562 1.046875 -3.75 C 1.085938 -3.78125 1.144531 -3.796875 1.21875 -3.796875 L 2.640625 -3.796875 C 2.703125 -3.796875 2.753906 -3.78125 2.796875 -3.75 C 2.847656 -3.726562 2.882812 -3.6875 2.90625 -3.625 L 3.359375 -2.421875 C 3.429688 -2.242188 3.484375 -2.085938 3.515625 -1.953125 C 3.546875 -1.816406 3.5625 -1.691406 3.5625 -1.578125 L 3.5625 -0.1875 C 3.5625 -0.125 3.546875 -0.078125 3.515625 -0.046875 C 3.492188 -0.015625 3.445312 0 3.375 0 L 2.578125 0 C 2.515625 0 2.460938 -0.015625 2.421875 -0.046875 C 2.390625 -0.078125 2.375 -0.125 2.375 -0.1875 L 2.375 -0.921875 L 1.4375 -0.921875 Z M 1.4375 -0.1875 "/></g></g></g></g><g clip-path="url(#4c8937f1a1)"><g fill="#14b5a2" fill-opacity="1"><g transform="translate(20.134779, 32.060534)"><g><path d="M 3.265625 0 L 1.609375 0 C 1.171875 0 0.84375 -0.0859375 0.625 -0.265625 C 0.414062 -0.441406 0.3125 -0.710938 0.3125 -1.078125 L 0.3125 -2.71875 C 0.3125 -3.09375 0.414062 -3.363281 0.625 -3.53125 C 0.84375 -3.707031 1.171875 -3.796875 1.609375 -3.796875 L 2.921875 -3.796875 C 2.992188 -3.796875 3.039062 -3.78125 3.0625 -3.75 C 3.09375 -3.726562 3.109375 -3.679688 3.109375 -3.609375 L 3.109375 -2.96875 C 3.109375 -2.90625 3.09375 -2.859375 3.0625 -2.828125 C 3.039062 -2.796875 2.992188 -2.78125 2.921875 -2.78125 L 1.828125 -2.78125 C 1.710938 -2.78125 1.628906 -2.757812 1.578125 -2.71875 C 1.523438 -2.675781 1.5 -2.609375 1.5 -2.515625 L 1.5 -1.25 C 1.5 -1.164062 1.519531 -1.101562 1.5625 -1.0625 C 1.601562 -1.019531 1.664062 -1 1.75 -1 L 2.265625 -1 L 2.265625 -1.828125 C 2.265625 -1.890625 2.273438 -1.9375 2.296875 -1.96875 C 2.328125 -2 2.378906 -2.015625 2.453125 -2.015625 L 3.265625 -2.015625 C 3.335938 -2.015625 3.382812 -2 3.40625 -1.96875 C 3.4375 -1.9375 3.453125 -1.890625 3.453125 -1.828125 L 3.453125 -0.1875 C 3.453125 -0.125 3.4375 -0.078125 3.40625 -0.046875 C 3.382812 -0.015625 3.335938 0 3.265625 0 Z M 3.265625 0 "/></g></g></g></g><g clip-path="url(#f416e7c6ea)"><g fill="#14b5a2" fill-opacity="1"><g transform="translate(23.873593, 32.060534)"><g><path d="M 3 0 L 0.546875 0 C 0.484375 0 0.4375 -0.015625 0.40625 -0.046875 C 0.375 -0.078125 0.359375 -0.125 0.359375 -0.1875 L 0.359375 -3.609375 C 0.359375 -3.679688 0.375 -3.726562 0.40625 -3.75 C 0.4375 -3.78125 0.484375 -3.796875 0.546875 -3.796875 L 3 -3.796875 C 3.070312 -3.796875 3.117188 -3.78125 3.140625 -3.75 C 3.171875 -3.726562 3.1875 -3.679688 3.1875 -3.609375 L 3.1875 -3 C 3.1875 -2.925781 3.171875 -2.875 3.140625 -2.84375 C 3.117188 -2.8125 3.070312 -2.796875 3 -2.796875 L 1.546875 -2.796875 L 1.546875 -2.390625 L 2.578125 -2.390625 C 2.640625 -2.390625 2.6875 -2.375 2.71875 -2.34375 C 2.75 -2.320312 2.765625 -2.273438 2.765625 -2.203125 L 2.765625 -1.640625 C 2.765625 -1.578125 2.75 -1.53125 2.71875 -1.5 C 2.6875 -1.46875 2.640625 -1.453125 2.578125 -1.453125 L 1.546875 -1.453125 L 1.546875 -1 L 3 -1 C 3.070312 -1 3.117188 -0.984375 3.140625 -0.953125 C 3.171875 -0.921875 3.1875 -0.875 3.1875 -0.8125 L 3.1875 -0.1875 C 3.1875 -0.125 3.171875 -0.078125 3.140625 -0.046875 C 3.117188 -0.015625 3.070312 0 3 0 Z M 3 0 "/></g></g></g></g></svg>