<svg xmlns="http://www.w3.org/2000/svg" xmlns:xlink="http://www.w3.org/1999/xlink" width="54" zoomAndPan="magnify" viewBox="0 0 40.5 32.999998" height="44" preserveAspectRatio="xMidYMid meet" version="1.0"><defs><g/><clipPath id="id1"><path d="M 4.265625 4.320312 L 24.515625 4.320312 L 24.515625 20.820312 L 4.265625 20.820312 Z M 4.265625 4.320312 " clip-rule="nonzero"/></clipPath><clipPath id="id2"><path d="M 21 0.203125 L 36 0.203125 L 36 18 L 21 18 Z M 21 0.203125 " clip-rule="nonzero"/></clipPath><clipPath id="id3"><path d="M 18.863281 14 L 26 14 L 26 21.953125 L 18.863281 21.953125 Z M 18.863281 14 " clip-rule="nonzero"/></clipPath><clipPath id="id4"><path d="M 30 15 L 36.863281 15 L 36.863281 21.953125 L 30 21.953125 Z M 30 15 " clip-rule="nonzero"/></clipPath><clipPath id="id5"><path d="M 25 19 L 31 19 L 31 21.953125 L 25 21.953125 Z M 25 19 " clip-rule="nonzero"/></clipPath><clipPath id="id6"><path d="M 13 28 L 17 28 L 17 32.796875 L 13 32.796875 Z M 13 28 " clip-rule="nonzero"/></clipPath><clipPath id="id7"><path d="M 16 28 L 20 28 L 20 32.796875 L 16 32.796875 Z M 16 28 " clip-rule="nonzero"/></clipPath><clipPath id="id8"><path d="M 20 28 L 24 28 L 24 32.796875 L 20 32.796875 Z M 20 28 " clip-rule="nonzero"/></clipPath><clipPath id="id9"><path d="M 24 28 L 28 28 L 28 32.796875 L 24 32.796875 Z M 24 28 " clip-rule="nonzero"/></clipPath><clipPath id="id10"><path d="M 13 28 L 17 28 L 17 32.796875 L 13 32.796875 Z M 13 28 " clip-rule="nonzero"/></clipPath><clipPath id="id11"><path d="M 16 28 L 21 28 L 21 32.796875 L 16 32.796875 Z M 16 28 " clip-rule="nonzero"/></clipPath><clipPath id="id12"><path d="M 20 28 L 25 28 L 25 32.796875 L 20 32.796875 Z M 20 28 " clip-rule="nonzero"/></clipPath><clipPath id="id13"><path d="M 24 28 L 28 28 L 28 32.796875 L 24 32.796875 Z M 24 28 " clip-rule="nonzero"/></clipPath><clipPath id="id14"><path d="M 13 28 L 17 28 L 17 32.796875 L 13 32.796875 Z M 13 28 " clip-rule="nonzero"/></clipPath><clipPath id="id15"><path d="M 16 28 L 21 28 L 21 32.796875 L 16 32.796875 Z M 16 28 " clip-rule="nonzero"/></clipPath><clipPath id="id16"><path d="M 20 28 L 24 28 L 24 32.796875 L 20 32.796875 Z M 20 28 " clip-rule="nonzero"/></clipPath><clipPath id="id17"><path d="M 24 28 L 28 28 L 28 32.796875 L 24 32.796875 Z M 24 28 " clip-rule="nonzero"/></clipPath></defs><g clip-path="url(#id1)"><path fill="#000000" d="M 4.675781 4.320312 L 24.105469 4.320312 C 24.214844 4.320312 24.304688 4.359375 24.382812 4.4375 C 24.460938 4.511719 24.5 4.605469 24.5 4.714844 L 24.5 20.429688 C 24.5 20.539062 24.460938 20.632812 24.382812 20.707031 C 24.304688 20.785156 24.214844 20.824219 24.105469 20.824219 L 4.675781 20.824219 C 4.566406 20.824219 4.472656 20.785156 4.394531 20.707031 C 4.320312 20.632812 4.28125 20.539062 4.28125 20.429688 L 4.28125 4.714844 C 4.28125 4.605469 4.320312 4.511719 4.394531 4.4375 C 4.472656 4.359375 4.566406 4.320312 4.675781 4.320312 Z M 4.675781 4.320312 " fill-opacity="1" fill-rule="nonzero"/></g><path fill="#ffffff" d="M 6.511719 6.039062 C 6.445312 5.96875 6.363281 5.9375 6.265625 5.9375 C 6.171875 5.9375 6.089844 5.96875 6.019531 6.039062 C 5.953125 6.105469 5.917969 6.1875 5.917969 6.28125 C 5.917969 6.378906 5.953125 6.460938 6.019531 6.527344 L 7.082031 7.585938 L 6.023438 8.644531 C 5.953125 8.714844 5.917969 8.792969 5.917969 8.890625 C 5.917969 8.984375 5.953125 9.066406 6.019531 9.132812 C 6.089844 9.203125 6.171875 9.234375 6.265625 9.238281 C 6.363281 9.238281 6.445312 9.203125 6.511719 9.132812 L 7.691406 7.957031 C 7.9375 7.710938 7.9375 7.460938 7.691406 7.214844 Z M 11.136719 8.648438 C 11.066406 8.578125 10.984375 8.542969 10.886719 8.542969 L 8.609375 8.542969 C 8.511719 8.542969 8.429688 8.578125 8.363281 8.648438 C 8.296875 8.714844 8.261719 8.796875 8.261719 8.894531 C 8.261719 8.988281 8.296875 9.070312 8.363281 9.140625 C 8.429688 9.207031 8.511719 9.242188 8.609375 9.242188 L 10.886719 9.242188 C 10.984375 9.242188 11.066406 9.207031 11.136719 9.140625 C 11.203125 9.070312 11.238281 8.988281 11.238281 8.894531 C 11.238281 8.796875 11.203125 8.714844 11.136719 8.648438 Z M 11.136719 8.648438 " fill-opacity="1" fill-rule="nonzero"/><g clip-path="url(#id2)"><path fill="#252322" d="M 21.625 14.710938 C 21.855469 13.300781 22.378906 11.984375 22.882812 10.660156 C 23.199219 9.835938 23.625 9.0625 24.015625 8.277344 C 24.46875 7.359375 24.742188 6.414062 24.730469 5.375 C 24.71875 4.363281 24.804688 3.355469 25.09375 2.382812 C 25.140625 2.21875 25.199219 2.0625 25.261719 1.90625 C 25.691406 0.839844 26.496094 0.335938 27.625 0.285156 C 28.433594 0.25 29.164062 0.457031 29.808594 0.933594 C 30.277344 1.277344 30.59375 1.753906 30.828125 2.289062 C 31.113281 2.941406 31.289062 3.628906 31.332031 4.335938 C 31.378906 5.058594 31.464844 5.785156 31.429688 6.515625 C 31.410156 6.90625 31.5625 7.253906 31.765625 7.578125 C 32.09375 8.109375 32.5 8.582031 32.882812 9.070312 C 33.570312 9.953125 34.183594 10.875 34.558594 11.9375 C 34.929688 13.003906 35.042969 14.105469 35.007812 15.226562 C 34.917969 15.425781 34.929688 15.640625 34.914062 15.851562 C 34.859375 16.5625 34.367188 17.160156 33.671875 17.304688 C 33.34375 17.375 33.003906 17.351562 32.671875 17.335938 C 32.15625 17.316406 31.820312 17.03125 31.613281 16.578125 C 31.429688 16.1875 31.417969 15.765625 31.410156 15.347656 C 31.445312 14.609375 31.390625 13.878906 31.316406 13.148438 C 31.207031 12.074219 30.957031 11.035156 30.621094 10.011719 C 30.316406 9.082031 29.929688 8.183594 29.503906 7.304688 C 29.570312 7.246094 29.644531 7.1875 29.714844 7.132812 C 30.167969 6.761719 30.214844 6.390625 29.863281 5.914062 C 29.710938 5.707031 29.503906 5.570312 29.304688 5.414062 C 29.722656 4.804688 29.746094 4.164062 29.449219 3.503906 C 29.308594 3.1875 29.054688 3.019531 28.695312 3.015625 C 28.351562 3.011719 28.058594 3.359375 27.941406 3.722656 C 27.820312 4.097656 27.828125 4.480469 27.90625 4.863281 C 27.578125 4.765625 27.246094 4.734375 26.910156 4.820312 C 27 4.339844 26.988281 3.871094 26.734375 3.441406 C 26.398438 2.863281 25.730469 2.867188 25.386719 3.433594 C 25.042969 4.003906 25.105469 4.902344 25.523438 5.425781 C 25.304688 5.613281 25.074219 5.78125 24.910156 6.023438 C 24.644531 6.417969 24.640625 6.738281 24.925781 7.121094 C 25.039062 7.273438 25.171875 7.40625 25.292969 7.546875 C 25.054688 8.167969 24.773438 8.769531 24.464844 9.355469 C 23.96875 10.296875 23.574219 11.285156 23.21875 12.289062 C 22.933594 13.097656 22.652344 13.914062 22.519531 14.765625 C 22.226562 14.628906 21.929688 14.597656 21.625 14.710938 " fill-opacity="1" fill-rule="nonzero"/></g><g clip-path="url(#id3)"><path fill="#eca210" d="M 20.851562 16.105469 C 20.925781 15.855469 20.949219 15.589844 21.074219 15.351562 C 21.21875 15.332031 21.238281 15.175781 21.339844 15.101562 C 21.863281 14.722656 22.484375 14.816406 22.863281 15.347656 C 23.214844 15.839844 23.46875 16.386719 23.730469 16.925781 C 23.988281 17.457031 24.300781 17.9375 24.8125 18.25 C 24.992188 18.355469 25.085938 18.570312 25.300781 18.628906 L 25.296875 18.628906 C 25.292969 18.695312 25.292969 18.757812 25.382812 18.753906 C 25.394531 18.769531 25.40625 18.785156 25.417969 18.800781 L 25.421875 18.800781 C 25.429688 18.816406 25.441406 18.828125 25.453125 18.84375 C 25.679688 19.1875 25.804688 19.570312 25.882812 19.972656 C 25.925781 20.460938 25.875 20.9375 25.632812 21.375 C 25.226562 21.875 24.703125 21.894531 24.132812 21.765625 C 23.5625 21.640625 23.03125 21.402344 22.519531 21.144531 C 22.105469 20.9375 21.683594 20.902344 21.246094 20.863281 C 20.730469 20.816406 20.222656 20.75 19.734375 20.5625 C 19.566406 20.5 19.402344 20.417969 19.261719 20.300781 C 18.964844 20.054688 18.851562 19.75 18.953125 19.367188 C 19.09375 18.839844 19.058594 18.316406 18.953125 17.785156 C 18.898438 17.511719 18.855469 17.21875 19.011719 16.949219 C 19.179688 16.898438 19.289062 16.757812 19.453125 16.691406 C 19.800781 16.546875 20.167969 16.480469 20.53125 16.414062 C 20.726562 16.378906 20.832031 16.300781 20.851562 16.105469 " fill-opacity="1" fill-rule="nonzero"/></g><g clip-path="url(#id4)"><path fill="#eca210" d="M 31.410156 15.347656 C 31.417969 15.765625 31.429688 16.1875 31.613281 16.578125 C 31.820312 17.03125 32.15625 17.316406 32.671875 17.335938 C 33.003906 17.351562 33.34375 17.375 33.671875 17.304688 C 34.367188 17.160156 34.859375 16.5625 34.914062 15.851562 C 34.929688 15.640625 34.917969 15.425781 35.007812 15.226562 C 35.230469 15.398438 35.328125 15.628906 35.320312 15.90625 C 35.308594 16.164062 35.296875 16.421875 35.269531 16.679688 C 35.242188 16.957031 35.378906 17.117188 35.597656 17.253906 C 35.902344 17.445312 36.214844 17.632812 36.46875 17.902344 C 36.628906 18.078125 36.742188 18.273438 36.777344 18.511719 C 36.84375 18.917969 36.6875 19.21875 36.347656 19.4375 C 36.015625 19.652344 35.644531 19.773438 35.273438 19.898438 C 34.824219 20.058594 34.4375 20.296875 34.125 20.667969 C 33.882812 20.957031 33.609375 21.21875 33.289062 21.429688 C 32.785156 21.765625 32.226562 21.886719 31.636719 21.820312 C 31.101562 21.761719 30.738281 21.464844 30.570312 20.945312 C 30.476562 20.613281 30.472656 20.273438 30.503906 19.941406 C 30.53125 19.699219 30.539062 19.460938 30.535156 19.21875 C 30.574219 19.097656 30.566406 18.96875 30.574219 18.84375 C 30.640625 17.992188 30.71875 17.144531 30.953125 16.320312 C 31.050781 15.972656 31.15625 15.621094 31.410156 15.347656 " fill-opacity="1" fill-rule="nonzero"/></g><g clip-path="url(#id5)"><path fill="#252322" d="M 30.535156 19.21875 C 30.539062 19.460938 30.53125 19.699219 30.503906 19.941406 C 30.472656 20.273438 30.476562 20.613281 30.570312 20.945312 C 29.648438 20.945312 28.730469 20.933594 27.808594 20.945312 C 27.058594 20.957031 26.332031 21.09375 25.632812 21.375 C 25.875 20.9375 25.925781 20.460938 25.882812 19.972656 C 26.613281 20.039062 27.34375 20.046875 28.074219 19.957031 C 28.9375 19.851562 29.761719 19.617188 30.535156 19.21875 " fill-opacity="1" fill-rule="nonzero"/></g><path fill="#f3c447" d="M 25.300781 18.628906 C 25.085938 18.570312 24.992188 18.355469 24.8125 18.25 C 24.300781 17.9375 23.988281 17.457031 23.730469 16.925781 C 23.46875 16.386719 23.214844 15.839844 22.863281 15.347656 C 22.484375 14.816406 21.863281 14.722656 21.339844 15.101562 C 21.238281 15.175781 21.21875 15.332031 21.074219 15.351562 C 21.152344 15.050781 21.359375 14.855469 21.625 14.710938 C 21.929688 14.597656 22.226562 14.628906 22.519531 14.765625 C 22.863281 15.058594 23.085938 15.4375 23.277344 15.835938 C 23.449219 16.1875 23.617188 16.539062 23.796875 16.886719 C 24.019531 17.320312 24.289062 17.710938 24.703125 17.992188 C 24.941406 18.15625 25.160156 18.363281 25.300781 18.628906 " fill-opacity="1" fill-rule="nonzero"/><path fill="#f3c447" d="M 20.851562 16.105469 C 20.832031 16.300781 20.726562 16.378906 20.53125 16.414062 C 20.167969 16.480469 19.800781 16.546875 19.453125 16.691406 C 19.289062 16.757812 19.179688 16.898438 19.011719 16.949219 C 19.160156 16.601562 19.476562 16.464844 19.804688 16.367188 C 20.148438 16.265625 20.5 16.191406 20.851562 16.105469 " fill-opacity="1" fill-rule="nonzero"/><path fill="#ffffff" d="M 25.300781 18.628906 C 25.160156 18.363281 24.941406 18.15625 24.703125 17.992188 C 24.289062 17.710938 24.019531 17.320312 23.796875 16.886719 C 23.617188 16.539062 23.449219 16.1875 23.277344 15.835938 C 23.085938 15.4375 22.863281 15.058594 22.519531 14.765625 C 22.652344 13.914062 22.933594 13.097656 23.21875 12.289062 C 23.574219 11.285156 23.96875 10.296875 24.464844 9.355469 C 24.773438 8.769531 25.054688 8.167969 25.292969 7.546875 C 25.339844 7.578125 25.386719 7.605469 25.429688 7.640625 C 25.765625 7.90625 26.132812 8.113281 26.53125 8.273438 C 26.777344 8.375 27.019531 8.382812 27.28125 8.296875 C 28.058594 8.042969 28.800781 7.726562 29.503906 7.304688 C 29.929688 8.183594 30.316406 9.082031 30.621094 10.011719 C 30.957031 11.035156 31.207031 12.074219 31.316406 13.148438 C 31.390625 13.878906 31.445312 14.609375 31.410156 15.347656 C 31.15625 15.621094 31.050781 15.972656 30.953125 16.320312 C 30.71875 17.144531 30.640625 17.992188 30.574219 18.84375 C 30.566406 18.96875 30.574219 19.097656 30.535156 19.21875 C 29.761719 19.617188 28.9375 19.851562 28.074219 19.957031 C 27.34375 20.046875 26.613281 20.039062 25.882812 19.972656 C 25.804688 19.570312 25.679688 19.1875 25.453125 18.84375 C 25.441406 18.828125 25.429688 18.816406 25.421875 18.800781 L 25.417969 18.800781 C 25.40625 18.785156 25.394531 18.769531 25.382812 18.753906 C 25.378906 18.695312 25.351562 18.652344 25.296875 18.628906 L 25.300781 18.628906 " fill-opacity="1" fill-rule="nonzero"/><path fill="#eca210" d="M 29.503906 7.304688 C 28.800781 7.726562 28.058594 8.042969 27.28125 8.296875 C 27.019531 8.382812 26.777344 8.375 26.53125 8.273438 C 26.132812 8.113281 25.765625 7.90625 25.429688 7.640625 C 25.386719 7.605469 25.339844 7.578125 25.292969 7.546875 C 25.171875 7.40625 25.039062 7.273438 24.925781 7.121094 C 24.640625 6.738281 24.644531 6.417969 24.910156 6.023438 C 25.074219 5.78125 25.304688 5.613281 25.523438 5.425781 C 25.625 5.382812 25.71875 5.328125 25.804688 5.25 C 26.015625 5.152344 26.222656 5.054688 26.433594 4.953125 C 26.59375 4.910156 26.75 4.863281 26.910156 4.820312 C 27.246094 4.734375 27.578125 4.765625 27.90625 4.863281 C 28.058594 4.90625 28.210938 4.949219 28.367188 4.992188 C 28.585938 5.078125 28.800781 5.164062 29.019531 5.25 C 29.085938 5.355469 29.203125 5.371094 29.304688 5.414062 C 29.503906 5.570312 29.710938 5.707031 29.863281 5.914062 C 30.214844 6.390625 30.167969 6.761719 29.714844 7.132812 C 29.644531 7.1875 29.570312 7.246094 29.503906 7.304688 " fill-opacity="1" fill-rule="nonzero"/><path fill="#ffffff" d="M 29.304688 5.414062 C 29.203125 5.371094 29.085938 5.355469 29.019531 5.25 C 29.1875 4.914062 29.191406 4.566406 29.074219 4.210938 C 29.019531 4.050781 28.941406 3.878906 28.75 3.875 C 28.542969 3.875 28.464844 4.058594 28.40625 4.222656 C 28.316406 4.476562 28.332031 4.734375 28.367188 4.992188 C 28.210938 4.949219 28.058594 4.90625 27.90625 4.863281 C 27.828125 4.480469 27.820312 4.097656 27.941406 3.722656 C 28.058594 3.359375 28.351562 3.011719 28.695312 3.015625 C 29.054688 3.019531 29.308594 3.1875 29.449219 3.503906 C 29.746094 4.164062 29.722656 4.804688 29.304688 5.414062 " fill-opacity="1" fill-rule="nonzero"/><path fill="#ffffff" d="M 25.804688 5.25 C 25.71875 5.328125 25.625 5.382812 25.523438 5.425781 C 25.105469 4.902344 25.042969 4.003906 25.386719 3.433594 C 25.730469 2.867188 26.398438 2.863281 26.734375 3.441406 C 26.988281 3.871094 27 4.339844 26.910156 4.820312 C 26.75 4.863281 26.59375 4.910156 26.433594 4.953125 C 26.488281 4.675781 26.476562 4.398438 26.359375 4.132812 C 26.300781 4 26.222656 3.875 26.0625 3.875 C 25.902344 3.875 25.816406 4.003906 25.765625 4.136719 C 25.617188 4.511719 25.621094 4.886719 25.804688 5.25 " fill-opacity="1" fill-rule="nonzero"/><path fill="#f3c447" d="M 25.296875 18.628906 C 25.351562 18.652344 25.378906 18.695312 25.382812 18.753906 C 25.292969 18.757812 25.292969 18.695312 25.296875 18.628906 " fill-opacity="1" fill-rule="nonzero"/><path fill="#f3c447" d="M 25.382812 18.753906 C 25.394531 18.769531 25.40625 18.785156 25.417969 18.800781 C 25.40625 18.785156 25.394531 18.769531 25.382812 18.753906 " fill-opacity="1" fill-rule="nonzero"/><path fill="#f3c447" d="M 25.421875 18.800781 C 25.429688 18.816406 25.441406 18.828125 25.453125 18.84375 C 25.441406 18.828125 25.429688 18.816406 25.421875 18.800781 " fill-opacity="1" fill-rule="nonzero"/><path fill="#252322" d="M 28.367188 4.992188 C 28.332031 4.734375 28.316406 4.476562 28.40625 4.222656 C 28.464844 4.058594 28.542969 3.875 28.75 3.875 C 28.941406 3.878906 29.019531 4.050781 29.074219 4.210938 C 29.191406 4.566406 29.1875 4.914062 29.019531 5.25 C 28.800781 5.164062 28.585938 5.078125 28.367188 4.992188 " fill-opacity="1" fill-rule="nonzero"/><path fill="#252322" d="M 25.804688 5.25 C 25.621094 4.886719 25.617188 4.511719 25.765625 4.136719 C 25.816406 4.003906 25.902344 3.875 26.0625 3.875 C 26.222656 3.875 26.300781 4 26.359375 4.132812 C 26.476562 4.398438 26.488281 4.675781 26.433594 4.953125 C 26.222656 5.054688 26.015625 5.152344 25.804688 5.25 " fill-opacity="1" fill-rule="nonzero"/><g fill="#ff00ff" fill-opacity="1"><g transform="translate(3.198709, 28.590673)"><g><path d="M 5.828125 0 L 1 0 C 0.875 0 0.785156 -0.0234375 0.734375 -0.078125 C 0.679688 -0.128906 0.65625 -0.21875 0.65625 -0.34375 L 0.65625 -6.5 C 0.65625 -6.613281 0.679688 -6.695312 0.734375 -6.75 C 0.785156 -6.8125 0.875 -6.84375 1 -6.84375 L 2.46875 -6.84375 C 2.59375 -6.84375 2.679688 -6.8125 2.734375 -6.75 C 2.785156 -6.695312 2.8125 -6.613281 2.8125 -6.5 L 2.8125 -1.796875 L 4.109375 -1.796875 L 4.109375 -3.328125 C 4.109375 -3.453125 4.132812 -3.539062 4.1875 -3.59375 C 4.25 -3.644531 4.335938 -3.671875 4.453125 -3.671875 L 5.828125 -3.671875 C 5.953125 -3.671875 6.039062 -3.644531 6.09375 -3.59375 C 6.144531 -3.539062 6.171875 -3.453125 6.171875 -3.328125 L 6.171875 -0.34375 C 6.171875 -0.21875 6.144531 -0.128906 6.09375 -0.078125 C 6.039062 -0.0234375 5.953125 0 5.828125 0 Z M 5.828125 0 "/></g></g></g><g fill="#ff00ff" fill-opacity="1"><g transform="translate(9.803991, 28.590673)"><g><path d="M 0.84375 0 C 0.726562 0 0.640625 -0.0234375 0.578125 -0.078125 C 0.523438 -0.128906 0.5 -0.21875 0.5 -0.34375 L 0.5 -1.46875 C 0.5 -1.59375 0.523438 -1.679688 0.578125 -1.734375 C 0.640625 -1.785156 0.726562 -1.8125 0.84375 -1.8125 L 1.78125 -1.8125 L 1.78125 -5 L 0.84375 -5 C 0.726562 -5 0.640625 -5.023438 0.578125 -5.078125 C 0.523438 -5.140625 0.5 -5.226562 0.5 -5.34375 L 0.5 -6.5 C 0.5 -6.613281 0.523438 -6.695312 0.578125 -6.75 C 0.640625 -6.8125 0.726562 -6.84375 0.84375 -6.84375 L 4.890625 -6.84375 C 5.015625 -6.84375 5.101562 -6.8125 5.15625 -6.75 C 5.207031 -6.695312 5.234375 -6.613281 5.234375 -6.5 L 5.234375 -5.34375 C 5.234375 -5.226562 5.207031 -5.140625 5.15625 -5.078125 C 5.101562 -5.023438 5.015625 -5 4.890625 -5 L 3.96875 -5 L 3.96875 -1.8125 L 4.890625 -1.8125 C 5.015625 -1.8125 5.101562 -1.785156 5.15625 -1.734375 C 5.207031 -1.679688 5.234375 -1.59375 5.234375 -1.46875 L 5.234375 -0.34375 C 5.234375 -0.21875 5.207031 -0.128906 5.15625 -0.078125 C 5.101562 -0.0234375 5.015625 0 4.890625 0 Z M 0.84375 0 "/></g></g></g><g fill="#ff00ff" fill-opacity="1"><g transform="translate(15.553913, 28.590673)"><g><path d="M 2.421875 0 L 1 0 C 0.875 0 0.785156 -0.0234375 0.734375 -0.078125 C 0.679688 -0.128906 0.65625 -0.21875 0.65625 -0.34375 L 0.65625 -6.5 C 0.65625 -6.613281 0.679688 -6.695312 0.734375 -6.75 C 0.785156 -6.8125 0.875 -6.84375 1 -6.84375 L 1.984375 -6.84375 C 2.109375 -6.84375 2.210938 -6.820312 2.296875 -6.78125 C 2.378906 -6.738281 2.460938 -6.671875 2.546875 -6.578125 L 4.390625 -4.46875 L 4.390625 -6.5 C 4.390625 -6.613281 4.414062 -6.695312 4.46875 -6.75 C 4.519531 -6.8125 4.609375 -6.84375 4.734375 -6.84375 L 6.15625 -6.84375 C 6.28125 -6.84375 6.367188 -6.8125 6.421875 -6.75 C 6.472656 -6.695312 6.5 -6.613281 6.5 -6.5 L 6.5 -0.34375 C 6.5 -0.21875 6.472656 -0.128906 6.421875 -0.078125 C 6.367188 -0.0234375 6.28125 0 6.15625 0 L 4.734375 0 C 4.609375 0 4.519531 -0.0234375 4.46875 -0.078125 C 4.414062 -0.128906 4.390625 -0.21875 4.390625 -0.34375 L 4.390625 -1.515625 L 2.765625 -3.484375 L 2.765625 -0.34375 C 2.765625 -0.21875 2.738281 -0.128906 2.6875 -0.078125 C 2.632812 -0.0234375 2.546875 0 2.421875 0 Z M 2.421875 0 "/></g></g></g><g fill="#ff00ff" fill-opacity="1"><g transform="translate(22.710426, 28.590673)"><g><path d="M 6.484375 -1.796875 C 6.484375 -1.503906 6.4375 -1.238281 6.34375 -1 C 6.257812 -0.757812 6.109375 -0.554688 5.890625 -0.390625 C 5.671875 -0.222656 5.367188 -0.09375 4.984375 0 C 4.609375 0.09375 4.128906 0.140625 3.546875 0.140625 C 2.953125 0.140625 2.460938 0.09375 2.078125 0 C 1.703125 -0.09375 1.40625 -0.222656 1.1875 -0.390625 C 0.96875 -0.554688 0.816406 -0.757812 0.734375 -1 C 0.648438 -1.238281 0.609375 -1.503906 0.609375 -1.796875 L 0.609375 -6.5 C 0.609375 -6.613281 0.632812 -6.695312 0.6875 -6.75 C 0.738281 -6.8125 0.828125 -6.84375 0.953125 -6.84375 L 2.4375 -6.84375 C 2.5625 -6.84375 2.648438 -6.8125 2.703125 -6.75 C 2.753906 -6.695312 2.78125 -6.613281 2.78125 -6.5 L 2.78125 -2.171875 C 2.78125 -2.035156 2.828125 -1.925781 2.921875 -1.84375 C 3.015625 -1.757812 3.226562 -1.71875 3.5625 -1.71875 C 3.894531 -1.71875 4.109375 -1.757812 4.203125 -1.84375 C 4.296875 -1.925781 4.34375 -2.035156 4.34375 -2.171875 L 4.34375 -6.5 C 4.34375 -6.613281 4.367188 -6.695312 4.421875 -6.75 C 4.484375 -6.8125 4.570312 -6.84375 4.6875 -6.84375 L 6.140625 -6.84375 C 6.253906 -6.84375 6.335938 -6.8125 6.390625 -6.75 C 6.453125 -6.695312 6.484375 -6.613281 6.484375 -6.5 Z M 6.484375 -1.796875 "/></g></g></g><g fill="#ff00ff" fill-opacity="1"><g transform="translate(29.800412, 28.590673)"><g><path d="M 2.703125 -0.34375 C 2.703125 -0.21875 2.671875 -0.128906 2.609375 -0.078125 C 2.554688 -0.0234375 2.472656 0 2.359375 0 L 0.90625 0 C 0.789062 0 0.703125 -0.0234375 0.640625 -0.078125 C 0.585938 -0.128906 0.5625 -0.21875 0.5625 -0.34375 L 0.5625 -1.359375 C 0.5625 -1.648438 0.585938 -1.867188 0.640625 -2.015625 C 0.691406 -2.160156 0.789062 -2.332031 0.9375 -2.53125 L 1.703125 -3.5625 L 0.9375 -4.59375 C 0.789062 -4.789062 0.691406 -4.960938 0.640625 -5.109375 C 0.585938 -5.253906 0.5625 -5.472656 0.5625 -5.765625 L 0.5625 -6.5 C 0.5625 -6.613281 0.585938 -6.695312 0.640625 -6.75 C 0.703125 -6.8125 0.789062 -6.84375 0.90625 -6.84375 L 2.375 -6.84375 C 2.5 -6.84375 2.585938 -6.8125 2.640625 -6.75 C 2.691406 -6.695312 2.71875 -6.613281 2.71875 -6.5 L 2.71875 -5.84375 C 2.71875 -5.78125 2.71875 -5.710938 2.71875 -5.640625 C 2.726562 -5.566406 2.753906 -5.5 2.796875 -5.4375 L 3.21875 -4.84375 C 3.25 -4.789062 3.28125 -4.75 3.3125 -4.71875 C 3.351562 -4.695312 3.398438 -4.6875 3.453125 -4.6875 L 3.5625 -4.6875 C 3.613281 -4.6875 3.65625 -4.695312 3.6875 -4.71875 C 3.71875 -4.75 3.753906 -4.789062 3.796875 -4.84375 L 4.21875 -5.4375 C 4.257812 -5.5 4.28125 -5.566406 4.28125 -5.640625 C 4.289062 -5.710938 4.296875 -5.78125 4.296875 -5.84375 L 4.296875 -6.5 C 4.296875 -6.613281 4.320312 -6.695312 4.375 -6.75 C 4.4375 -6.8125 4.523438 -6.84375 4.640625 -6.84375 L 6.09375 -6.84375 C 6.207031 -6.84375 6.289062 -6.8125 6.34375 -6.75 C 6.40625 -6.695312 6.4375 -6.613281 6.4375 -6.5 L 6.4375 -5.765625 C 6.4375 -5.472656 6.410156 -5.253906 6.359375 -5.109375 C 6.304688 -4.960938 6.210938 -4.789062 6.078125 -4.59375 L 5.296875 -3.546875 L 6.078125 -2.53125 C 6.210938 -2.332031 6.304688 -2.160156 6.359375 -2.015625 C 6.410156 -1.867188 6.4375 -1.648438 6.4375 -1.359375 L 6.4375 -0.34375 C 6.4375 -0.21875 6.40625 -0.128906 6.34375 -0.078125 C 6.289062 -0.0234375 6.207031 0 6.09375 0 L 4.640625 0 C 4.523438 0 4.4375 -0.0234375 4.375 -0.078125 C 4.320312 -0.128906 4.296875 -0.21875 4.296875 -0.34375 L 4.296875 -1.28125 C 4.296875 -1.34375 4.289062 -1.410156 4.28125 -1.484375 C 4.28125 -1.554688 4.257812 -1.625 4.21875 -1.6875 L 3.796875 -2.28125 C 3.765625 -2.332031 3.726562 -2.367188 3.6875 -2.390625 C 3.65625 -2.421875 3.617188 -2.4375 3.578125 -2.4375 L 3.4375 -2.4375 C 3.382812 -2.4375 3.34375 -2.421875 3.3125 -2.390625 C 3.28125 -2.367188 3.25 -2.332031 3.21875 -2.28125 L 2.78125 -1.6875 C 2.738281 -1.625 2.710938 -1.554688 2.703125 -1.484375 C 2.703125 -1.410156 2.703125 -1.34375 2.703125 -1.28125 Z M 2.703125 -0.34375 "/></g></g></g><g fill="#00ffff" fill-opacity="1"><g transform="translate(3.693991, 28.128816)"><g><path d="M 5.828125 0 L 1 0 C 0.875 0 0.785156 -0.0234375 0.734375 -0.078125 C 0.679688 -0.128906 0.65625 -0.21875 0.65625 -0.34375 L 0.65625 -6.5 C 0.65625 -6.613281 0.679688 -6.695312 0.734375 -6.75 C 0.785156 -6.8125 0.875 -6.84375 1 -6.84375 L 2.46875 -6.84375 C 2.59375 -6.84375 2.679688 -6.8125 2.734375 -6.75 C 2.785156 -6.695312 2.8125 -6.613281 2.8125 -6.5 L 2.8125 -1.796875 L 4.109375 -1.796875 L 4.109375 -3.328125 C 4.109375 -3.453125 4.132812 -3.539062 4.1875 -3.59375 C 4.25 -3.644531 4.335938 -3.671875 4.453125 -3.671875 L 5.828125 -3.671875 C 5.953125 -3.671875 6.039062 -3.644531 6.09375 -3.59375 C 6.144531 -3.539062 6.171875 -3.453125 6.171875 -3.328125 L 6.171875 -0.34375 C 6.171875 -0.21875 6.144531 -0.128906 6.09375 -0.078125 C 6.039062 -0.0234375 5.953125 0 5.828125 0 Z M 5.828125 0 "/></g></g></g><g fill="#00ffff" fill-opacity="1"><g transform="translate(10.299272, 28.128816)"><g><path d="M 0.84375 0 C 0.726562 0 0.640625 -0.0234375 0.578125 -0.078125 C 0.523438 -0.128906 0.5 -0.21875 0.5 -0.34375 L 0.5 -1.46875 C 0.5 -1.59375 0.523438 -1.679688 0.578125 -1.734375 C 0.640625 -1.785156 0.726562 -1.8125 0.84375 -1.8125 L 1.78125 -1.8125 L 1.78125 -5 L 0.84375 -5 C 0.726562 -5 0.640625 -5.023438 0.578125 -5.078125 C 0.523438 -5.140625 0.5 -5.226562 0.5 -5.34375 L 0.5 -6.5 C 0.5 -6.613281 0.523438 -6.695312 0.578125 -6.75 C 0.640625 -6.8125 0.726562 -6.84375 0.84375 -6.84375 L 4.890625 -6.84375 C 5.015625 -6.84375 5.101562 -6.8125 5.15625 -6.75 C 5.207031 -6.695312 5.234375 -6.613281 5.234375 -6.5 L 5.234375 -5.34375 C 5.234375 -5.226562 5.207031 -5.140625 5.15625 -5.078125 C 5.101562 -5.023438 5.015625 -5 4.890625 -5 L 3.96875 -5 L 3.96875 -1.8125 L 4.890625 -1.8125 C 5.015625 -1.8125 5.101562 -1.785156 5.15625 -1.734375 C 5.207031 -1.679688 5.234375 -1.59375 5.234375 -1.46875 L 5.234375 -0.34375 C 5.234375 -0.21875 5.207031 -0.128906 5.15625 -0.078125 C 5.101562 -0.0234375 5.015625 0 4.890625 0 Z M 0.84375 0 "/></g></g></g><g fill="#00ffff" fill-opacity="1"><g transform="translate(16.049194, 28.128816)"><g><path d="M 2.421875 0 L 1 0 C 0.875 0 0.785156 -0.0234375 0.734375 -0.078125 C 0.679688 -0.128906 0.65625 -0.21875 0.65625 -0.34375 L 0.65625 -6.5 C 0.65625 -6.613281 0.679688 -6.695312 0.734375 -6.75 C 0.785156 -6.8125 0.875 -6.84375 1 -6.84375 L 1.984375 -6.84375 C 2.109375 -6.84375 2.210938 -6.820312 2.296875 -6.78125 C 2.378906 -6.738281 2.460938 -6.671875 2.546875 -6.578125 L 4.390625 -4.46875 L 4.390625 -6.5 C 4.390625 -6.613281 4.414062 -6.695312 4.46875 -6.75 C 4.519531 -6.8125 4.609375 -6.84375 4.734375 -6.84375 L 6.15625 -6.84375 C 6.28125 -6.84375 6.367188 -6.8125 6.421875 -6.75 C 6.472656 -6.695312 6.5 -6.613281 6.5 -6.5 L 6.5 -0.34375 C 6.5 -0.21875 6.472656 -0.128906 6.421875 -0.078125 C 6.367188 -0.0234375 6.28125 0 6.15625 0 L 4.734375 0 C 4.609375 0 4.519531 -0.0234375 4.46875 -0.078125 C 4.414062 -0.128906 4.390625 -0.21875 4.390625 -0.34375 L 4.390625 -1.515625 L 2.765625 -3.484375 L 2.765625 -0.34375 C 2.765625 -0.21875 2.738281 -0.128906 2.6875 -0.078125 C 2.632812 -0.0234375 2.546875 0 2.421875 0 Z M 2.421875 0 "/></g></g></g><g fill="#00ffff" fill-opacity="1"><g transform="translate(23.205707, 28.128816)"><g><path d="M 6.484375 -1.796875 C 6.484375 -1.503906 6.4375 -1.238281 6.34375 -1 C 6.257812 -0.757812 6.109375 -0.554688 5.890625 -0.390625 C 5.671875 -0.222656 5.367188 -0.09375 4.984375 0 C 4.609375 0.09375 4.128906 0.140625 3.546875 0.140625 C 2.953125 0.140625 2.460938 0.09375 2.078125 0 C 1.703125 -0.09375 1.40625 -0.222656 1.1875 -0.390625 C 0.96875 -0.554688 0.816406 -0.757812 0.734375 -1 C 0.648438 -1.238281 0.609375 -1.503906 0.609375 -1.796875 L 0.609375 -6.5 C 0.609375 -6.613281 0.632812 -6.695312 0.6875 -6.75 C 0.738281 -6.8125 0.828125 -6.84375 0.953125 -6.84375 L 2.4375 -6.84375 C 2.5625 -6.84375 2.648438 -6.8125 2.703125 -6.75 C 2.753906 -6.695312 2.78125 -6.613281 2.78125 -6.5 L 2.78125 -2.171875 C 2.78125 -2.035156 2.828125 -1.925781 2.921875 -1.84375 C 3.015625 -1.757812 3.226562 -1.71875 3.5625 -1.71875 C 3.894531 -1.71875 4.109375 -1.757812 4.203125 -1.84375 C 4.296875 -1.925781 4.34375 -2.035156 4.34375 -2.171875 L 4.34375 -6.5 C 4.34375 -6.613281 4.367188 -6.695312 4.421875 -6.75 C 4.484375 -6.8125 4.570312 -6.84375 4.6875 -6.84375 L 6.140625 -6.84375 C 6.253906 -6.84375 6.335938 -6.8125 6.390625 -6.75 C 6.453125 -6.695312 6.484375 -6.613281 6.484375 -6.5 Z M 6.484375 -1.796875 "/></g></g></g><g fill="#00ffff" fill-opacity="1"><g transform="translate(30.295693, 28.128816)"><g><path d="M 2.703125 -0.34375 C 2.703125 -0.21875 2.671875 -0.128906 2.609375 -0.078125 C 2.554688 -0.0234375 2.472656 0 2.359375 0 L 0.90625 0 C 0.789062 0 0.703125 -0.0234375 0.640625 -0.078125 C 0.585938 -0.128906 0.5625 -0.21875 0.5625 -0.34375 L 0.5625 -1.359375 C 0.5625 -1.648438 0.585938 -1.867188 0.640625 -2.015625 C 0.691406 -2.160156 0.789062 -2.332031 0.9375 -2.53125 L 1.703125 -3.5625 L 0.9375 -4.59375 C 0.789062 -4.789062 0.691406 -4.960938 0.640625 -5.109375 C 0.585938 -5.253906 0.5625 -5.472656 0.5625 -5.765625 L 0.5625 -6.5 C 0.5625 -6.613281 0.585938 -6.695312 0.640625 -6.75 C 0.703125 -6.8125 0.789062 -6.84375 0.90625 -6.84375 L 2.375 -6.84375 C 2.5 -6.84375 2.585938 -6.8125 2.640625 -6.75 C 2.691406 -6.695312 2.71875 -6.613281 2.71875 -6.5 L 2.71875 -5.84375 C 2.71875 -5.78125 2.71875 -5.710938 2.71875 -5.640625 C 2.726562 -5.566406 2.753906 -5.5 2.796875 -5.4375 L 3.21875 -4.84375 C 3.25 -4.789062 3.28125 -4.75 3.3125 -4.71875 C 3.351562 -4.695312 3.398438 -4.6875 3.453125 -4.6875 L 3.5625 -4.6875 C 3.613281 -4.6875 3.65625 -4.695312 3.6875 -4.71875 C 3.71875 -4.75 3.753906 -4.789062 3.796875 -4.84375 L 4.21875 -5.4375 C 4.257812 -5.5 4.28125 -5.566406 4.28125 -5.640625 C 4.289062 -5.710938 4.296875 -5.78125 4.296875 -5.84375 L 4.296875 -6.5 C 4.296875 -6.613281 4.320312 -6.695312 4.375 -6.75 C 4.4375 -6.8125 4.523438 -6.84375 4.640625 -6.84375 L 6.09375 -6.84375 C 6.207031 -6.84375 6.289062 -6.8125 6.34375 -6.75 C 6.40625 -6.695312 6.4375 -6.613281 6.4375 -6.5 L 6.4375 -5.765625 C 6.4375 -5.472656 6.410156 -5.253906 6.359375 -5.109375 C 6.304688 -4.960938 6.210938 -4.789062 6.078125 -4.59375 L 5.296875 -3.546875 L 6.078125 -2.53125 C 6.210938 -2.332031 6.304688 -2.160156 6.359375 -2.015625 C 6.410156 -1.867188 6.4375 -1.648438 6.4375 -1.359375 L 6.4375 -0.34375 C 6.4375 -0.21875 6.40625 -0.128906 6.34375 -0.078125 C 6.289062 -0.0234375 6.207031 0 6.09375 0 L 4.640625 0 C 4.523438 0 4.4375 -0.0234375 4.375 -0.078125 C 4.320312 -0.128906 4.296875 -0.21875 4.296875 -0.34375 L 4.296875 -1.28125 C 4.296875 -1.34375 4.289062 -1.410156 4.28125 -1.484375 C 4.28125 -1.554688 4.257812 -1.625 4.21875 -1.6875 L 3.796875 -2.28125 C 3.765625 -2.332031 3.726562 -2.367188 3.6875 -2.390625 C 3.65625 -2.421875 3.617188 -2.4375 3.578125 -2.4375 L 3.4375 -2.4375 C 3.382812 -2.4375 3.34375 -2.421875 3.3125 -2.390625 C 3.28125 -2.367188 3.25 -2.332031 3.21875 -2.28125 L 2.78125 -1.6875 C 2.738281 -1.625 2.710938 -1.554688 2.703125 -1.484375 C 2.703125 -1.410156 2.703125 -1.34375 2.703125 -1.28125 Z M 2.703125 -0.34375 "/></g></g></g><g fill="#14b5a2" fill-opacity="1"><g transform="translate(3.44635, 28.359744)"><g><path d="M 5.828125 0 L 1 0 C 0.875 0 0.785156 -0.0234375 0.734375 -0.078125 C 0.679688 -0.128906 0.65625 -0.21875 0.65625 -0.34375 L 0.65625 -6.5 C 0.65625 -6.613281 0.679688 -6.695312 0.734375 -6.75 C 0.785156 -6.8125 0.875 -6.84375 1 -6.84375 L 2.46875 -6.84375 C 2.59375 -6.84375 2.679688 -6.8125 2.734375 -6.75 C 2.785156 -6.695312 2.8125 -6.613281 2.8125 -6.5 L 2.8125 -1.796875 L 4.109375 -1.796875 L 4.109375 -3.328125 C 4.109375 -3.453125 4.132812 -3.539062 4.1875 -3.59375 C 4.25 -3.644531 4.335938 -3.671875 4.453125 -3.671875 L 5.828125 -3.671875 C 5.953125 -3.671875 6.039062 -3.644531 6.09375 -3.59375 C 6.144531 -3.539062 6.171875 -3.453125 6.171875 -3.328125 L 6.171875 -0.34375 C 6.171875 -0.21875 6.144531 -0.128906 6.09375 -0.078125 C 6.039062 -0.0234375 5.953125 0 5.828125 0 Z M 5.828125 0 "/></g></g></g><g fill="#14b5a2" fill-opacity="1"><g transform="translate(10.051632, 28.359744)"><g><path d="M 0.84375 0 C 0.726562 0 0.640625 -0.0234375 0.578125 -0.078125 C 0.523438 -0.128906 0.5 -0.21875 0.5 -0.34375 L 0.5 -1.46875 C 0.5 -1.59375 0.523438 -1.679688 0.578125 -1.734375 C 0.640625 -1.785156 0.726562 -1.8125 0.84375 -1.8125 L 1.78125 -1.8125 L 1.78125 -5 L 0.84375 -5 C 0.726562 -5 0.640625 -5.023438 0.578125 -5.078125 C 0.523438 -5.140625 0.5 -5.226562 0.5 -5.34375 L 0.5 -6.5 C 0.5 -6.613281 0.523438 -6.695312 0.578125 -6.75 C 0.640625 -6.8125 0.726562 -6.84375 0.84375 -6.84375 L 4.890625 -6.84375 C 5.015625 -6.84375 5.101562 -6.8125 5.15625 -6.75 C 5.207031 -6.695312 5.234375 -6.613281 5.234375 -6.5 L 5.234375 -5.34375 C 5.234375 -5.226562 5.207031 -5.140625 5.15625 -5.078125 C 5.101562 -5.023438 5.015625 -5 4.890625 -5 L 3.96875 -5 L 3.96875 -1.8125 L 4.890625 -1.8125 C 5.015625 -1.8125 5.101562 -1.785156 5.15625 -1.734375 C 5.207031 -1.679688 5.234375 -1.59375 5.234375 -1.46875 L 5.234375 -0.34375 C 5.234375 -0.21875 5.207031 -0.128906 5.15625 -0.078125 C 5.101562 -0.0234375 5.015625 0 4.890625 0 Z M 0.84375 0 "/></g></g></g><g fill="#14b5a2" fill-opacity="1"><g transform="translate(15.801553, 28.359744)"><g><path d="M 2.421875 0 L 1 0 C 0.875 0 0.785156 -0.0234375 0.734375 -0.078125 C 0.679688 -0.128906 0.65625 -0.21875 0.65625 -0.34375 L 0.65625 -6.5 C 0.65625 -6.613281 0.679688 -6.695312 0.734375 -6.75 C 0.785156 -6.8125 0.875 -6.84375 1 -6.84375 L 1.984375 -6.84375 C 2.109375 -6.84375 2.210938 -6.820312 2.296875 -6.78125 C 2.378906 -6.738281 2.460938 -6.671875 2.546875 -6.578125 L 4.390625 -4.46875 L 4.390625 -6.5 C 4.390625 -6.613281 4.414062 -6.695312 4.46875 -6.75 C 4.519531 -6.8125 4.609375 -6.84375 4.734375 -6.84375 L 6.15625 -6.84375 C 6.28125 -6.84375 6.367188 -6.8125 6.421875 -6.75 C 6.472656 -6.695312 6.5 -6.613281 6.5 -6.5 L 6.5 -0.34375 C 6.5 -0.21875 6.472656 -0.128906 6.421875 -0.078125 C 6.367188 -0.0234375 6.28125 0 6.15625 0 L 4.734375 0 C 4.609375 0 4.519531 -0.0234375 4.46875 -0.078125 C 4.414062 -0.128906 4.390625 -0.21875 4.390625 -0.34375 L 4.390625 -1.515625 L 2.765625 -3.484375 L 2.765625 -0.34375 C 2.765625 -0.21875 2.738281 -0.128906 2.6875 -0.078125 C 2.632812 -0.0234375 2.546875 0 2.421875 0 Z M 2.421875 0 "/></g></g></g><g fill="#14b5a2" fill-opacity="1"><g transform="translate(22.958066, 28.359744)"><g><path d="M 6.484375 -1.796875 C 6.484375 -1.503906 6.4375 -1.238281 6.34375 -1 C 6.257812 -0.757812 6.109375 -0.554688 5.890625 -0.390625 C 5.671875 -0.222656 5.367188 -0.09375 4.984375 0 C 4.609375 0.09375 4.128906 0.140625 3.546875 0.140625 C 2.953125 0.140625 2.460938 0.09375 2.078125 0 C 1.703125 -0.09375 1.40625 -0.222656 1.1875 -0.390625 C 0.96875 -0.554688 0.816406 -0.757812 0.734375 -1 C 0.648438 -1.238281 0.609375 -1.503906 0.609375 -1.796875 L 0.609375 -6.5 C 0.609375 -6.613281 0.632812 -6.695312 0.6875 -6.75 C 0.738281 -6.8125 0.828125 -6.84375 0.953125 -6.84375 L 2.4375 -6.84375 C 2.5625 -6.84375 2.648438 -6.8125 2.703125 -6.75 C 2.753906 -6.695312 2.78125 -6.613281 2.78125 -6.5 L 2.78125 -2.171875 C 2.78125 -2.035156 2.828125 -1.925781 2.921875 -1.84375 C 3.015625 -1.757812 3.226562 -1.71875 3.5625 -1.71875 C 3.894531 -1.71875 4.109375 -1.757812 4.203125 -1.84375 C 4.296875 -1.925781 4.34375 -2.035156 4.34375 -2.171875 L 4.34375 -6.5 C 4.34375 -6.613281 4.367188 -6.695312 4.421875 -6.75 C 4.484375 -6.8125 4.570312 -6.84375 4.6875 -6.84375 L 6.140625 -6.84375 C 6.253906 -6.84375 6.335938 -6.8125 6.390625 -6.75 C 6.453125 -6.695312 6.484375 -6.613281 6.484375 -6.5 Z M 6.484375 -1.796875 "/></g></g></g><g fill="#14b5a2" fill-opacity="1"><g transform="translate(30.048053, 28.359744)"><g><path d="M 2.703125 -0.34375 C 2.703125 -0.21875 2.671875 -0.128906 2.609375 -0.078125 C 2.554688 -0.0234375 2.472656 0 2.359375 0 L 0.90625 0 C 0.789062 0 0.703125 -0.0234375 0.640625 -0.078125 C 0.585938 -0.128906 0.5625 -0.21875 0.5625 -0.34375 L 0.5625 -1.359375 C 0.5625 -1.648438 0.585938 -1.867188 0.640625 -2.015625 C 0.691406 -2.160156 0.789062 -2.332031 0.9375 -2.53125 L 1.703125 -3.5625 L 0.9375 -4.59375 C 0.789062 -4.789062 0.691406 -4.960938 0.640625 -5.109375 C 0.585938 -5.253906 0.5625 -5.472656 0.5625 -5.765625 L 0.5625 -6.5 C 0.5625 -6.613281 0.585938 -6.695312 0.640625 -6.75 C 0.703125 -6.8125 0.789062 -6.84375 0.90625 -6.84375 L 2.375 -6.84375 C 2.5 -6.84375 2.585938 -6.8125 2.640625 -6.75 C 2.691406 -6.695312 2.71875 -6.613281 2.71875 -6.5 L 2.71875 -5.84375 C 2.71875 -5.78125 2.71875 -5.710938 2.71875 -5.640625 C 2.726562 -5.566406 2.753906 -5.5 2.796875 -5.4375 L 3.21875 -4.84375 C 3.25 -4.789062 3.28125 -4.75 3.3125 -4.71875 C 3.351562 -4.695312 3.398438 -4.6875 3.453125 -4.6875 L 3.5625 -4.6875 C 3.613281 -4.6875 3.65625 -4.695312 3.6875 -4.71875 C 3.71875 -4.75 3.753906 -4.789062 3.796875 -4.84375 L 4.21875 -5.4375 C 4.257812 -5.5 4.28125 -5.566406 4.28125 -5.640625 C 4.289062 -5.710938 4.296875 -5.78125 4.296875 -5.84375 L 4.296875 -6.5 C 4.296875 -6.613281 4.320312 -6.695312 4.375 -6.75 C 4.4375 -6.8125 4.523438 -6.84375 4.640625 -6.84375 L 6.09375 -6.84375 C 6.207031 -6.84375 6.289062 -6.8125 6.34375 -6.75 C 6.40625 -6.695312 6.4375 -6.613281 6.4375 -6.5 L 6.4375 -5.765625 C 6.4375 -5.472656 6.410156 -5.253906 6.359375 -5.109375 C 6.304688 -4.960938 6.210938 -4.789062 6.078125 -4.59375 L 5.296875 -3.546875 L 6.078125 -2.53125 C 6.210938 -2.332031 6.304688 -2.160156 6.359375 -2.015625 C 6.410156 -1.867188 6.4375 -1.648438 6.4375 -1.359375 L 6.4375 -0.34375 C 6.4375 -0.21875 6.40625 -0.128906 6.34375 -0.078125 C 6.289062 -0.0234375 6.207031 0 6.09375 0 L 4.640625 0 C 4.523438 0 4.4375 -0.0234375 4.375 -0.078125 C 4.320312 -0.128906 4.296875 -0.21875 4.296875 -0.34375 L 4.296875 -1.28125 C 4.296875 -1.34375 4.289062 -1.410156 4.28125 -1.484375 C 4.28125 -1.554688 4.257812 -1.625 4.21875 -1.6875 L 3.796875 -2.28125 C 3.765625 -2.332031 3.726562 -2.367188 3.6875 -2.390625 C 3.65625 -2.421875 3.617188 -2.4375 3.578125 -2.4375 L 3.4375 -2.4375 C 3.382812 -2.4375 3.34375 -2.421875 3.3125 -2.390625 C 3.28125 -2.367188 3.25 -2.332031 3.21875 -2.28125 L 2.78125 -1.6875 C 2.738281 -1.625 2.710938 -1.554688 2.703125 -1.484375 C 2.703125 -1.410156 2.703125 -1.34375 2.703125 -1.28125 Z M 2.703125 -0.34375 "/></g></g></g><g clip-path="url(#id6)"><g fill="#ff00ff" fill-opacity="1"><g transform="translate(12.695506, 32.649749)"><g><path d="M 1.390625 0 L 0.5625 0 C 0.488281 0 0.4375 -0.015625 0.40625 -0.046875 C 0.382812 -0.078125 0.375 -0.125 0.375 -0.1875 L 0.375 -3.65625 C 0.375 -3.71875 0.382812 -3.765625 0.40625 -3.796875 C 0.4375 -3.828125 0.488281 -3.84375 0.5625 -3.84375 L 2.203125 -3.84375 C 2.679688 -3.84375 3.007812 -3.742188 3.1875 -3.546875 C 3.363281 -3.359375 3.453125 -3.113281 3.453125 -2.8125 L 3.453125 -2.125 C 3.453125 -1.8125 3.363281 -1.554688 3.1875 -1.359375 C 3.007812 -1.171875 2.679688 -1.078125 2.203125 -1.078125 L 1.578125 -1.078125 L 1.578125 -0.1875 C 1.578125 -0.125 1.5625 -0.078125 1.53125 -0.046875 C 1.5 -0.015625 1.453125 0 1.390625 0 Z M 1.578125 -2.84375 L 1.578125 -2.046875 L 2.046875 -2.046875 C 2.148438 -2.046875 2.21875 -2.070312 2.25 -2.125 C 2.28125 -2.175781 2.296875 -2.234375 2.296875 -2.296875 L 2.296875 -2.59375 C 2.296875 -2.65625 2.28125 -2.710938 2.25 -2.765625 C 2.21875 -2.816406 2.148438 -2.84375 2.046875 -2.84375 Z M 1.578125 -2.84375 "/></g></g></g></g><g clip-path="url(#id7)"><g fill="#ff00ff" fill-opacity="1"><g transform="translate(16.341482, 32.649749)"><g><path d="M 1.765625 -2.71875 L 1.515625 -1.90625 L 2.34375 -1.90625 L 2.09375 -2.71875 C 2.082031 -2.75 2.066406 -2.769531 2.046875 -2.78125 C 2.035156 -2.800781 2.019531 -2.8125 2 -2.8125 L 1.859375 -2.8125 C 1.835938 -2.8125 1.816406 -2.800781 1.796875 -2.78125 C 1.785156 -2.769531 1.773438 -2.75 1.765625 -2.71875 Z M 1.453125 -0.1875 C 1.453125 -0.125 1.4375 -0.078125 1.40625 -0.046875 C 1.382812 -0.015625 1.335938 0 1.265625 0 L 0.484375 0 C 0.410156 0 0.359375 -0.015625 0.328125 -0.046875 C 0.296875 -0.078125 0.28125 -0.125 0.28125 -0.1875 L 0.28125 -1.609375 C 0.28125 -1.710938 0.296875 -1.832031 0.328125 -1.96875 C 0.367188 -2.113281 0.425781 -2.273438 0.5 -2.453125 L 0.96875 -3.671875 C 0.988281 -3.734375 1.019531 -3.773438 1.0625 -3.796875 C 1.101562 -3.828125 1.160156 -3.84375 1.234375 -3.84375 L 2.671875 -3.84375 C 2.734375 -3.84375 2.785156 -3.828125 2.828125 -3.796875 C 2.878906 -3.773438 2.914062 -3.734375 2.9375 -3.671875 L 3.40625 -2.453125 C 3.476562 -2.273438 3.53125 -2.113281 3.5625 -1.96875 C 3.59375 -1.832031 3.609375 -1.710938 3.609375 -1.609375 L 3.609375 -0.1875 C 3.609375 -0.125 3.59375 -0.078125 3.5625 -0.046875 C 3.53125 -0.015625 3.484375 0 3.421875 0 L 2.609375 0 C 2.535156 0 2.484375 -0.015625 2.453125 -0.046875 C 2.421875 -0.078125 2.40625 -0.125 2.40625 -0.1875 L 2.40625 -0.9375 L 1.453125 -0.9375 Z M 1.453125 -0.1875 "/></g></g></g></g><g clip-path="url(#id8)"><g fill="#ff00ff" fill-opacity="1"><g transform="translate(20.244067, 32.649749)"><g><path d="M 3.3125 0 L 1.625 0 C 1.175781 0 0.84375 -0.0859375 0.625 -0.265625 C 0.414062 -0.441406 0.3125 -0.71875 0.3125 -1.09375 L 0.3125 -2.75 C 0.3125 -3.125 0.414062 -3.398438 0.625 -3.578125 C 0.84375 -3.753906 1.175781 -3.84375 1.625 -3.84375 L 2.953125 -3.84375 C 3.023438 -3.84375 3.078125 -3.828125 3.109375 -3.796875 C 3.140625 -3.765625 3.15625 -3.71875 3.15625 -3.65625 L 3.15625 -3.015625 C 3.15625 -2.941406 3.140625 -2.890625 3.109375 -2.859375 C 3.078125 -2.828125 3.023438 -2.8125 2.953125 -2.8125 L 1.84375 -2.8125 C 1.738281 -2.8125 1.65625 -2.789062 1.59375 -2.75 C 1.539062 -2.707031 1.515625 -2.640625 1.515625 -2.546875 L 1.515625 -1.265625 C 1.515625 -1.179688 1.535156 -1.117188 1.578125 -1.078125 C 1.617188 -1.035156 1.679688 -1.015625 1.765625 -1.015625 L 2.28125 -1.015625 L 2.28125 -1.84375 C 2.28125 -1.90625 2.296875 -1.953125 2.328125 -1.984375 C 2.359375 -2.015625 2.410156 -2.03125 2.484375 -2.03125 L 3.3125 -2.03125 C 3.375 -2.03125 3.421875 -2.015625 3.453125 -1.984375 C 3.484375 -1.953125 3.5 -1.90625 3.5 -1.84375 L 3.5 -0.1875 C 3.5 -0.125 3.484375 -0.078125 3.453125 -0.046875 C 3.421875 -0.015625 3.375 0 3.3125 0 Z M 3.3125 0 "/></g></g></g></g><g clip-path="url(#id9)"><g fill="#ff00ff" fill-opacity="1"><g transform="translate(24.029039, 32.649749)"><g><path d="M 3.046875 0 L 0.5625 0 C 0.488281 0 0.4375 -0.015625 0.40625 -0.046875 C 0.382812 -0.078125 0.375 -0.125 0.375 -0.1875 L 0.375 -3.65625 C 0.375 -3.71875 0.382812 -3.765625 0.40625 -3.796875 C 0.4375 -3.828125 0.488281 -3.84375 0.5625 -3.84375 L 3.046875 -3.84375 C 3.109375 -3.84375 3.15625 -3.828125 3.1875 -3.796875 C 3.21875 -3.765625 3.234375 -3.71875 3.234375 -3.65625 L 3.234375 -3.03125 C 3.234375 -2.957031 3.21875 -2.90625 3.1875 -2.875 C 3.15625 -2.851562 3.109375 -2.84375 3.046875 -2.84375 L 1.5625 -2.84375 L 1.5625 -2.421875 L 2.609375 -2.421875 C 2.671875 -2.421875 2.71875 -2.40625 2.75 -2.375 C 2.78125 -2.34375 2.796875 -2.296875 2.796875 -2.234375 L 2.796875 -1.65625 C 2.796875 -1.59375 2.78125 -1.546875 2.75 -1.515625 C 2.71875 -1.484375 2.671875 -1.46875 2.609375 -1.46875 L 1.5625 -1.46875 L 1.5625 -1.015625 L 3.046875 -1.015625 C 3.109375 -1.015625 3.15625 -1 3.1875 -0.96875 C 3.21875 -0.9375 3.234375 -0.882812 3.234375 -0.8125 L 3.234375 -0.1875 C 3.234375 -0.125 3.21875 -0.078125 3.1875 -0.046875 C 3.15625 -0.015625 3.109375 0 3.046875 0 Z M 3.046875 0 "/></g></g></g></g><g clip-path="url(#id10)"><g fill="#00ffff" fill-opacity="1"><g transform="translate(12.974084, 32.389969)"><g><path d="M 1.390625 0 L 0.5625 0 C 0.488281 0 0.4375 -0.015625 0.40625 -0.046875 C 0.382812 -0.078125 0.375 -0.125 0.375 -0.1875 L 0.375 -3.65625 C 0.375 -3.71875 0.382812 -3.765625 0.40625 -3.796875 C 0.4375 -3.828125 0.488281 -3.84375 0.5625 -3.84375 L 2.203125 -3.84375 C 2.679688 -3.84375 3.007812 -3.742188 3.1875 -3.546875 C 3.363281 -3.359375 3.453125 -3.113281 3.453125 -2.8125 L 3.453125 -2.125 C 3.453125 -1.8125 3.363281 -1.554688 3.1875 -1.359375 C 3.007812 -1.171875 2.679688 -1.078125 2.203125 -1.078125 L 1.578125 -1.078125 L 1.578125 -0.1875 C 1.578125 -0.125 1.5625 -0.078125 1.53125 -0.046875 C 1.5 -0.015625 1.453125 0 1.390625 0 Z M 1.578125 -2.84375 L 1.578125 -2.046875 L 2.046875 -2.046875 C 2.148438 -2.046875 2.21875 -2.070312 2.25 -2.125 C 2.28125 -2.175781 2.296875 -2.234375 2.296875 -2.296875 L 2.296875 -2.59375 C 2.296875 -2.65625 2.28125 -2.710938 2.25 -2.765625 C 2.21875 -2.816406 2.148438 -2.84375 2.046875 -2.84375 Z M 1.578125 -2.84375 "/></g></g></g></g><g clip-path="url(#id11)"><g fill="#00ffff" fill-opacity="1"><g transform="translate(16.62006, 32.389969)"><g><path d="M 1.765625 -2.71875 L 1.515625 -1.90625 L 2.34375 -1.90625 L 2.09375 -2.71875 C 2.082031 -2.75 2.066406 -2.769531 2.046875 -2.78125 C 2.035156 -2.800781 2.019531 -2.8125 2 -2.8125 L 1.859375 -2.8125 C 1.835938 -2.8125 1.816406 -2.800781 1.796875 -2.78125 C 1.785156 -2.769531 1.773438 -2.75 1.765625 -2.71875 Z M 1.453125 -0.1875 C 1.453125 -0.125 1.4375 -0.078125 1.40625 -0.046875 C 1.382812 -0.015625 1.335938 0 1.265625 0 L 0.484375 0 C 0.410156 0 0.359375 -0.015625 0.328125 -0.046875 C 0.296875 -0.078125 0.28125 -0.125 0.28125 -0.1875 L 0.28125 -1.609375 C 0.28125 -1.710938 0.296875 -1.832031 0.328125 -1.96875 C 0.367188 -2.113281 0.425781 -2.273438 0.5 -2.453125 L 0.96875 -3.671875 C 0.988281 -3.734375 1.019531 -3.773438 1.0625 -3.796875 C 1.101562 -3.828125 1.160156 -3.84375 1.234375 -3.84375 L 2.671875 -3.84375 C 2.734375 -3.84375 2.785156 -3.828125 2.828125 -3.796875 C 2.878906 -3.773438 2.914062 -3.734375 2.9375 -3.671875 L 3.40625 -2.453125 C 3.476562 -2.273438 3.53125 -2.113281 3.5625 -1.96875 C 3.59375 -1.832031 3.609375 -1.710938 3.609375 -1.609375 L 3.609375 -0.1875 C 3.609375 -0.125 3.59375 -0.078125 3.5625 -0.046875 C 3.53125 -0.015625 3.484375 0 3.421875 0 L 2.609375 0 C 2.535156 0 2.484375 -0.015625 2.453125 -0.046875 C 2.421875 -0.078125 2.40625 -0.125 2.40625 -0.1875 L 2.40625 -0.9375 L 1.453125 -0.9375 Z M 1.453125 -0.1875 "/></g></g></g></g><g clip-path="url(#id12)"><g fill="#00ffff" fill-opacity="1"><g transform="translate(20.522645, 32.389969)"><g><path d="M 3.3125 0 L 1.625 0 C 1.175781 0 0.84375 -0.0859375 0.625 -0.265625 C 0.414062 -0.441406 0.3125 -0.71875 0.3125 -1.09375 L 0.3125 -2.75 C 0.3125 -3.125 0.414062 -3.398438 0.625 -3.578125 C 0.84375 -3.753906 1.175781 -3.84375 1.625 -3.84375 L 2.953125 -3.84375 C 3.023438 -3.84375 3.078125 -3.828125 3.109375 -3.796875 C 3.140625 -3.765625 3.15625 -3.71875 3.15625 -3.65625 L 3.15625 -3.015625 C 3.15625 -2.941406 3.140625 -2.890625 3.109375 -2.859375 C 3.078125 -2.828125 3.023438 -2.8125 2.953125 -2.8125 L 1.84375 -2.8125 C 1.738281 -2.8125 1.65625 -2.789062 1.59375 -2.75 C 1.539062 -2.707031 1.515625 -2.640625 1.515625 -2.546875 L 1.515625 -1.265625 C 1.515625 -1.179688 1.535156 -1.117188 1.578125 -1.078125 C 1.617188 -1.035156 1.679688 -1.015625 1.765625 -1.015625 L 2.28125 -1.015625 L 2.28125 -1.84375 C 2.28125 -1.90625 2.296875 -1.953125 2.328125 -1.984375 C 2.359375 -2.015625 2.410156 -2.03125 2.484375 -2.03125 L 3.3125 -2.03125 C 3.375 -2.03125 3.421875 -2.015625 3.453125 -1.984375 C 3.484375 -1.953125 3.5 -1.90625 3.5 -1.84375 L 3.5 -0.1875 C 3.5 -0.125 3.484375 -0.078125 3.453125 -0.046875 C 3.421875 -0.015625 3.375 0 3.3125 0 Z M 3.3125 0 "/></g></g></g></g><g clip-path="url(#id13)"><g fill="#00ffff" fill-opacity="1"><g transform="translate(24.307617, 32.389969)"><g><path d="M 3.046875 0 L 0.5625 0 C 0.488281 0 0.4375 -0.015625 0.40625 -0.046875 C 0.382812 -0.078125 0.375 -0.125 0.375 -0.1875 L 0.375 -3.65625 C 0.375 -3.71875 0.382812 -3.765625 0.40625 -3.796875 C 0.4375 -3.828125 0.488281 -3.84375 0.5625 -3.84375 L 3.046875 -3.84375 C 3.109375 -3.84375 3.15625 -3.828125 3.1875 -3.796875 C 3.21875 -3.765625 3.234375 -3.71875 3.234375 -3.65625 L 3.234375 -3.03125 C 3.234375 -2.957031 3.21875 -2.90625 3.1875 -2.875 C 3.15625 -2.851562 3.109375 -2.84375 3.046875 -2.84375 L 1.5625 -2.84375 L 1.5625 -2.421875 L 2.609375 -2.421875 C 2.671875 -2.421875 2.71875 -2.40625 2.75 -2.375 C 2.78125 -2.34375 2.796875 -2.296875 2.796875 -2.234375 L 2.796875 -1.65625 C 2.796875 -1.59375 2.78125 -1.546875 2.75 -1.515625 C 2.71875 -1.484375 2.671875 -1.46875 2.609375 -1.46875 L 1.5625 -1.46875 L 1.5625 -1.015625 L 3.046875 -1.015625 C 3.109375 -1.015625 3.15625 -1 3.1875 -0.96875 C 3.21875 -0.9375 3.234375 -0.882812 3.234375 -0.8125 L 3.234375 -0.1875 C 3.234375 -0.125 3.21875 -0.078125 3.1875 -0.046875 C 3.15625 -0.015625 3.109375 0 3.046875 0 Z M 3.046875 0 "/></g></g></g></g><g clip-path="url(#id14)"><g fill="#14b5a2" fill-opacity="1"><g transform="translate(12.834795, 32.519859)"><g><path d="M 1.390625 0 L 0.5625 0 C 0.488281 0 0.4375 -0.015625 0.40625 -0.046875 C 0.382812 -0.078125 0.375 -0.125 0.375 -0.1875 L 0.375 -3.65625 C 0.375 -3.71875 0.382812 -3.765625 0.40625 -3.796875 C 0.4375 -3.828125 0.488281 -3.84375 0.5625 -3.84375 L 2.203125 -3.84375 C 2.679688 -3.84375 3.007812 -3.742188 3.1875 -3.546875 C 3.363281 -3.359375 3.453125 -3.113281 3.453125 -2.8125 L 3.453125 -2.125 C 3.453125 -1.8125 3.363281 -1.554688 3.1875 -1.359375 C 3.007812 -1.171875 2.679688 -1.078125 2.203125 -1.078125 L 1.578125 -1.078125 L 1.578125 -0.1875 C 1.578125 -0.125 1.5625 -0.078125 1.53125 -0.046875 C 1.5 -0.015625 1.453125 0 1.390625 0 Z M 1.578125 -2.84375 L 1.578125 -2.046875 L 2.046875 -2.046875 C 2.148438 -2.046875 2.21875 -2.070312 2.25 -2.125 C 2.28125 -2.175781 2.296875 -2.234375 2.296875 -2.296875 L 2.296875 -2.59375 C 2.296875 -2.65625 2.28125 -2.710938 2.25 -2.765625 C 2.21875 -2.816406 2.148438 -2.84375 2.046875 -2.84375 Z M 1.578125 -2.84375 "/></g></g></g></g><g clip-path="url(#id15)"><g fill="#14b5a2" fill-opacity="1"><g transform="translate(16.480771, 32.519859)"><g><path d="M 1.765625 -2.71875 L 1.515625 -1.90625 L 2.34375 -1.90625 L 2.09375 -2.71875 C 2.082031 -2.75 2.066406 -2.769531 2.046875 -2.78125 C 2.035156 -2.800781 2.019531 -2.8125 2 -2.8125 L 1.859375 -2.8125 C 1.835938 -2.8125 1.816406 -2.800781 1.796875 -2.78125 C 1.785156 -2.769531 1.773438 -2.75 1.765625 -2.71875 Z M 1.453125 -0.1875 C 1.453125 -0.125 1.4375 -0.078125 1.40625 -0.046875 C 1.382812 -0.015625 1.335938 0 1.265625 0 L 0.484375 0 C 0.410156 0 0.359375 -0.015625 0.328125 -0.046875 C 0.296875 -0.078125 0.28125 -0.125 0.28125 -0.1875 L 0.28125 -1.609375 C 0.28125 -1.710938 0.296875 -1.832031 0.328125 -1.96875 C 0.367188 -2.113281 0.425781 -2.273438 0.5 -2.453125 L 0.96875 -3.671875 C 0.988281 -3.734375 1.019531 -3.773438 1.0625 -3.796875 C 1.101562 -3.828125 1.160156 -3.84375 1.234375 -3.84375 L 2.671875 -3.84375 C 2.734375 -3.84375 2.785156 -3.828125 2.828125 -3.796875 C 2.878906 -3.773438 2.914062 -3.734375 2.9375 -3.671875 L 3.40625 -2.453125 C 3.476562 -2.273438 3.53125 -2.113281 3.5625 -1.96875 C 3.59375 -1.832031 3.609375 -1.710938 3.609375 -1.609375 L 3.609375 -0.1875 C 3.609375 -0.125 3.59375 -0.078125 3.5625 -0.046875 C 3.53125 -0.015625 3.484375 0 3.421875 0 L 2.609375 0 C 2.535156 0 2.484375 -0.015625 2.453125 -0.046875 C 2.421875 -0.078125 2.40625 -0.125 2.40625 -0.1875 L 2.40625 -0.9375 L 1.453125 -0.9375 Z M 1.453125 -0.1875 "/></g></g></g></g><g clip-path="url(#id16)"><g fill="#14b5a2" fill-opacity="1"><g transform="translate(20.383356, 32.519859)"><g><path d="M 3.3125 0 L 1.625 0 C 1.175781 0 0.84375 -0.0859375 0.625 -0.265625 C 0.414062 -0.441406 0.3125 -0.71875 0.3125 -1.09375 L 0.3125 -2.75 C 0.3125 -3.125 0.414062 -3.398438 0.625 -3.578125 C 0.84375 -3.753906 1.175781 -3.84375 1.625 -3.84375 L 2.953125 -3.84375 C 3.023438 -3.84375 3.078125 -3.828125 3.109375 -3.796875 C 3.140625 -3.765625 3.15625 -3.71875 3.15625 -3.65625 L 3.15625 -3.015625 C 3.15625 -2.941406 3.140625 -2.890625 3.109375 -2.859375 C 3.078125 -2.828125 3.023438 -2.8125 2.953125 -2.8125 L 1.84375 -2.8125 C 1.738281 -2.8125 1.65625 -2.789062 1.59375 -2.75 C 1.539062 -2.707031 1.515625 -2.640625 1.515625 -2.546875 L 1.515625 -1.265625 C 1.515625 -1.179688 1.535156 -1.117188 1.578125 -1.078125 C 1.617188 -1.035156 1.679688 -1.015625 1.765625 -1.015625 L 2.28125 -1.015625 L 2.28125 -1.84375 C 2.28125 -1.90625 2.296875 -1.953125 2.328125 -1.984375 C 2.359375 -2.015625 2.410156 -2.03125 2.484375 -2.03125 L 3.3125 -2.03125 C 3.375 -2.03125 3.421875 -2.015625 3.453125 -1.984375 C 3.484375 -1.953125 3.5 -1.90625 3.5 -1.84375 L 3.5 -0.1875 C 3.5 -0.125 3.484375 -0.078125 3.453125 -0.046875 C 3.421875 -0.015625 3.375 0 3.3125 0 Z M 3.3125 0 "/></g></g></g></g><g clip-path="url(#id17)"><g fill="#14b5a2" fill-opacity="1"><g transform="translate(24.168328, 32.519859)"><g><path d="M 3.046875 0 L 0.5625 0 C 0.488281 0 0.4375 -0.015625 0.40625 -0.046875 C 0.382812 -0.078125 0.375 -0.125 0.375 -0.1875 L 0.375 -3.65625 C 0.375 -3.71875 0.382812 -3.765625 0.40625 -3.796875 C 0.4375 -3.828125 0.488281 -3.84375 0.5625 -3.84375 L 3.046875 -3.84375 C 3.109375 -3.84375 3.15625 -3.828125 3.1875 -3.796875 C 3.21875 -3.765625 3.234375 -3.71875 3.234375 -3.65625 L 3.234375 -3.03125 C 3.234375 -2.957031 3.21875 -2.90625 3.1875 -2.875 C 3.15625 -2.851562 3.109375 -2.84375 3.046875 -2.84375 L 1.5625 -2.84375 L 1.5625 -2.421875 L 2.609375 -2.421875 C 2.671875 -2.421875 2.71875 -2.40625 2.75 -2.375 C 2.78125 -2.34375 2.796875 -2.296875 2.796875 -2.234375 L 2.796875 -1.65625 C 2.796875 -1.59375 2.78125 -1.546875 2.75 -1.515625 C 2.71875 -1.484375 2.671875 -1.46875 2.609375 -1.46875 L 1.5625 -1.46875 L 1.5625 -1.015625 L 3.046875 -1.015625 C 3.109375 -1.015625 3.15625 -1 3.1875 -0.96875 C 3.21875 -0.9375 3.234375 -0.882812 3.234375 -0.8125 L 3.234375 -0.1875 C 3.234375 -0.125 3.21875 -0.078125 3.1875 -0.046875 C 3.15625 -0.015625 3.109375 0 3.046875 0 Z M 3.046875 0 "/></g></g></g></g></svg>